NotoSansTelugu-SemiBold.ufo
<glyph name="exclam.telu" format="2">
  <advance width="325"/>
  <unicode hex="0021"/>
  <outline>
    <contour>
      <point x="223" y="222" type="line"/>
      <point x="248" y="657" type="line"/>
      <point x="79" y="657" type="line"/>
      <point x="104" y="222" type="line"/>
    </contour>
    <contour>
      <point x="77" y="70" type="curve" smooth="yes"/>
      <point x="77" y="12"/>
      <point x="115" y="-13"/>
      <point x="163" y="-13" type="curve" smooth="yes"/>
      <point x="209" y="-13"/>
      <point x="248" y="12"/>
      <point x="248" y="70" type="curve" smooth="yes"/>
      <point x="248" y="131"/>
      <point x="209" y="153"/>
      <point x="163" y="153" type="curve" smooth="yes"/>
      <point x="115" y="153"/>
      <point x="77" y="131"/>
    </contour>
  </outline>
</glyph>
<glyph name="quotedbl.telu" format="2">
  <advance width="499"/>
  <unicode hex="0022"/>
  <outline>
    <contour>
      <point x="98" y="515" type="line"/>
      <point x="194" y="515" type="line"/>
      <point x="214" y="773" type="line"/>
      <point x="78" y="773" type="line"/>
    </contour>
    <contour>
      <point x="304" y="515" type="line"/>
      <point x="400" y="515" type="line"/>
      <point x="420" y="773" type="line"/>
      <point x="284" y="773" type="line"/>
    </contour>
  </outline>
</glyph>
<glyph name="numbersign.telu" format="2">
  <advance width="666"/>
  <unicode hex="0023"/>
  <outline>
    <contour>
      <point x="112" y="0" type="line"/>
      <point x="217" y="0" type="line"/>
      <point x="251" y="168" type="line"/>
      <point x="348" y="168" type="line"/>
      <point x="311" y="0" type="line"/>
      <point x="418" y="0" type="line"/>
      <point x="453" y="168" type="line"/>
      <point x="601" y="168" type="line"/>
      <point x="601" y="269" type="line"/>
      <point x="473" y="269" type="line"/>
      <point x="498" y="382" type="line"/>
      <point x="634" y="382" type="line"/>
      <point x="634" y="484" type="line"/>
      <point x="518" y="484" type="line"/>
      <point x="555" y="651" type="line"/>
      <point x="450" y="651" type="line"/>
      <point x="414" y="484" type="line"/>
      <point x="316" y="484" type="line"/>
      <point x="353" y="651" type="line"/>
      <point x="246" y="651" type="line"/>
      <point x="211" y="484" type="line"/>
      <point x="67" y="484" type="line"/>
      <point x="67" y="382" type="line"/>
      <point x="191" y="382" type="line"/>
      <point x="167" y="269" type="line"/>
      <point x="32" y="269" type="line"/>
      <point x="32" y="168" type="line"/>
      <point x="147" y="168" type="line"/>
    </contour>
    <contour>
      <point x="271" y="269" type="line"/>
      <point x="296" y="382" type="line"/>
      <point x="394" y="382" type="line"/>
      <point x="368" y="269" type="line"/>
    </contour>
  </outline>
</glyph>
<glyph name="percent.telu" format="2">
  <advance width="901"/>
  <unicode hex="0025"/>
  <outline>
    <contour>
      <point x="193" y="0" type="line"/>
      <point x="310" y="0" type="line"/>
      <point x="706" y="651" type="line"/>
      <point x="589" y="651" type="line"/>
    </contour>
    <contour>
      <point x="199" y="276" type="curve" smooth="yes"/>
      <point x="318" y="276"/>
      <point x="370" y="348"/>
      <point x="370" y="469" type="curve" smooth="yes"/>
      <point x="370" y="591"/>
      <point x="311" y="661"/>
      <point x="199" y="661" type="curve" smooth="yes"/>
      <point x="82" y="661"/>
      <point x="31" y="591"/>
      <point x="31" y="469" type="curve" smooth="yes"/>
      <point x="31" y="348"/>
      <point x="89" y="276"/>
    </contour>
    <contour>
      <point x="200" y="377" type="curve" smooth="yes"/>
      <point x="166" y="377"/>
      <point x="151" y="407"/>
      <point x="151" y="468" type="curve" smooth="yes"/>
      <point x="151" y="529"/>
      <point x="166" y="559"/>
      <point x="200" y="559" type="curve" smooth="yes"/>
      <point x="234" y="559"/>
      <point x="250" y="529"/>
      <point x="250" y="468" type="curve" smooth="yes"/>
      <point x="250" y="407"/>
      <point x="234" y="377"/>
    </contour>
    <contour>
      <point x="699" y="-9" type="curve" smooth="yes"/>
      <point x="818" y="-9"/>
      <point x="870" y="63"/>
      <point x="870" y="184" type="curve" smooth="yes"/>
      <point x="870" y="306"/>
      <point x="811" y="376"/>
      <point x="699" y="376" type="curve" smooth="yes"/>
      <point x="582" y="376"/>
      <point x="531" y="306"/>
      <point x="531" y="184" type="curve" smooth="yes"/>
      <point x="531" y="63"/>
      <point x="589" y="-9"/>
    </contour>
    <contour>
      <point x="700" y="92" type="curve" smooth="yes"/>
      <point x="666" y="92"/>
      <point x="651" y="122"/>
      <point x="651" y="183" type="curve" smooth="yes"/>
      <point x="651" y="244"/>
      <point x="666" y="274"/>
      <point x="700" y="274" type="curve" smooth="yes"/>
      <point x="734" y="274"/>
      <point x="750" y="244"/>
      <point x="750" y="183" type="curve" smooth="yes"/>
      <point x="750" y="122"/>
      <point x="734" y="92"/>
    </contour>
  </outline>
</glyph>
<glyph name="quotesingle.telu" format="2">
  <advance width="292"/>
  <unicode hex="0027"/>
  <outline>
    <contour>
      <point x="98" y="515" type="line"/>
      <point x="194" y="515" type="line"/>
      <point x="214" y="773" type="line"/>
      <point x="78" y="773" type="line"/>
    </contour>
  </outline>
</glyph>
<glyph name="parenleft.telu" format="2">
  <advance width="359"/>
  <unicode hex="0028"/>
  <outline>
    <contour>
      <point x="47" y="210" type="curve" smooth="yes"/>
      <point x="47" y="13"/>
      <point x="103" y="-205"/>
      <point x="208" y="-361" type="curve"/>
      <point x="330" y="-361" type="line"/>
      <point x="231" y="-197"/>
      <point x="177" y="6"/>
      <point x="177" y="209" type="curve" smooth="yes"/>
      <point x="177" y="413"/>
      <point x="237" y="625"/>
      <point x="329" y="773" type="curve"/>
      <point x="208" y="773" type="line"/>
      <point x="108" y="634"/>
      <point x="47" y="403"/>
    </contour>
  </outline>
</glyph>
<glyph name="parenright.telu" format="2">
  <advance width="359"/>
  <unicode hex="0029"/>
  <outline>
    <contour>
      <point x="312" y="202" type="curve" smooth="yes"/>
      <point x="312" y="399"/>
      <point x="256" y="619"/>
      <point x="151" y="773" type="curve"/>
      <point x="29" y="773" type="line"/>
      <point x="128" y="609"/>
      <point x="182" y="406"/>
      <point x="182" y="203" type="curve" smooth="yes"/>
      <point x="182" y="-1"/>
      <point x="122" y="-212"/>
      <point x="30" y="-361" type="curve"/>
      <point x="151" y="-361" type="line"/>
      <point x="249" y="-227"/>
      <point x="312" y="9"/>
    </contour>
  </outline>
</glyph>
<glyph name="asterisk.telu" format="2">
  <advance width="564"/>
  <unicode hex="002A"/>
  <outline>
    <contour>
      <point x="356" y="773" type="line"/>
      <point x="228" y="773" type="line"/>
      <point x="248" y="593" type="line"/>
      <point x="70" y="644" type="line"/>
      <point x="51" y="522" type="line"/>
      <point x="216" y="509" type="line"/>
      <point x="108" y="364" type="line"/>
      <point x="223" y="306" type="line"/>
      <point x="290" y="458" type="line"/>
      <point x="366" y="305" type="line"/>
      <point x="477" y="364" type="line"/>
      <point x="368" y="509" type="line"/>
      <point x="534" y="521" type="line"/>
      <point x="518" y="644" type="line"/>
      <point x="336" y="593" type="line"/>
    </contour>
  </outline>
</glyph>
<glyph name="plus.telu" format="2">
  <advance width="572"/>
  <unicode hex="002B"/>
  <outline>
    <contour>
      <point x="232" y="272" type="line"/>
      <point x="232" y="84" type="line"/>
      <point x="339" y="84" type="line"/>
      <point x="339" y="272" type="line"/>
      <point x="528" y="272" type="line"/>
      <point x="528" y="379" type="line"/>
      <point x="339" y="379" type="line"/>
      <point x="339" y="569" type="line"/>
      <point x="232" y="569" type="line"/>
      <point x="232" y="379" type="line"/>
      <point x="43" y="379" type="line"/>
      <point x="43" y="272" type="line"/>
    </contour>
  </outline>
</glyph>
<glyph name="comma.telu" format="2">
  <advance width="290"/>
  <unicode hex="002C"/>
  <outline>
    <contour>
      <point x="219" y="116" type="line"/>
      <point x="82" y="116" type="line"/>
      <point x="72" y="47"/>
      <point x="52" y="-50"/>
      <point x="33" y="-129" type="curve"/>
      <point x="140" y="-129" type="line"/>
      <point x="173" y="-56"/>
      <point x="208" y="34"/>
      <point x="226" y="105" type="curve"/>
    </contour>
  </outline>
</glyph>
<glyph name="hyphen.telu" format="2">
  <advance width="322"/>
  <unicode hex="002D"/>
  <outline>
    <contour>
      <point x="30" y="192" type="line"/>
      <point x="292" y="192" type="line"/>
      <point x="292" y="314" type="line"/>
      <point x="30" y="314" type="line"/>
    </contour>
  </outline>
</glyph>
<glyph name="period.telu" format="2">
  <advance width="285"/>
  <unicode hex="002E"/>
  <outline>
    <contour>
      <point x="57" y="70" type="curve" smooth="yes"/>
      <point x="57" y="12"/>
      <point x="95" y="-13"/>
      <point x="143" y="-13" type="curve" smooth="yes"/>
      <point x="189" y="-13"/>
      <point x="228" y="12"/>
      <point x="228" y="70" type="curve" smooth="yes"/>
      <point x="228" y="131"/>
      <point x="189" y="153"/>
      <point x="143" y="153" type="curve" smooth="yes"/>
      <point x="95" y="153"/>
      <point x="57" y="131"/>
    </contour>
  </outline>
</glyph>
<glyph name="zero.telu" format="2">
  <advance width="572"/>
  <unicode hex="0030"/>
  <outline>
    <contour>
      <point x="535" y="325" type="curve" smooth="yes"/>
      <point x="535" y="537"/>
      <point x="456" y="661"/>
      <point x="285" y="661" type="curve" smooth="yes"/>
      <point x="102" y="661"/>
      <point x="36" y="536"/>
      <point x="36" y="325" type="curve" smooth="yes"/>
      <point x="36" y="114"/>
      <point x="113" y="-11"/>
      <point x="285" y="-11" type="curve" smooth="yes"/>
      <point x="468" y="-11"/>
      <point x="535" y="114"/>
    </contour>
    <contour>
      <point x="186" y="325" type="curve" smooth="yes"/>
      <point x="186" y="469"/>
      <point x="209" y="541"/>
      <point x="285" y="541" type="curve" smooth="yes"/>
      <point x="360" y="541"/>
      <point x="385" y="469"/>
      <point x="385" y="325" type="curve" smooth="yes"/>
      <point x="385" y="180"/>
      <point x="360" y="111"/>
      <point x="285" y="111" type="curve" smooth="yes"/>
      <point x="209" y="111"/>
      <point x="186" y="180"/>
    </contour>
  </outline>
</glyph>
<glyph name="one.telu" format="2">
  <advance width="572"/>
  <unicode hex="0031"/>
  <outline>
    <contour>
      <point x="413" y="0" type="line"/>
      <point x="413" y="651" type="line"/>
      <point x="289" y="651" type="line"/>
      <point x="59" y="468" type="line"/>
      <point x="132" y="377" type="line"/>
      <point x="214" y="443" type="line" smooth="yes"/>
      <point x="233" y="458"/>
      <point x="259" y="484"/>
      <point x="266" y="492" type="curve"/>
      <point x="264" y="449"/>
      <point x="262" y="384"/>
      <point x="262" y="350" type="curve" smooth="yes"/>
      <point x="262" y="0" type="line"/>
    </contour>
  </outline>
</glyph>
<glyph name="two.telu" format="2">
  <advance width="572"/>
  <unicode hex="0032"/>
  <outline>
    <contour>
      <point x="539" y="0" type="line"/>
      <point x="539" y="125" type="line"/>
      <point x="239" y="125" type="line"/>
      <point x="239" y="131" type="line"/>
      <point x="332" y="210" type="line" smooth="yes"/>
      <point x="455" y="315"/>
      <point x="519" y="382"/>
      <point x="519" y="488" type="curve" smooth="yes"/>
      <point x="519" y="587"/>
      <point x="433" y="661"/>
      <point x="293" y="661" type="curve" smooth="yes"/>
      <point x="170" y="661"/>
      <point x="99" y="611"/>
      <point x="38" y="559" type="curve"/>
      <point x="118" y="464" type="line"/>
      <point x="175" y="511"/>
      <point x="227" y="537"/>
      <point x="282" y="537" type="curve" smooth="yes"/>
      <point x="335" y="537"/>
      <point x="369" y="514"/>
      <point x="369" y="461" type="curve" smooth="yes"/>
      <point x="369" y="400"/>
      <point x="329" y="359"/>
      <point x="213" y="257" type="curve" smooth="yes"/>
      <point x="40" y="105" type="line"/>
      <point x="40" y="0" type="line"/>
    </contour>
  </outline>
</glyph>
<glyph name="three.telu" format="2">
  <advance width="572"/>
  <unicode hex="0033"/>
  <outline>
    <contour>
      <point x="511" y="506" type="curve" smooth="yes"/>
      <point x="511" y="604"/>
      <point x="424" y="661"/>
      <point x="272" y="661" type="curve" smooth="yes"/>
      <point x="168" y="661"/>
      <point x="95" y="631"/>
      <point x="39" y="591" type="curve"/>
      <point x="106" y="490" type="line"/>
      <point x="153" y="520"/>
      <point x="201" y="541"/>
      <point x="261" y="541" type="curve" smooth="yes"/>
      <point x="338" y="541"/>
      <point x="363" y="516"/>
      <point x="363" y="472" type="curve" smooth="yes"/>
      <point x="363" y="425"/>
      <point x="334" y="392"/>
      <point x="217" y="392" type="curve" smooth="yes"/>
      <point x="148" y="392" type="line"/>
      <point x="148" y="278" type="line"/>
      <point x="218" y="278" type="line" smooth="yes"/>
      <point x="336" y="278"/>
      <point x="374" y="250"/>
      <point x="374" y="197" type="curve" smooth="yes"/>
      <point x="374" y="141"/>
      <point x="339" y="108"/>
      <point x="228" y="108" type="curve" smooth="yes"/>
      <point x="170" y="108"/>
      <point x="99" y="124"/>
      <point x="38" y="155" type="curve"/>
      <point x="38" y="29" type="line"/>
      <point x="98" y="3"/>
      <point x="165" y="-10"/>
      <point x="244" y="-10" type="curve" smooth="yes"/>
      <point x="450" y="-10"/>
      <point x="532" y="75"/>
      <point x="532" y="189" type="curve" smooth="yes"/>
      <point x="532" y="275"/>
      <point x="474" y="328"/>
      <point x="359" y="341" type="curve"/>
      <point x="359" y="344" type="line"/>
      <point x="446" y="363"/>
      <point x="511" y="411"/>
    </contour>
  </outline>
</glyph>
<glyph name="four.telu" format="2">
  <advance width="572"/>
  <unicode hex="0034"/>
  <outline>
    <contour>
      <point x="555" y="130" type="line"/>
      <point x="555" y="246" type="line"/>
      <point x="469" y="246" type="line"/>
      <point x="469" y="651" type="line"/>
      <point x="330" y="651" type="line"/>
      <point x="17" y="233" type="line"/>
      <point x="17" y="130" type="line"/>
      <point x="322" y="130" type="line"/>
      <point x="322" y="0" type="line"/>
      <point x="469" y="0" type="line"/>
      <point x="469" y="130" type="line"/>
    </contour>
    <contour>
      <point x="322" y="246" type="line"/>
      <point x="148" y="246" type="line"/>
      <point x="281" y="421" type="line" smooth="yes"/>
      <point x="299" y="445"/>
      <point x="312" y="466"/>
      <point x="324" y="489" type="curve"/>
      <point x="328" y="489" type="line"/>
      <point x="326" y="473"/>
      <point x="322" y="394"/>
      <point x="322" y="354" type="curve" smooth="yes"/>
    </contour>
  </outline>
</glyph>
<glyph name="five.telu" format="2">
  <advance width="572"/>
  <unicode hex="0035"/>
  <outline>
    <contour>
      <point x="300" y="419" type="curve" smooth="yes"/>
      <point x="253" y="419"/>
      <point x="227" y="414"/>
      <point x="206" y="409" type="curve"/>
      <point x="217" y="525" type="line"/>
      <point x="477" y="525" type="line"/>
      <point x="477" y="651" type="line"/>
      <point x="90" y="651" type="line"/>
      <point x="63" y="314" type="line"/>
      <point x="123" y="283" type="line"/>
      <point x="150" y="291"/>
      <point x="194" y="299"/>
      <point x="239" y="299" type="curve" smooth="yes"/>
      <point x="331" y="299"/>
      <point x="374" y="268"/>
      <point x="374" y="206" type="curve" smooth="yes"/>
      <point x="374" y="140"/>
      <point x="331" y="111"/>
      <point x="236" y="111" type="curve" smooth="yes"/>
      <point x="175" y="111"/>
      <point x="98" y="131"/>
      <point x="49" y="157" type="curve"/>
      <point x="49" y="29" type="line"/>
      <point x="98" y="3"/>
      <point x="166" y="-10"/>
      <point x="241" y="-10" type="curve" smooth="yes"/>
      <point x="436" y="-10"/>
      <point x="526" y="77"/>
      <point x="526" y="220" type="curve" smooth="yes"/>
      <point x="526" y="350"/>
      <point x="436" y="419"/>
    </contour>
  </outline>
</glyph>
<glyph name="six.telu" format="2">
  <advance width="572"/>
  <unicode hex="0036"/>
  <outline>
    <contour>
      <point x="35" y="285" type="curve" smooth="yes"/>
      <point x="35" y="73"/>
      <point x="150" y="-10"/>
      <point x="296" y="-10" type="curve" smooth="yes"/>
      <point x="445" y="-10"/>
      <point x="539" y="68"/>
      <point x="539" y="219" type="curve" smooth="yes"/>
      <point x="539" y="354"/>
      <point x="460" y="428"/>
      <point x="335" y="428" type="curve" smooth="yes"/>
      <point x="260" y="428"/>
      <point x="207" y="392"/>
      <point x="180" y="346" type="curve"/>
      <point x="174" y="346" type="line"/>
      <point x="180" y="465"/>
      <point x="220" y="545"/>
      <point x="403" y="545" type="curve" smooth="yes"/>
      <point x="432" y="545"/>
      <point x="463" y="541"/>
      <point x="489" y="535" type="curve"/>
      <point x="489" y="654" type="line"/>
      <point x="464" y="659"/>
      <point x="421" y="661"/>
      <point x="393" y="661" type="curve" smooth="yes"/>
      <point x="96" y="661"/>
      <point x="35" y="473"/>
    </contour>
    <contour>
      <point x="293" y="109" type="curve" smooth="yes"/>
      <point x="222" y="109"/>
      <point x="185" y="167"/>
      <point x="185" y="229" type="curve" smooth="yes"/>
      <point x="185" y="271"/>
      <point x="229" y="314"/>
      <point x="296" y="314" type="curve" smooth="yes"/>
      <point x="361" y="314"/>
      <point x="393" y="277"/>
      <point x="393" y="215" type="curve" smooth="yes"/>
      <point x="393" y="142"/>
      <point x="352" y="109"/>
    </contour>
  </outline>
</glyph>
<glyph name="seven.telu" format="2">
  <advance width="572"/>
  <unicode hex="0037"/>
  <outline>
    <contour>
      <point x="109" y="0" type="line"/>
      <point x="269" y="0" type="line"/>
      <point x="539" y="556" type="line"/>
      <point x="539" y="651" type="line"/>
      <point x="27" y="651" type="line"/>
      <point x="27" y="526" type="line"/>
      <point x="378" y="526" type="line"/>
    </contour>
  </outline>
</glyph>
<glyph name="eight.telu" format="2">
  <advance width="572"/>
  <unicode hex="0038"/>
  <outline>
    <contour>
      <point x="286" y="661" type="curve" smooth="yes"/>
      <point x="158" y="661"/>
      <point x="57" y="608"/>
      <point x="57" y="505" type="curve" smooth="yes"/>
      <point x="57" y="428"/>
      <point x="108" y="379"/>
      <point x="172" y="342" type="curve"/>
      <point x="96" y="308"/>
      <point x="35" y="256"/>
      <point x="35" y="166" type="curve" smooth="yes"/>
      <point x="35" y="56"/>
      <point x="119" y="-10"/>
      <point x="286" y="-10" type="curve" smooth="yes"/>
      <point x="441" y="-10"/>
      <point x="536" y="60"/>
      <point x="536" y="169" type="curve" smooth="yes"/>
      <point x="536" y="257"/>
      <point x="462" y="310"/>
      <point x="386" y="346" type="curve"/>
      <point x="459" y="379"/>
      <point x="514" y="426"/>
      <point x="514" y="504" type="curve" smooth="yes"/>
      <point x="514" y="609"/>
      <point x="415" y="661"/>
    </contour>
    <contour>
      <point x="175" y="178" type="curve" smooth="yes"/>
      <point x="175" y="227"/>
      <point x="217" y="259"/>
      <point x="279" y="284" type="curve"/>
      <point x="292" y="278" type="line" smooth="yes"/>
      <point x="342" y="255"/>
      <point x="396" y="225"/>
      <point x="396" y="177" type="curve" smooth="yes"/>
      <point x="396" y="129"/>
      <point x="364" y="99"/>
      <point x="284" y="99" type="curve" smooth="yes"/>
      <point x="205" y="99"/>
      <point x="175" y="131"/>
    </contour>
    <contour>
      <point x="285" y="553" type="curve" smooth="yes"/>
      <point x="340" y="553"/>
      <point x="372" y="530"/>
      <point x="372" y="490" type="curve" smooth="yes"/>
      <point x="372" y="445"/>
      <point x="331" y="423"/>
      <point x="286" y="406" type="curve"/>
      <point x="239" y="425"/>
      <point x="199" y="448"/>
      <point x="199" y="490" type="curve" smooth="yes"/>
      <point x="199" y="530"/>
      <point x="231" y="553"/>
    </contour>
  </outline>
</glyph>
<glyph name="nine.telu" format="2">
  <advance width="572"/>
  <unicode hex="0039"/>
  <outline>
    <contour>
      <point x="536" y="365" type="curve" smooth="yes"/>
      <point x="536" y="570"/>
      <point x="421" y="661"/>
      <point x="275" y="661" type="curve" smooth="yes"/>
      <point x="121" y="661"/>
      <point x="32" y="575"/>
      <point x="32" y="432" type="curve" smooth="yes"/>
      <point x="32" y="299"/>
      <point x="104" y="224"/>
      <point x="233" y="224" type="curve" smooth="yes"/>
      <point x="324" y="224"/>
      <point x="364" y="261"/>
      <point x="391" y="306" type="curve"/>
      <point x="397" y="306" type="line"/>
      <point x="390" y="187"/>
      <point x="351" y="106"/>
      <point x="168" y="106" type="curve" smooth="yes"/>
      <point x="138" y="106"/>
      <point x="108" y="110"/>
      <point x="82" y="116" type="curve"/>
      <point x="82" y="-3" type="line"/>
      <point x="107" y="-8"/>
      <point x="150" y="-10"/>
      <point x="178" y="-10" type="curve" smooth="yes"/>
      <point x="478" y="-10"/>
      <point x="536" y="186"/>
    </contour>
    <contour>
      <point x="278" y="542" type="curve" smooth="yes"/>
      <point x="353" y="542"/>
      <point x="386" y="481"/>
      <point x="386" y="423" type="curve" smooth="yes"/>
      <point x="386" y="381"/>
      <point x="345" y="337"/>
      <point x="275" y="337" type="curve" smooth="yes"/>
      <point x="206" y="337"/>
      <point x="178" y="373"/>
      <point x="178" y="438" type="curve" smooth="yes"/>
      <point x="178" y="507"/>
      <point x="216" y="542"/>
    </contour>
  </outline>
</glyph>
<glyph name="colon.telu" format="2">
  <advance width="285"/>
  <unicode hex="003A"/>
  <outline>
    <contour>
      <point x="57" y="70" type="curve" smooth="yes"/>
      <point x="57" y="12"/>
      <point x="95" y="-13"/>
      <point x="143" y="-13" type="curve" smooth="yes"/>
      <point x="189" y="-13"/>
      <point x="228" y="12"/>
      <point x="228" y="70" type="curve" smooth="yes"/>
      <point x="228" y="131"/>
      <point x="189" y="153"/>
      <point x="143" y="153" type="curve" smooth="yes"/>
      <point x="95" y="153"/>
      <point x="57" y="131"/>
    </contour>
    <contour>
      <point x="57" y="372" type="curve" smooth="yes"/>
      <point x="57" y="313"/>
      <point x="95" y="289"/>
      <point x="143" y="289" type="curve" smooth="yes"/>
      <point x="189" y="289"/>
      <point x="228" y="313"/>
      <point x="228" y="372" type="curve" smooth="yes"/>
      <point x="228" y="433"/>
      <point x="189" y="455"/>
      <point x="143" y="455" type="curve" smooth="yes"/>
      <point x="95" y="455"/>
      <point x="57" y="433"/>
    </contour>
  </outline>
</glyph>
<glyph name="semicolon.telu" format="2">
  <advance width="290"/>
  <unicode hex="003B"/>
  <outline>
    <contour>
      <point x="217" y="116" type="line"/>
      <point x="80" y="116" type="line"/>
      <point x="70" y="47"/>
      <point x="50" y="-50"/>
      <point x="31" y="-129" type="curve"/>
      <point x="138" y="-129" type="line"/>
      <point x="171" y="-56"/>
      <point x="206" y="34"/>
      <point x="224" y="105" type="curve"/>
    </contour>
    <contour>
      <point x="57" y="372" type="curve" smooth="yes"/>
      <point x="57" y="313"/>
      <point x="95" y="289"/>
      <point x="143" y="289" type="curve" smooth="yes"/>
      <point x="189" y="289"/>
      <point x="228" y="313"/>
      <point x="228" y="372" type="curve" smooth="yes"/>
      <point x="228" y="433"/>
      <point x="189" y="455"/>
      <point x="143" y="455" type="curve" smooth="yes"/>
      <point x="95" y="455"/>
      <point x="57" y="433"/>
    </contour>
  </outline>
</glyph>
<glyph name="less.telu" format="2">
  <advance width="572"/>
  <unicode hex="003C"/>
  <outline>
    <contour>
      <point x="528" y="72" type="line"/>
      <point x="528" y="189" type="line"/>
      <point x="194" y="326" type="line"/>
      <point x="528" y="481" type="line"/>
      <point x="528" y="598" type="line"/>
      <point x="43" y="356" type="line"/>
      <point x="43" y="286" type="line"/>
    </contour>
  </outline>
</glyph>
<glyph name="equal.telu" format="2">
  <advance width="572"/>
  <unicode hex="003D"/>
  <outline>
    <contour>
      <point x="43" y="367" type="line"/>
      <point x="528" y="367" type="line"/>
      <point x="528" y="473" type="line"/>
      <point x="43" y="473" type="line"/>
    </contour>
    <contour>
      <point x="43" y="177" type="line"/>
      <point x="528" y="177" type="line"/>
      <point x="528" y="284" type="line"/>
      <point x="43" y="284" type="line"/>
    </contour>
  </outline>
</glyph>
<glyph name="greater.telu" format="2">
  <advance width="572"/>
  <unicode hex="003E"/>
  <outline>
    <contour>
      <point x="43" y="189" type="line"/>
      <point x="43" y="72" type="line"/>
      <point x="528" y="286" type="line"/>
      <point x="528" y="356" type="line"/>
      <point x="43" y="598" type="line"/>
      <point x="43" y="481" type="line"/>
      <point x="377" y="326" type="line"/>
    </contour>
  </outline>
</glyph>
<glyph name="question.telu" format="2">
  <advance width="483"/>
  <unicode hex="003F"/>
  <outline>
    <contour>
      <point x="248" y="661" type="curve" smooth="yes"/>
      <point x="166" y="661"/>
      <point x="110" y="644"/>
      <point x="43" y="612" type="curve"/>
      <point x="91" y="509" type="line"/>
      <point x="137" y="534"/>
      <point x="178" y="544"/>
      <point x="225" y="544" type="curve" smooth="yes"/>
      <point x="276" y="544"/>
      <point x="311" y="521"/>
      <point x="311" y="479" type="curve" smooth="yes"/>
      <point x="311" y="443"/>
      <point x="284" y="416"/>
      <point x="238" y="381" type="curve" smooth="yes"/>
      <point x="175" y="333"/>
      <point x="153" y="296"/>
      <point x="153" y="240" type="curve" smooth="yes"/>
      <point x="153" y="222" type="line"/>
      <point x="283" y="222" type="line"/>
      <point x="283" y="228" type="line" smooth="yes"/>
      <point x="283" y="252"/>
      <point x="294" y="278"/>
      <point x="348" y="322" type="curve" smooth="yes"/>
      <point x="421" y="381"/>
      <point x="452" y="427"/>
      <point x="452" y="491" type="curve" smooth="yes"/>
      <point x="452" y="588"/>
      <point x="384" y="661"/>
    </contour>
    <contour>
      <point x="224" y="-13" type="curve" smooth="yes"/>
      <point x="270" y="-13"/>
      <point x="309" y="12"/>
      <point x="309" y="70" type="curve" smooth="yes"/>
      <point x="309" y="131"/>
      <point x="270" y="153"/>
      <point x="224" y="153" type="curve" smooth="yes"/>
      <point x="176" y="153"/>
      <point x="138" y="131"/>
      <point x="138" y="70" type="curve" smooth="yes"/>
      <point x="138" y="12"/>
      <point x="176" y="-13"/>
    </contour>
  </outline>
</glyph>
<glyph name="bracketleft.telu" format="2">
  <advance width="354"/>
  <unicode hex="005B"/>
  <outline>
    <contour>
      <point x="314" y="-361" type="line"/>
      <point x="314" y="-258" type="line"/>
      <point x="205" y="-258" type="line"/>
      <point x="205" y="670" type="line"/>
      <point x="314" y="670" type="line"/>
      <point x="314" y="773" type="line"/>
      <point x="78" y="773" type="line"/>
      <point x="78" y="-361" type="line"/>
    </contour>
  </outline>
</glyph>
<glyph name="backslash.telu" format="2">
  <advance width="470"/>
  <unicode hex="005C"/>
  <outline>
    <contour>
      <point x="152" y="773" type="line"/>
      <point x="27" y="773" type="line"/>
      <point x="317" y="-361" type="line"/>
      <point x="443" y="-361" type="line"/>
    </contour>
  </outline>
</glyph>
<glyph name="braceleft.telu" format="2">
  <advance width="404"/>
  <unicode hex="007B"/>
  <outline>
    <contour>
      <point x="364" y="-361" type="curve"/>
      <point x="364" y="-250" type="line"/>
      <point x="312" y="-250"/>
      <point x="279" y="-238"/>
      <point x="279" y="-182" type="curve" smooth="yes"/>
      <point x="279" y="95" type="line" smooth="yes"/>
      <point x="279" y="156"/>
      <point x="239" y="192"/>
      <point x="165" y="203" type="curve"/>
      <point x="165" y="209" type="line"/>
      <point x="239" y="220"/>
      <point x="279" y="256"/>
      <point x="279" y="317" type="curve" smooth="yes"/>
      <point x="279" y="594" type="line" smooth="yes"/>
      <point x="279" y="650"/>
      <point x="312" y="662"/>
      <point x="364" y="663" type="curve"/>
      <point x="364" y="773" type="line"/>
      <point x="193" y="773"/>
      <point x="150" y="733"/>
      <point x="150" y="637" type="curve" smooth="yes"/>
      <point x="150" y="351" type="line" smooth="yes"/>
      <point x="150" y="288"/>
      <point x="106" y="264"/>
      <point x="25" y="264" type="curve"/>
      <point x="25" y="147" type="line"/>
      <point x="106" y="147"/>
      <point x="150" y="123"/>
      <point x="150" y="60" type="curve" smooth="yes"/>
      <point x="150" y="-225" type="line" smooth="yes"/>
      <point x="150" y="-321"/>
      <point x="193" y="-361"/>
    </contour>
  </outline>
</glyph>
<glyph name="bar.telu" format="2">
  <advance width="551"/>
  <unicode hex="007C"/>
  <outline>
    <contour>
      <point x="215" y="773" type="line"/>
      <point x="215" y="-361" type="line"/>
      <point x="336" y="-361" type="line"/>
      <point x="336" y="773" type="line"/>
    </contour>
  </outline>
</glyph>
<glyph name="braceright.telu" format="2">
  <advance width="404"/>
  <unicode hex="007D"/>
  <outline>
    <contour>
      <point x="40" y="773" type="curve"/>
      <point x="40" y="663" type="line"/>
      <point x="93" y="662"/>
      <point x="125" y="650"/>
      <point x="125" y="594" type="curve" smooth="yes"/>
      <point x="125" y="317" type="line" smooth="yes"/>
      <point x="125" y="256"/>
      <point x="165" y="220"/>
      <point x="239" y="209" type="curve"/>
      <point x="239" y="203" type="line"/>
      <point x="165" y="192"/>
      <point x="125" y="156"/>
      <point x="125" y="95" type="curve" smooth="yes"/>
      <point x="125" y="-182" type="line" smooth="yes"/>
      <point x="125" y="-238"/>
      <point x="93" y="-250"/>
      <point x="40" y="-251" type="curve"/>
      <point x="40" y="-361" type="line"/>
      <point x="211" y="-361"/>
      <point x="254" y="-321"/>
      <point x="254" y="-225" type="curve" smooth="yes"/>
      <point x="254" y="61" type="line" smooth="yes"/>
      <point x="254" y="124"/>
      <point x="298" y="148"/>
      <point x="379" y="148" type="curve"/>
      <point x="379" y="265" type="line"/>
      <point x="298" y="265"/>
      <point x="254" y="289"/>
      <point x="254" y="352" type="curve"/>
      <point x="254" y="637" type="line"/>
      <point x="254" y="733"/>
      <point x="211" y="773"/>
    </contour>
  </outline>
</glyph>
<glyph name="asciitilde.telu" format="2">
  <advance width="572"/>
  <unicode hex="007E"/>
  <outline>
    <contour>
      <point x="268" y="274" type="curve"/>
      <point x="331" y="248"/>
      <point x="364" y="243"/>
      <point x="403" y="243" type="curve" smooth="yes"/>
      <point x="454" y="243"/>
      <point x="495" y="261"/>
      <point x="528" y="296" type="curve"/>
      <point x="528" y="409" type="line"/>
      <point x="495" y="376"/>
      <point x="452" y="350"/>
      <point x="414" y="350" type="curve" smooth="yes"/>
      <point x="385" y="350"/>
      <point x="352" y="356"/>
      <point x="303" y="377" type="curve" smooth="yes"/>
      <point x="240" y="403"/>
      <point x="207" y="408"/>
      <point x="168" y="408" type="curve" smooth="yes"/>
      <point x="117" y="408"/>
      <point x="76" y="390"/>
      <point x="43" y="355" type="curve"/>
      <point x="43" y="242" type="line"/>
      <point x="76" y="275"/>
      <point x="119" y="301"/>
      <point x="157" y="301" type="curve" smooth="yes"/>
      <point x="187" y="301"/>
      <point x="219" y="295"/>
    </contour>
  </outline>
</glyph>
<glyph name="multiply.telu" format="2">
  <advance width="572"/>
  <unicode hex="00D7"/>
  <outline>
    <contour>
      <point x="64" y="179" type="line"/>
      <point x="137" y="105" type="line"/>
      <point x="284" y="251" type="line"/>
      <point x="433" y="104" type="line"/>
      <point x="506" y="178" type="line"/>
      <point x="359" y="326" type="line"/>
      <point x="508" y="475" type="line"/>
      <point x="433" y="548" type="line"/>
      <point x="284" y="402" type="line"/>
      <point x="137" y="548" type="line"/>
      <point x="63" y="473" type="line"/>
      <point x="209" y="326" type="line"/>
    </contour>
  </outline>
</glyph>
<glyph name="divide.telu" format="2">
  <advance width="572"/>
  <unicode hex="00F7"/>
  <outline>
    <contour>
      <point x="43" y="272" type="line"/>
      <point x="528" y="272" type="line"/>
      <point x="528" y="379" type="line"/>
      <point x="43" y="379" type="line"/>
    </contour>
    <contour>
      <point x="285" y="81" type="curve" smooth="yes"/>
      <point x="321" y="81"/>
      <point x="353" y="103"/>
      <point x="353" y="155" type="curve" smooth="yes"/>
      <point x="353" y="210"/>
      <point x="321" y="229"/>
      <point x="285" y="229" type="curve" smooth="yes"/>
      <point x="248" y="229"/>
      <point x="217" y="210"/>
      <point x="217" y="155" type="curve" smooth="yes"/>
      <point x="217" y="103"/>
      <point x="248" y="81"/>
    </contour>
    <contour>
      <point x="285" y="422" type="curve" smooth="yes"/>
      <point x="321" y="422"/>
      <point x="353" y="444"/>
      <point x="353" y="496" type="curve" smooth="yes"/>
      <point x="353" y="551"/>
      <point x="321" y="570"/>
      <point x="285" y="570" type="curve" smooth="yes"/>
      <point x="248" y="570"/>
      <point x="217" y="551"/>
      <point x="217" y="496" type="curve" smooth="yes"/>
      <point x="217" y="444"/>
      <point x="248" y="422"/>
    </contour>
  </outline>
</glyph>
<glyph name="uni0952" format="2">
  <unicode hex="0952"/>
  <outline>
    <contour>
      <point x="-526" y="-100" type="line"/>
      <point x="-526" y="-191" type="line"/>
      <point x="-47" y="-191" type="line"/>
      <point x="-47" y="-100" type="line"/>
    </contour>
  </outline>
</glyph>
<glyph name="dbldandatelu" format="2">
  <advance width="638"/>
  <unicode hex="0965"/>
  <outline>
    <contour>
      <point x="417" y="-139" type="line"/>
      <point x="551" y="-139" type="line"/>
      <point x="551" y="651" type="line"/>
      <point x="417" y="651" type="line"/>
    </contour>
    <contour>
      <point x="178" y="-139" type="line"/>
      <point x="312" y="-139" type="line"/>
      <point x="312" y="651" type="line"/>
      <point x="178" y="651" type="line"/>
    </contour>
  </outline>
</glyph>
<glyph name="uni0C00" format="2">
  <unicode hex="0C00"/>
  <outline>
    <contour>
      <point x="-286" y="590" type="curve" smooth="yes"/>
      <point x="-157" y="590"/>
      <point x="-90" y="653"/>
      <point x="-90" y="755" type="curve" smooth="yes"/>
      <point x="-90" y="777"/>
      <point x="-93" y="796"/>
      <point x="-97" y="813" type="curve"/>
      <point x="-190" y="794" type="line"/>
      <point x="-186" y="780"/>
      <point x="-185" y="769"/>
      <point x="-185" y="759" type="curve" smooth="yes"/>
      <point x="-185" y="695"/>
      <point x="-236" y="680"/>
      <point x="-286" y="680" type="curve" smooth="yes"/>
      <point x="-340" y="680"/>
      <point x="-386" y="693"/>
      <point x="-386" y="757" type="curve" smooth="yes"/>
      <point x="-386" y="768"/>
      <point x="-385" y="780"/>
      <point x="-381" y="794" type="curve"/>
      <point x="-473" y="813" type="line"/>
      <point x="-478" y="797"/>
      <point x="-481" y="780"/>
      <point x="-481" y="753" type="curve" smooth="yes"/>
      <point x="-481" y="653"/>
      <point x="-416" y="590"/>
    </contour>
    <contour>
      <point x="-287" y="701" type="curve" smooth="yes"/>
      <point x="-242" y="701"/>
      <point x="-225" y="723"/>
      <point x="-225" y="756" type="curve" smooth="yes"/>
      <point x="-225" y="787"/>
      <point x="-242" y="811"/>
      <point x="-287" y="811" type="curve" smooth="yes"/>
      <point x="-332" y="811"/>
      <point x="-348" y="787"/>
      <point x="-348" y="756" type="curve" smooth="yes"/>
      <point x="-348" y="723"/>
      <point x="-332" y="701"/>
    </contour>
  </outline>
</glyph>
<glyph name="candrabindutelu" format="2">
  <advance width="321"/>
  <unicode hex="0C01"/>
  <outline>
    <contour>
      <point x="30" y="208" type="curve" smooth="yes"/>
      <point x="30" y="70"/>
      <point x="138" y="-12"/>
      <point x="300" y="-12" type="curve" smooth="yes"/>
      <point x="302" y="-12" type="line"/>
      <point x="302" y="101" type="line"/>
      <point x="201" y="101"/>
      <point x="164" y="144"/>
      <point x="164" y="207" type="curve" smooth="yes"/>
      <point x="164" y="280"/>
      <point x="208" y="315"/>
      <point x="302" y="315" type="curve"/>
      <point x="302" y="428" type="line"/>
      <point x="299" y="428" type="line" smooth="yes"/>
      <point x="140" y="428"/>
      <point x="30" y="347"/>
    </contour>
  </outline>
</glyph>
<glyph name="anusvaratelu" format="2">
  <advance width="548"/>
  <unicode hex="0C02"/>
  <outline>
    <contour>
      <point x="30" y="207" type="curve" smooth="yes"/>
      <point x="30" y="83"/>
      <point x="121" y="-12"/>
      <point x="274" y="-12" type="curve" smooth="yes"/>
      <point x="427" y="-12"/>
      <point x="518" y="81"/>
      <point x="518" y="207" type="curve" smooth="yes"/>
      <point x="518" y="333"/>
      <point x="430" y="428"/>
      <point x="276" y="428" type="curve" smooth="yes"/>
      <point x="124" y="428"/>
      <point x="30" y="332"/>
    </contour>
    <contour>
      <point x="164" y="208" type="curve" smooth="yes"/>
      <point x="164" y="269"/>
      <point x="204" y="317"/>
      <point x="274" y="317" type="curve" smooth="yes"/>
      <point x="345" y="317"/>
      <point x="384" y="269"/>
      <point x="384" y="208" type="curve" smooth="yes"/>
      <point x="384" y="147"/>
      <point x="347" y="99"/>
      <point x="274" y="99" type="curve" smooth="yes"/>
      <point x="201" y="99"/>
      <point x="164" y="147"/>
    </contour>
  </outline>
</glyph>
<glyph name="visargatelu" format="2">
  <advance width="333"/>
  <unicode hex="0C03"/>
  <outline>
    <contour>
      <point x="26" y="110" type="curve" smooth="yes"/>
      <point x="26" y="41"/>
      <point x="76" y="-12"/>
      <point x="166" y="-12" type="curve" smooth="yes"/>
      <point x="257" y="-12"/>
      <point x="307" y="41"/>
      <point x="307" y="110" type="curve" smooth="yes"/>
      <point x="307" y="181"/>
      <point x="256" y="234"/>
      <point x="166" y="234" type="curve" smooth="yes"/>
      <point x="77" y="234"/>
      <point x="26" y="181"/>
    </contour>
    <contour>
      <point x="121" y="112" type="curve" smooth="yes"/>
      <point x="121" y="137"/>
      <point x="138" y="156"/>
      <point x="166" y="156" type="curve" smooth="yes"/>
      <point x="195" y="156"/>
      <point x="212" y="137"/>
      <point x="212" y="112" type="curve" smooth="yes"/>
      <point x="212" y="86"/>
      <point x="196" y="66"/>
      <point x="166" y="66" type="curve" smooth="yes"/>
      <point x="137" y="66"/>
      <point x="121" y="86"/>
    </contour>
    <contour>
      <point x="26" y="377" type="curve" smooth="yes"/>
      <point x="26" y="308"/>
      <point x="76" y="255"/>
      <point x="166" y="255" type="curve" smooth="yes"/>
      <point x="257" y="255"/>
      <point x="307" y="307"/>
      <point x="307" y="377" type="curve" smooth="yes"/>
      <point x="307" y="448"/>
      <point x="256" y="500"/>
      <point x="166" y="500" type="curve" smooth="yes"/>
      <point x="77" y="500"/>
      <point x="26" y="447"/>
    </contour>
    <contour>
      <point x="121" y="378" type="curve" smooth="yes"/>
      <point x="121" y="403"/>
      <point x="138" y="422"/>
      <point x="166" y="422" type="curve" smooth="yes"/>
      <point x="195" y="422"/>
      <point x="212" y="403"/>
      <point x="212" y="378" type="curve" smooth="yes"/>
      <point x="212" y="353"/>
      <point x="196" y="333"/>
      <point x="166" y="333" type="curve" smooth="yes"/>
      <point x="137" y="333"/>
      <point x="121" y="353"/>
    </contour>
  </outline>
</glyph>
<glyph name="uni0C04" format="2">
  <unicode hex="0C04"/>
  <outline>
    <contour>
      <point x="-426" y="712" type="curve" smooth="yes"/>
      <point x="-426" y="643"/>
      <point x="-376" y="590"/>
      <point x="-286" y="590" type="curve" smooth="yes"/>
      <point x="-195" y="590"/>
      <point x="-145" y="642"/>
      <point x="-145" y="712" type="curve" smooth="yes"/>
      <point x="-145" y="783"/>
      <point x="-196" y="835"/>
      <point x="-286" y="835" type="curve" smooth="yes"/>
      <point x="-375" y="835"/>
      <point x="-426" y="782"/>
    </contour>
    <contour>
      <point x="-331" y="713" type="curve" smooth="yes"/>
      <point x="-331" y="738"/>
      <point x="-314" y="757"/>
      <point x="-286" y="757" type="curve" smooth="yes"/>
      <point x="-257" y="757"/>
      <point x="-240" y="738"/>
      <point x="-240" y="713" type="curve" smooth="yes"/>
      <point x="-240" y="688"/>
      <point x="-256" y="668"/>
      <point x="-286" y="668" type="curve" smooth="yes"/>
      <point x="-315" y="668"/>
      <point x="-331" y="688"/>
    </contour>
  </outline>
</glyph>
<glyph name="atelu" format="2">
  <advance width="911"/>
  <unicode hex="0C05"/>
  <outline>
    <contour>
      <point x="448" y="-12" type="curve" smooth="yes"/>
      <point x="720" y="-12"/>
      <point x="879" y="91"/>
      <point x="879" y="282" type="curve" smooth="yes"/>
      <point x="879" y="414"/>
      <point x="790" y="500"/>
      <point x="652" y="500" type="curve" smooth="yes"/>
      <point x="545" y="500"/>
      <point x="484" y="438"/>
      <point x="484" y="362" type="curve" smooth="yes"/>
      <point x="484" y="336"/>
      <point x="497" y="297"/>
      <point x="523" y="270" type="curve"/>
      <point x="540" y="274" type="line"/>
      <point x="393" y="274" type="line"/>
      <point x="393" y="172" type="line"/>
      <point x="667" y="172" type="line"/>
      <point x="667" y="261" type="line"/>
      <point x="626" y="274"/>
      <point x="601" y="299"/>
      <point x="601" y="333" type="curve" smooth="yes"/>
      <point x="601" y="367"/>
      <point x="625" y="387"/>
      <point x="657" y="387" type="curve" smooth="yes"/>
      <point x="708" y="387"/>
      <point x="740" y="348"/>
      <point x="740" y="286" type="curve" smooth="yes"/>
      <point x="740" y="158"/>
      <point x="652" y="109"/>
      <point x="452" y="109" type="curve" smooth="yes"/>
      <point x="234" y="109"/>
      <point x="162" y="182"/>
      <point x="162" y="261" type="curve" smooth="yes"/>
      <point x="162" y="301" type="line" smooth="yes"/>
      <point x="162" y="356"/>
      <point x="196" y="401"/>
      <point x="243" y="401" type="curve" smooth="yes"/>
      <point x="273" y="401"/>
      <point x="290" y="378"/>
      <point x="290" y="355" type="curve" smooth="yes"/>
      <point x="290" y="319"/>
      <point x="261" y="305"/>
      <point x="221" y="305" type="curve" smooth="yes"/>
      <point x="172" y="305"/>
      <point x="133" y="338"/>
      <point x="110" y="369" type="curve"/>
      <point x="87" y="275" type="line"/>
      <point x="117" y="248"/>
      <point x="168" y="208"/>
      <point x="237" y="208" type="curve" smooth="yes"/>
      <point x="351" y="208"/>
      <point x="411" y="258"/>
      <point x="411" y="354" type="curve" smooth="yes"/>
      <point x="411" y="434"/>
      <point x="354" y="500"/>
      <point x="251" y="500" type="curve" smooth="yes"/>
      <point x="118" y="500"/>
      <point x="32" y="413"/>
      <point x="32" y="273" type="curve" smooth="yes"/>
      <point x="32" y="114"/>
      <point x="151" y="-12"/>
    </contour>
  </outline>
</glyph>
<glyph name="aatelu" format="2">
  <advance width="894"/>
  <unicode hex="0C06"/>
  <outline>
    <contour>
      <point x="473" y="-12" type="curve" smooth="yes"/>
      <point x="747" y="-12"/>
      <point x="846" y="56"/>
      <point x="846" y="161" type="curve" smooth="yes"/>
      <point x="846" y="222"/>
      <point x="804" y="259"/>
      <point x="724" y="284" type="curve"/>
      <point x="649" y="302"/>
      <point x="615" y="323"/>
      <point x="615" y="357" type="curve" smooth="yes"/>
      <point x="615" y="385"/>
      <point x="638" y="401"/>
      <point x="672" y="401" type="curve" smooth="yes"/>
      <point x="723" y="401"/>
      <point x="738" y="374"/>
      <point x="738" y="347" type="curve" smooth="yes"/>
      <point x="738" y="307"/>
      <point x="711" y="292"/>
      <point x="671" y="274" type="curve"/>
      <point x="393" y="274" type="line"/>
      <point x="393" y="172" type="line"/>
      <point x="582" y="172" type="line" smooth="yes"/>
      <point x="683" y="172"/>
      <point x="729" y="182"/>
      <point x="780" y="214" type="curve" smooth="yes"/>
      <point x="829" y="246"/>
      <point x="862" y="293"/>
      <point x="862" y="354" type="curve" smooth="yes"/>
      <point x="862" y="431"/>
      <point x="804" y="500"/>
      <point x="672" y="500" type="curve" smooth="yes"/>
      <point x="551" y="500"/>
      <point x="495" y="445"/>
      <point x="495" y="375" type="curve" smooth="yes"/>
      <point x="495" y="306"/>
      <point x="550" y="260"/>
      <point x="637" y="243" type="curve"/>
      <point x="676" y="231"/>
      <point x="714" y="211"/>
      <point x="714" y="175" type="curve" smooth="yes"/>
      <point x="714" y="124"/>
      <point x="599" y="109"/>
      <point x="474" y="109" type="curve" smooth="yes"/>
      <point x="232" y="109"/>
      <point x="162" y="182"/>
      <point x="162" y="261" type="curve" smooth="yes"/>
      <point x="162" y="301" type="line" smooth="yes"/>
      <point x="162" y="356"/>
      <point x="196" y="401"/>
      <point x="243" y="401" type="curve" smooth="yes"/>
      <point x="273" y="401"/>
      <point x="290" y="378"/>
      <point x="290" y="355" type="curve" smooth="yes"/>
      <point x="290" y="319"/>
      <point x="261" y="305"/>
      <point x="221" y="305" type="curve" smooth="yes"/>
      <point x="172" y="305"/>
      <point x="133" y="338"/>
      <point x="110" y="369" type="curve"/>
      <point x="87" y="275" type="line"/>
      <point x="117" y="248"/>
      <point x="168" y="208"/>
      <point x="237" y="208" type="curve" smooth="yes"/>
      <point x="351" y="208"/>
      <point x="411" y="258"/>
      <point x="411" y="354" type="curve" smooth="yes"/>
      <point x="411" y="434"/>
      <point x="354" y="500"/>
      <point x="251" y="500" type="curve" smooth="yes"/>
      <point x="118" y="500"/>
      <point x="32" y="413"/>
      <point x="32" y="273" type="curve" smooth="yes"/>
      <point x="32" y="114"/>
      <point x="151" y="-12"/>
    </contour>
  </outline>
</glyph>
<glyph name="iitelu" format="2">
  <advance width="1047"/>
  <unicode hex="0C08"/>
  <outline>
    <contour>
      <point x="857" y="5" type="curve" smooth="yes"/>
      <point x="958" y="5"/>
      <point x="1018" y="68"/>
      <point x="1018" y="154" type="curve" smooth="yes"/>
      <point x="1018" y="212"/>
      <point x="996" y="248"/>
      <point x="962" y="272" type="curve" smooth="yes"/>
      <point x="915" y="309"/>
      <point x="862" y="317"/>
      <point x="741" y="317" type="curve" smooth="yes"/>
      <point x="29" y="317" type="line"/>
      <point x="29" y="213" type="line"/>
      <point x="837" y="213" type="line" smooth="yes"/>
      <point x="883" y="213"/>
      <point x="916" y="195"/>
      <point x="916" y="156" type="curve" smooth="yes"/>
      <point x="916" y="125"/>
      <point x="897" y="102"/>
      <point x="859" y="102" type="curve" smooth="yes"/>
      <point x="826" y="102"/>
      <point x="803" y="117"/>
      <point x="803" y="147" type="curve" smooth="yes"/>
      <point x="803" y="192"/>
      <point x="854" y="215"/>
      <point x="911" y="240" type="curve"/>
      <point x="779" y="257" type="line"/>
      <point x="744" y="233"/>
      <point x="703" y="194"/>
      <point x="703" y="130" type="curve" smooth="yes"/>
      <point x="703" y="64"/>
      <point x="750" y="5"/>
    </contour>
    <contour>
      <point x="868" y="491" type="curve" smooth="yes"/>
      <point x="781" y="491"/>
      <point x="725" y="445"/>
      <point x="688" y="389" type="curve"/>
      <point x="788" y="351" type="line"/>
      <point x="805" y="378"/>
      <point x="830" y="400"/>
      <point x="861" y="400" type="curve" smooth="yes"/>
      <point x="881" y="400"/>
      <point x="899" y="390"/>
      <point x="899" y="364" type="curve" smooth="yes"/>
      <point x="899" y="336"/>
      <point x="870" y="308"/>
      <point x="812" y="287" type="curve"/>
      <point x="905" y="247" type="line"/>
      <point x="954" y="268"/>
      <point x="1010" y="310"/>
      <point x="1010" y="375" type="curve" smooth="yes"/>
      <point x="1010" y="436"/>
      <point x="969" y="491"/>
    </contour>
    <contour>
      <point x="76" y="236" type="curve" smooth="yes"/>
      <point x="76" y="91"/>
      <point x="170" y="-12"/>
      <point x="356" y="-12" type="curve" smooth="yes"/>
      <point x="542" y="-12"/>
      <point x="635" y="90"/>
      <point x="635" y="237" type="curve" smooth="yes"/>
      <point x="635" y="392"/>
      <point x="540" y="500"/>
      <point x="356" y="500" type="curve" smooth="yes"/>
      <point x="174" y="500"/>
      <point x="76" y="383"/>
    </contour>
    <contour>
      <point x="212" y="249" type="curve" smooth="yes"/>
      <point x="212" y="330"/>
      <point x="260" y="387"/>
      <point x="356" y="387" type="curve" smooth="yes"/>
      <point x="450" y="387"/>
      <point x="500" y="330"/>
      <point x="500" y="244" type="curve" smooth="yes"/>
      <point x="500" y="159"/>
      <point x="449" y="109"/>
      <point x="356" y="109" type="curve" smooth="yes"/>
      <point x="263" y="109"/>
      <point x="212" y="160"/>
    </contour>
    <component base="hattelu" xOffset="201"/>
  </outline>
</glyph>
<glyph name="utelu" format="2">
  <advance width="880"/>
  <unicode hex="0C09"/>
  <outline>
    <contour>
      <point x="596" y="-12" type="curve" smooth="yes"/>
      <point x="741" y="-12"/>
      <point x="786" y="66"/>
      <point x="786" y="145" type="curve" smooth="yes"/>
      <point x="786" y="228"/>
      <point x="722" y="260"/>
      <point x="634" y="260" type="curve" smooth="yes"/>
      <point x="543" y="260"/>
      <point x="487" y="231"/>
      <point x="487" y="150" type="curve" smooth="yes"/>
      <point x="487" y="125"/>
      <point x="498" y="76"/>
      <point x="521" y="45" type="curve"/>
      <point x="618" y="73" type="line"/>
      <point x="596" y="89"/>
      <point x="584" y="111"/>
      <point x="584" y="137" type="curve" smooth="yes"/>
      <point x="584" y="171"/>
      <point x="605" y="186"/>
      <point x="630" y="186" type="curve" smooth="yes"/>
      <point x="657" y="186"/>
      <point x="674" y="169"/>
      <point x="674" y="147" type="curve" smooth="yes"/>
      <point x="674" y="114"/>
      <point x="650" y="100"/>
      <point x="613" y="100" type="curve" smooth="yes"/>
      <point x="585" y="100"/>
      <point x="560" y="102"/>
      <point x="540" y="106" type="curve"/>
      <point x="474" y="115"/>
      <point x="454" y="148"/>
      <point x="447" y="192" type="curve"/>
      <point x="324" y="192" type="line"/>
      <point x="314" y="139"/>
      <point x="289" y="109"/>
      <point x="243" y="109" type="curve" smooth="yes"/>
      <point x="197" y="109"/>
      <point x="171" y="136"/>
      <point x="171" y="209" type="curve" smooth="yes"/>
      <point x="171" y="242"/>
      <point x="178" y="270"/>
      <point x="189" y="294" type="curve" smooth="yes"/>
      <point x="217" y="354"/>
      <point x="294" y="387"/>
      <point x="413" y="387" type="curve" smooth="yes"/>
      <point x="501" y="387"/>
      <point x="557" y="373"/>
      <point x="666" y="326" type="curve"/>
      <point x="727" y="438" type="line"/>
      <point x="623" y="479"/>
      <point x="541" y="500"/>
      <point x="420" y="500" type="curve" smooth="yes"/>
      <point x="185" y="500"/>
      <point x="33" y="395"/>
      <point x="33" y="203" type="curve" smooth="yes"/>
      <point x="33" y="66"/>
      <point x="106" y="-12"/>
      <point x="213" y="-12" type="curve" smooth="yes"/>
      <point x="285" y="-12"/>
      <point x="338" y="2"/>
      <point x="388" y="73" type="curve"/>
      <point x="381" y="74" type="line"/>
      <point x="424" y="22"/>
      <point x="481" y="-12"/>
    </contour>
    <contour>
      <point x="73" y="222" type="line"/>
      <point x="850" y="222" type="line"/>
      <point x="850" y="325" type="line"/>
      <point x="119" y="325" type="line"/>
    </contour>
    <contour>
      <point x="473" y="629" type="line"/>
      <point x="341" y="629" type="line"/>
      <point x="349" y="482" type="line"/>
      <point x="466" y="482" type="line"/>
    </contour>
  </outline>
</glyph>
<glyph name="uutelu" format="2">
  <advance width="1195"/>
  <unicode hex="0C0A"/>
  <outline>
    <contour>
      <point x="596" y="-12" type="curve" smooth="yes"/>
      <point x="741" y="-12"/>
      <point x="786" y="66"/>
      <point x="786" y="145" type="curve" smooth="yes"/>
      <point x="786" y="228"/>
      <point x="722" y="260"/>
      <point x="634" y="260" type="curve" smooth="yes"/>
      <point x="543" y="260"/>
      <point x="487" y="231"/>
      <point x="487" y="150" type="curve" smooth="yes"/>
      <point x="487" y="125"/>
      <point x="498" y="76"/>
      <point x="521" y="45" type="curve"/>
      <point x="618" y="73" type="line"/>
      <point x="596" y="89"/>
      <point x="584" y="111"/>
      <point x="584" y="137" type="curve" smooth="yes"/>
      <point x="584" y="171"/>
      <point x="605" y="186"/>
      <point x="630" y="186" type="curve" smooth="yes"/>
      <point x="657" y="186"/>
      <point x="674" y="169"/>
      <point x="674" y="147" type="curve" smooth="yes"/>
      <point x="674" y="114"/>
      <point x="650" y="100"/>
      <point x="613" y="100" type="curve" smooth="yes"/>
      <point x="585" y="100"/>
      <point x="560" y="102"/>
      <point x="540" y="106" type="curve"/>
      <point x="474" y="115"/>
      <point x="454" y="148"/>
      <point x="447" y="192" type="curve"/>
      <point x="324" y="192" type="line"/>
      <point x="314" y="139"/>
      <point x="289" y="109"/>
      <point x="243" y="109" type="curve" smooth="yes"/>
      <point x="197" y="109"/>
      <point x="171" y="136"/>
      <point x="171" y="209" type="curve" smooth="yes"/>
      <point x="171" y="242"/>
      <point x="178" y="270"/>
      <point x="189" y="294" type="curve" smooth="yes"/>
      <point x="217" y="354"/>
      <point x="294" y="387"/>
      <point x="413" y="387" type="curve" smooth="yes"/>
      <point x="501" y="387"/>
      <point x="557" y="373"/>
      <point x="666" y="326" type="curve"/>
      <point x="727" y="438" type="line"/>
      <point x="623" y="479"/>
      <point x="541" y="500"/>
      <point x="420" y="500" type="curve" smooth="yes"/>
      <point x="185" y="500"/>
      <point x="33" y="395"/>
      <point x="33" y="203" type="curve" smooth="yes"/>
      <point x="33" y="66"/>
      <point x="106" y="-12"/>
      <point x="213" y="-12" type="curve" smooth="yes"/>
      <point x="285" y="-12"/>
      <point x="338" y="2"/>
      <point x="388" y="73" type="curve"/>
      <point x="381" y="74" type="line"/>
      <point x="424" y="22"/>
      <point x="481" y="-12"/>
    </contour>
    <contour>
      <point x="1005" y="13" type="curve" smooth="yes"/>
      <point x="1106" y="13"/>
      <point x="1166" y="76"/>
      <point x="1166" y="163" type="curve" smooth="yes"/>
      <point x="1166" y="220"/>
      <point x="1143" y="256"/>
      <point x="1110" y="281" type="curve" smooth="yes"/>
      <point x="1062" y="317"/>
      <point x="1009" y="325"/>
      <point x="888" y="325" type="curve" smooth="yes"/>
      <point x="177" y="325" type="line"/>
      <point x="162" y="222" type="line"/>
      <point x="985" y="222" type="line" smooth="yes"/>
      <point x="1031" y="222"/>
      <point x="1064" y="203"/>
      <point x="1064" y="164" type="curve" smooth="yes"/>
      <point x="1064" y="133"/>
      <point x="1045" y="110"/>
      <point x="1006" y="110" type="curve" smooth="yes"/>
      <point x="974" y="110"/>
      <point x="951" y="125"/>
      <point x="951" y="156" type="curve" smooth="yes"/>
      <point x="951" y="200"/>
      <point x="1002" y="224"/>
      <point x="1059" y="248" type="curve"/>
      <point x="926" y="266" type="line"/>
      <point x="891" y="242"/>
      <point x="851" y="203"/>
      <point x="851" y="139" type="curve" smooth="yes"/>
      <point x="851" y="73"/>
      <point x="897" y="13"/>
    </contour>
    <contour>
      <point x="1016" y="500" type="curve" smooth="yes"/>
      <point x="929" y="500"/>
      <point x="873" y="453"/>
      <point x="836" y="397" type="curve"/>
      <point x="935" y="359" type="line"/>
      <point x="952" y="386"/>
      <point x="978" y="409"/>
      <point x="1008" y="409" type="curve" smooth="yes"/>
      <point x="1029" y="409"/>
      <point x="1047" y="398"/>
      <point x="1047" y="373" type="curve" smooth="yes"/>
      <point x="1047" y="344"/>
      <point x="1018" y="316"/>
      <point x="960" y="295" type="curve"/>
      <point x="1050" y="255" type="line"/>
      <point x="1099" y="276"/>
      <point x="1155" y="318"/>
      <point x="1155" y="383" type="curve" smooth="yes"/>
      <point x="1155" y="444"/>
      <point x="1116" y="500"/>
    </contour>
    <contour>
      <point x="375" y="629" type="line"/>
      <point x="243" y="629" type="line"/>
      <point x="250" y="463" type="line"/>
      <point x="367" y="482" type="line"/>
    </contour>
    <contour>
      <point x="576" y="629" type="line"/>
      <point x="444" y="629" type="line"/>
      <point x="451" y="482" type="line"/>
      <point x="569" y="482" type="line"/>
    </contour>
  </outline>
</glyph>
<glyph name="lvocalictelu" format="2">
  <advance width="962"/>
  <unicode hex="0C0C"/>
  <outline>
    <contour>
      <point x="596" y="-103" type="curve" smooth="yes"/>
      <point x="787" y="-103"/>
      <point x="929" y="27"/>
      <point x="929" y="213" type="curve" smooth="yes"/>
      <point x="929" y="335"/>
      <point x="876" y="433"/>
      <point x="774" y="500" type="curve"/>
      <point x="687" y="396" type="line"/>
      <point x="746" y="358"/>
      <point x="790" y="282"/>
      <point x="790" y="213" type="curve" smooth="yes"/>
      <point x="790" y="91"/>
      <point x="698" y="18"/>
      <point x="603" y="18" type="curve" smooth="yes"/>
      <point x="550" y="18"/>
      <point x="524" y="41"/>
      <point x="524" y="84" type="curve" smooth="yes"/>
      <point x="524" y="108"/>
      <point x="535" y="129"/>
      <point x="570" y="168" type="curve" smooth="yes"/>
      <point x="644" y="250"/>
      <point x="667" y="288"/>
      <point x="667" y="355" type="curve" smooth="yes"/>
      <point x="667" y="415"/>
      <point x="629" y="500"/>
      <point x="503" y="500" type="curve" smooth="yes"/>
      <point x="429" y="500"/>
      <point x="375" y="471"/>
      <point x="331" y="399" type="curve"/>
      <point x="350" y="399" type="line"/>
      <point x="306" y="467"/>
      <point x="267" y="500"/>
      <point x="188" y="500" type="curve" smooth="yes"/>
      <point x="85" y="500"/>
      <point x="27" y="433"/>
      <point x="27" y="357" type="curve" smooth="yes"/>
      <point x="27" y="310"/>
      <point x="38" y="274"/>
      <point x="52" y="241" type="curve"/>
      <point x="181" y="277" type="line"/>
      <point x="170" y="296"/>
      <point x="166" y="315"/>
      <point x="166" y="329" type="curve" smooth="yes"/>
      <point x="166" y="356"/>
      <point x="178" y="379"/>
      <point x="209" y="379" type="curve" smooth="yes"/>
      <point x="247" y="379"/>
      <point x="273" y="348"/>
      <point x="276" y="285" type="curve"/>
      <point x="404" y="285" type="line"/>
      <point x="411" y="342"/>
      <point x="440" y="379"/>
      <point x="489" y="379" type="curve" smooth="yes"/>
      <point x="512" y="379"/>
      <point x="530" y="366"/>
      <point x="530" y="341" type="curve" smooth="yes"/>
      <point x="530" y="314"/>
      <point x="507" y="285"/>
      <point x="484" y="261" type="curve" smooth="yes"/>
      <point x="415" y="188"/>
      <point x="386" y="135"/>
      <point x="386" y="70" type="curve" smooth="yes"/>
      <point x="386" y="-32"/>
      <point x="456" y="-103"/>
    </contour>
  </outline>
</glyph>
<glyph name="etelu" format="2">
  <advance width="775"/>
  <unicode hex="0C0E"/>
  <outline>
    <contour>
      <point x="534" y="-12" type="curve" smooth="yes"/>
      <point x="668" y="-12"/>
      <point x="742" y="71"/>
      <point x="742" y="205" type="curve" smooth="yes"/>
      <point x="742" y="462"/>
      <point x="521" y="688"/>
      <point x="298" y="781" type="curve"/>
      <point x="233" y="658" type="line"/>
      <point x="417" y="580"/>
      <point x="603" y="406"/>
      <point x="603" y="196" type="curve" smooth="yes"/>
      <point x="603" y="136"/>
      <point x="575" y="109"/>
      <point x="535" y="109" type="curve" smooth="yes"/>
      <point x="492" y="109"/>
      <point x="471" y="121"/>
      <point x="407" y="192" type="curve" smooth="yes"/>
      <point x="333" y="274"/>
      <point x="287" y="305"/>
      <point x="203" y="305" type="curve" smooth="yes"/>
      <point x="102" y="305"/>
      <point x="27" y="242"/>
      <point x="27" y="145" type="curve" smooth="yes"/>
      <point x="27" y="65"/>
      <point x="78" y="-12"/>
      <point x="196" y="-12" type="curve" smooth="yes"/>
      <point x="303" y="-12"/>
      <point x="336" y="33"/>
      <point x="377" y="90" type="curve"/>
      <point x="294" y="178" type="line"/>
      <point x="280" y="116"/>
      <point x="244" y="92"/>
      <point x="212" y="92" type="curve" smooth="yes"/>
      <point x="183" y="92"/>
      <point x="157" y="106"/>
      <point x="157" y="147" type="curve" smooth="yes"/>
      <point x="157" y="181"/>
      <point x="182" y="198"/>
      <point x="204" y="198" type="curve" smooth="yes"/>
      <point x="232" y="198"/>
      <point x="248" y="183"/>
      <point x="285" y="141" type="curve" smooth="yes"/>
      <point x="388" y="25"/>
      <point x="438" y="-12"/>
    </contour>
  </outline>
</glyph>
<glyph name="eetelu" format="2">
  <advance width="775"/>
  <unicode hex="0C0F"/>
  <outline>
    <contour>
      <point x="534" y="-12" type="curve" smooth="yes"/>
      <point x="668" y="-12"/>
      <point x="742" y="72"/>
      <point x="742" y="200" type="curve" smooth="yes"/>
      <point x="742" y="437"/>
      <point x="534" y="627"/>
      <point x="326" y="719" type="curve"/>
      <point x="263" y="595" type="line"/>
      <point x="438" y="514"/>
      <point x="603" y="363"/>
      <point x="603" y="196" type="curve" smooth="yes"/>
      <point x="603" y="136"/>
      <point x="575" y="109"/>
      <point x="535" y="109" type="curve" smooth="yes"/>
      <point x="492" y="109"/>
      <point x="471" y="121"/>
      <point x="407" y="192" type="curve" smooth="yes"/>
      <point x="333" y="274"/>
      <point x="287" y="305"/>
      <point x="203" y="305" type="curve" smooth="yes"/>
      <point x="102" y="305"/>
      <point x="27" y="242"/>
      <point x="27" y="145" type="curve" smooth="yes"/>
      <point x="27" y="65"/>
      <point x="78" y="-12"/>
      <point x="196" y="-12" type="curve" smooth="yes"/>
      <point x="303" y="-12"/>
      <point x="336" y="33"/>
      <point x="377" y="90" type="curve"/>
      <point x="294" y="178" type="line"/>
      <point x="280" y="116"/>
      <point x="244" y="92"/>
      <point x="212" y="92" type="curve" smooth="yes"/>
      <point x="183" y="92"/>
      <point x="157" y="106"/>
      <point x="157" y="147" type="curve" smooth="yes"/>
      <point x="157" y="181"/>
      <point x="182" y="198"/>
      <point x="204" y="198" type="curve" smooth="yes"/>
      <point x="232" y="198"/>
      <point x="248" y="183"/>
      <point x="285" y="141" type="curve" smooth="yes"/>
      <point x="388" y="25"/>
      <point x="438" y="-12"/>
    </contour>
    <contour>
      <point x="82" y="683" type="curve" smooth="yes"/>
      <point x="82" y="616"/>
      <point x="104" y="555"/>
      <point x="146" y="482" type="curve"/>
      <point x="278" y="536" type="line"/>
      <point x="246" y="579"/>
      <point x="215" y="627"/>
      <point x="215" y="676" type="curve" smooth="yes"/>
      <point x="215" y="714"/>
      <point x="236" y="731"/>
      <point x="266" y="731" type="curve" smooth="yes"/>
      <point x="276" y="731"/>
      <point x="289" y="729"/>
      <point x="300" y="725" type="curve"/>
      <point x="343" y="827" type="line"/>
      <point x="317" y="836"/>
      <point x="292" y="843"/>
      <point x="247" y="843" type="curve" smooth="yes"/>
      <point x="145" y="843"/>
      <point x="82" y="773"/>
    </contour>
  </outline>
</glyph>
<glyph name="aitelu" format="2">
  <advance width="806"/>
  <unicode hex="0C10"/>
  <outline>
    <contour>
      <point x="560" y="-12" type="curve" smooth="yes"/>
      <point x="692" y="-12"/>
      <point x="772" y="72"/>
      <point x="772" y="231" type="curve" smooth="yes"/>
      <point x="772" y="348"/>
      <point x="716" y="500"/>
      <point x="544" y="500" type="curve" smooth="yes"/>
      <point x="458" y="500"/>
      <point x="409" y="467"/>
      <point x="366" y="401" type="curve"/>
      <point x="385" y="399" type="line"/>
      <point x="334" y="482"/>
      <point x="282" y="505"/>
      <point x="199" y="505" type="curve" smooth="yes"/>
      <point x="92" y="505"/>
      <point x="31" y="450"/>
      <point x="31" y="370" type="curve" smooth="yes"/>
      <point x="31" y="342"/>
      <point x="41" y="308"/>
      <point x="51" y="286" type="curve"/>
      <point x="175" y="319" type="line"/>
      <point x="170" y="330"/>
      <point x="169" y="345"/>
      <point x="169" y="354" type="curve" smooth="yes"/>
      <point x="169" y="386"/>
      <point x="190" y="400"/>
      <point x="222" y="400" type="curve" smooth="yes"/>
      <point x="270" y="400"/>
      <point x="300" y="359"/>
      <point x="313" y="308" type="curve"/>
      <point x="441" y="308" type="line"/>
      <point x="454" y="358"/>
      <point x="482" y="378"/>
      <point x="524" y="378" type="curve" smooth="yes"/>
      <point x="597" y="378"/>
      <point x="633" y="311"/>
      <point x="633" y="231" type="curve" smooth="yes"/>
      <point x="633" y="147"/>
      <point x="609" y="109"/>
      <point x="555" y="109" type="curve" smooth="yes"/>
      <point x="513" y="109"/>
      <point x="492" y="121"/>
      <point x="428" y="192" type="curve" smooth="yes"/>
      <point x="354" y="274"/>
      <point x="307" y="305"/>
      <point x="223" y="305" type="curve" smooth="yes"/>
      <point x="123" y="305"/>
      <point x="48" y="242"/>
      <point x="48" y="145" type="curve" smooth="yes"/>
      <point x="48" y="65"/>
      <point x="98" y="-12"/>
      <point x="216" y="-12" type="curve" smooth="yes"/>
      <point x="323" y="-12"/>
      <point x="356" y="33"/>
      <point x="398" y="90" type="curve"/>
      <point x="314" y="178" type="line"/>
      <point x="301" y="116"/>
      <point x="264" y="92"/>
      <point x="232" y="92" type="curve" smooth="yes"/>
      <point x="203" y="92"/>
      <point x="178" y="106"/>
      <point x="178" y="147" type="curve" smooth="yes"/>
      <point x="178" y="181"/>
      <point x="202" y="198"/>
      <point x="225" y="198" type="curve" smooth="yes"/>
      <point x="252" y="198"/>
      <point x="269" y="183"/>
      <point x="306" y="141" type="curve" smooth="yes"/>
      <point x="408" y="25"/>
      <point x="458" y="-12"/>
    </contour>
  </outline>
</glyph>
<glyph name="otelu" format="2">
  <advance width="796"/>
  <unicode hex="0C12"/>
  <outline>
    <contour>
      <point x="574" y="-12" type="curve" smooth="yes"/>
      <point x="705" y="-12"/>
      <point x="767" y="66"/>
      <point x="767" y="167" type="curve" smooth="yes"/>
      <point x="767" y="263"/>
      <point x="698" y="332"/>
      <point x="637" y="367" type="curve"/>
      <point x="559" y="261" type="line"/>
      <point x="593" y="240"/>
      <point x="627" y="210"/>
      <point x="627" y="167" type="curve" smooth="yes"/>
      <point x="627" y="136"/>
      <point x="609" y="109"/>
      <point x="565" y="109" type="curve" smooth="yes"/>
      <point x="522" y="109"/>
      <point x="483" y="123"/>
      <point x="471" y="202" type="curve"/>
      <point x="343" y="202" type="line"/>
      <point x="336" y="159"/>
      <point x="316" y="109"/>
      <point x="238" y="109" type="curve" smooth="yes"/>
      <point x="192" y="109"/>
      <point x="175" y="123"/>
      <point x="175" y="145" type="curve" smooth="yes"/>
      <point x="175" y="169"/>
      <point x="196" y="183"/>
      <point x="248" y="204" type="curve" smooth="yes"/>
      <point x="382" y="257"/>
      <point x="411" y="298"/>
      <point x="411" y="368" type="curve" smooth="yes"/>
      <point x="411" y="438"/>
      <point x="365" y="500"/>
      <point x="227" y="500" type="curve" smooth="yes"/>
      <point x="94" y="500"/>
      <point x="31" y="442"/>
      <point x="31" y="375" type="curve" smooth="yes"/>
      <point x="31" y="347"/>
      <point x="40" y="311"/>
      <point x="54" y="287" type="curve"/>
      <point x="178" y="322" type="line"/>
      <point x="175" y="328"/>
      <point x="169" y="341"/>
      <point x="169" y="359" type="curve" smooth="yes"/>
      <point x="169" y="383"/>
      <point x="183" y="401"/>
      <point x="224" y="401" type="curve" smooth="yes"/>
      <point x="260" y="401"/>
      <point x="273" y="383"/>
      <point x="273" y="361" type="curve" smooth="yes"/>
      <point x="273" y="331"/>
      <point x="244" y="316"/>
      <point x="196" y="296" type="curve" smooth="yes"/>
      <point x="79" y="249"/>
      <point x="36" y="209"/>
      <point x="36" y="130" type="curve" smooth="yes"/>
      <point x="36" y="54"/>
      <point x="91" y="-12"/>
      <point x="215" y="-12" type="curve" smooth="yes"/>
      <point x="311" y="-12"/>
      <point x="362" y="10"/>
      <point x="417" y="87" type="curve"/>
      <point x="398" y="87" type="line"/>
      <point x="439" y="17"/>
      <point x="486" y="-12"/>
    </contour>
  </outline>
</glyph>
<glyph name="autelu" format="2">
  <advance width="796"/>
  <unicode hex="0C14"/>
  <outline>
    <contour>
      <point x="627" y="390" type="curve" smooth="yes"/>
      <point x="728" y="390"/>
      <point x="788" y="453"/>
      <point x="788" y="541" type="curve" smooth="yes"/>
      <point x="788" y="599"/>
      <point x="766" y="636"/>
      <point x="733" y="662" type="curve" smooth="yes"/>
      <point x="685" y="698"/>
      <point x="632" y="705"/>
      <point x="511" y="705" type="curve" smooth="yes"/>
      <point x="29" y="705" type="line"/>
      <point x="29" y="592" type="line"/>
      <point x="185" y="592" type="line" smooth="yes"/>
      <point x="226" y="592"/>
      <point x="244" y="590"/>
      <point x="254" y="580" type="curve" smooth="yes"/>
      <point x="263" y="572"/>
      <point x="268" y="560"/>
      <point x="268" y="544" type="curve" smooth="yes"/>
      <point x="268" y="531"/>
      <point x="264" y="522"/>
      <point x="255" y="514" type="curve"/>
      <point x="244" y="504"/>
      <point x="228" y="500"/>
      <point x="190" y="500" type="curve" smooth="yes"/>
      <point x="102" y="500" type="line"/>
      <point x="102" y="401" type="line"/>
      <point x="176" y="401" type="line" smooth="yes"/>
      <point x="262" y="401"/>
      <point x="307" y="409"/>
      <point x="340" y="434" type="curve" smooth="yes"/>
      <point x="373" y="458"/>
      <point x="387" y="496"/>
      <point x="387" y="540" type="curve" smooth="yes"/>
      <point x="387" y="560"/>
      <point x="385" y="577"/>
      <point x="380" y="592" type="curve"/>
      <point x="596" y="592" type="line" smooth="yes"/>
      <point x="651" y="592"/>
      <point x="686" y="578"/>
      <point x="686" y="538" type="curve" smooth="yes"/>
      <point x="686" y="508"/>
      <point x="667" y="486"/>
      <point x="629" y="486" type="curve" smooth="yes"/>
      <point x="596" y="486"/>
      <point x="573" y="510"/>
      <point x="573" y="544" type="curve" smooth="yes"/>
      <point x="573" y="584"/>
      <point x="592" y="608"/>
      <point x="621" y="636" type="curve"/>
      <point x="513" y="643" type="line"/>
      <point x="494" y="615"/>
      <point x="473" y="583"/>
      <point x="473" y="529" type="curve" smooth="yes"/>
      <point x="473" y="476"/>
      <point x="505" y="390"/>
    </contour>
    <component base="otelu"/>
  </outline>
</glyph>
<glyph name="chatelu" format="2">
  <advance width="838"/>
  <unicode hex="0C1B"/>
  <outline>
    <contour>
      <point x="598" y="-12" type="curve" smooth="yes"/>
      <point x="732" y="-12"/>
      <point x="805" y="72"/>
      <point x="805" y="200" type="curve" smooth="yes"/>
      <point x="805" y="344"/>
      <point x="698" y="470"/>
      <point x="524" y="500" type="curve"/>
      <point x="432" y="397" type="line"/>
      <point x="566" y="382"/>
      <point x="666" y="305"/>
      <point x="666" y="193" type="curve" smooth="yes"/>
      <point x="666" y="144"/>
      <point x="647" y="109"/>
      <point x="591" y="109" type="curve" smooth="yes"/>
      <point x="548" y="109"/>
      <point x="509" y="123"/>
      <point x="497" y="202" type="curve"/>
      <point x="369" y="202" type="line"/>
      <point x="364" y="149"/>
      <point x="332" y="109"/>
      <point x="276" y="109" type="curve" smooth="yes"/>
      <point x="238" y="109"/>
      <point x="213" y="130"/>
      <point x="213" y="166" type="curve" smooth="yes"/>
      <point x="213" y="202"/>
      <point x="238" y="231"/>
      <point x="302" y="243" type="curve"/>
      <point x="302" y="348" type="line"/>
      <point x="24" y="348" type="line"/>
      <point x="24" y="230" type="line"/>
      <point x="149" y="230" type="line"/>
      <point x="153" y="253" type="line"/>
      <point x="95" y="225"/>
      <point x="76" y="174"/>
      <point x="76" y="132" type="curve" smooth="yes"/>
      <point x="76" y="44"/>
      <point x="146" y="-12"/>
      <point x="253" y="-12" type="curve" smooth="yes"/>
      <point x="329" y="-12"/>
      <point x="395" y="8"/>
      <point x="442" y="88" type="curve"/>
      <point x="423" y="88" type="line"/>
      <point x="465" y="20"/>
      <point x="515" y="-12"/>
    </contour>
    <contour>
      <point x="367" y="-139" type="line"/>
      <point x="499" y="-139" type="line"/>
      <point x="491" y="7" type="line"/>
      <point x="374" y="7" type="line"/>
    </contour>
    <component base="hattelu" xOffset="305"/>
  </outline>
</glyph>
<glyph name="jatelu" format="2">
  <advance width="796"/>
  <unicode hex="0C1C"/>
  <outline>
    <contour>
      <point x="574" y="-12" type="curve" smooth="yes"/>
      <point x="707" y="-12"/>
      <point x="767" y="53"/>
      <point x="767" y="143" type="curve" smooth="yes"/>
      <point x="767" y="192"/>
      <point x="752" y="230"/>
      <point x="735" y="256" type="curve"/>
      <point x="614" y="219" type="line"/>
      <point x="620" y="207"/>
      <point x="627" y="187"/>
      <point x="627" y="164" type="curve" smooth="yes"/>
      <point x="627" y="132"/>
      <point x="606" y="109"/>
      <point x="562" y="109" type="curve" smooth="yes"/>
      <point x="518" y="109"/>
      <point x="482" y="123"/>
      <point x="471" y="202" type="curve"/>
      <point x="343" y="202" type="line"/>
      <point x="336" y="159"/>
      <point x="316" y="109"/>
      <point x="238" y="109" type="curve" smooth="yes"/>
      <point x="192" y="109"/>
      <point x="175" y="123"/>
      <point x="175" y="145" type="curve" smooth="yes"/>
      <point x="175" y="169"/>
      <point x="196" y="183"/>
      <point x="248" y="204" type="curve" smooth="yes"/>
      <point x="382" y="257"/>
      <point x="411" y="298"/>
      <point x="411" y="368" type="curve" smooth="yes"/>
      <point x="411" y="437"/>
      <point x="364" y="500"/>
      <point x="227" y="500" type="curve" smooth="yes"/>
      <point x="94" y="500"/>
      <point x="31" y="442"/>
      <point x="31" y="375" type="curve" smooth="yes"/>
      <point x="31" y="347"/>
      <point x="40" y="311"/>
      <point x="54" y="287" type="curve"/>
      <point x="178" y="322" type="line"/>
      <point x="175" y="328"/>
      <point x="169" y="341"/>
      <point x="169" y="359" type="curve" smooth="yes"/>
      <point x="169" y="383"/>
      <point x="183" y="401"/>
      <point x="224" y="401" type="curve" smooth="yes"/>
      <point x="260" y="401"/>
      <point x="273" y="383"/>
      <point x="273" y="361" type="curve" smooth="yes"/>
      <point x="273" y="331"/>
      <point x="244" y="316"/>
      <point x="196" y="296" type="curve" smooth="yes"/>
      <point x="79" y="249"/>
      <point x="36" y="209"/>
      <point x="36" y="130" type="curve" smooth="yes"/>
      <point x="36" y="54"/>
      <point x="91" y="-12"/>
      <point x="215" y="-12" type="curve" smooth="yes"/>
      <point x="311" y="-12"/>
      <point x="362" y="10"/>
      <point x="417" y="87" type="curve"/>
      <point x="398" y="87" type="line"/>
      <point x="440" y="17"/>
      <point x="486" y="-12"/>
    </contour>
    <contour>
      <point x="714" y="370" type="curve" smooth="yes"/>
      <point x="714" y="460"/>
      <point x="644" y="500"/>
      <point x="557" y="500" type="curve" smooth="yes"/>
      <point x="519" y="500"/>
      <point x="489" y="494"/>
      <point x="467" y="488" type="curve"/>
      <point x="481" y="391" type="line"/>
      <point x="495" y="394"/>
      <point x="513" y="396"/>
      <point x="530" y="396" type="curve" smooth="yes"/>
      <point x="567" y="396"/>
      <point x="584" y="389"/>
      <point x="584" y="367" type="curve" smooth="yes"/>
      <point x="584" y="348"/>
      <point x="567" y="338"/>
      <point x="523" y="338" type="curve" smooth="yes"/>
      <point x="443" y="338"/>
      <point x="385" y="380"/>
      <point x="345" y="441" type="curve"/>
      <point x="311" y="345" type="line"/>
      <point x="346" y="289"/>
      <point x="417" y="234"/>
      <point x="536" y="234" type="curve" smooth="yes"/>
      <point x="654" y="234"/>
      <point x="714" y="295"/>
    </contour>
  </outline>
</glyph>
<glyph name="nyatelu" format="2">
  <advance width="1020"/>
  <unicode hex="0C1E"/>
  <outline>
    <contour>
      <point x="347" y="-12" type="curve" smooth="yes"/>
      <point x="421" y="-12"/>
      <point x="513" y="6"/>
      <point x="585" y="57" type="curve" smooth="yes"/>
      <point x="592" y="62"/>
      <point x="603" y="63"/>
      <point x="609" y="68" type="curve" smooth="yes"/>
      <point x="672" y="116"/>
      <point x="708" y="184"/>
      <point x="708" y="286" type="curve" smooth="yes"/>
      <point x="708" y="358"/>
      <point x="683" y="500"/>
      <point x="518" y="500" type="curve" smooth="yes"/>
      <point x="441" y="500"/>
      <point x="394" y="470"/>
      <point x="352" y="399" type="curve"/>
      <point x="372" y="399" type="line"/>
      <point x="320" y="479"/>
      <point x="272" y="500"/>
      <point x="191" y="500" type="curve" smooth="yes"/>
      <point x="91" y="500"/>
      <point x="27" y="447"/>
      <point x="27" y="370" type="curve" smooth="yes"/>
      <point x="27" y="335"/>
      <point x="42" y="293"/>
      <point x="52" y="271" type="curve"/>
      <point x="176" y="306" type="line"/>
      <point x="169" y="320"/>
      <point x="166" y="333"/>
      <point x="166" y="348" type="curve" smooth="yes"/>
      <point x="166" y="374"/>
      <point x="186" y="387"/>
      <point x="214" y="387" type="curve" smooth="yes"/>
      <point x="259" y="387"/>
      <point x="286" y="353"/>
      <point x="299" y="308" type="curve"/>
      <point x="427" y="308" type="line"/>
      <point x="438" y="359"/>
      <point x="467" y="380"/>
      <point x="500" y="380" type="curve" smooth="yes"/>
      <point x="556" y="380"/>
      <point x="571" y="331"/>
      <point x="571" y="277" type="curve" smooth="yes"/>
      <point x="571" y="231"/>
      <point x="562" y="199"/>
      <point x="540" y="170" type="curve" smooth="yes"/>
      <point x="501" y="116"/>
      <point x="430" y="92"/>
      <point x="347" y="92" type="curve" smooth="yes"/>
      <point x="264" y="92"/>
      <point x="239" y="106"/>
      <point x="239" y="134" type="curve" smooth="yes"/>
      <point x="239" y="159"/>
      <point x="264" y="173"/>
      <point x="324" y="173" type="curve" smooth="yes"/>
      <point x="464" y="173"/>
      <point x="533" y="103"/>
      <point x="533" y="1" type="curve" smooth="yes"/>
      <point x="533" y="-25"/>
      <point x="528" y="-49"/>
      <point x="521" y="-70" type="curve"/>
      <point x="645" y="-97" type="line"/>
      <point x="657" y="-65"/>
      <point x="663" y="-31"/>
      <point x="663" y="2" type="curve" smooth="yes"/>
      <point x="663" y="52"/>
      <point x="647" y="96"/>
      <point x="619" y="137" type="curve" smooth="yes"/>
      <point x="561" y="220"/>
      <point x="463" y="276"/>
      <point x="317" y="276" type="curve" smooth="yes"/>
      <point x="177" y="276"/>
      <point x="93" y="231"/>
      <point x="93" y="135" type="curve" smooth="yes"/>
      <point x="93" y="38"/>
      <point x="164" y="-12"/>
    </contour>
    <contour>
      <point x="619" y="264" type="line"/>
      <point x="991" y="264" type="line"/>
      <point x="991" y="368" type="line"/>
      <point x="587" y="368" type="line"/>
    </contour>
    <contour>
      <point x="899" y="500" type="line"/>
      <point x="767" y="500" type="line"/>
      <point x="774" y="353" type="line"/>
      <point x="892" y="353" type="line"/>
    </contour>
  </outline>
</glyph>
<glyph name="ttatelu" format="2">
  <advance width="836"/>
  <unicode hex="0C1F"/>
  <outline>
    <contour>
      <point x="591" y="-12" type="curve" smooth="yes"/>
      <point x="729" y="-12"/>
      <point x="803" y="72"/>
      <point x="803" y="200" type="curve" smooth="yes"/>
      <point x="803" y="338"/>
      <point x="713" y="435"/>
      <point x="595" y="500" type="curve"/>
      <point x="517" y="389" type="line"/>
      <point x="593" y="341"/>
      <point x="664" y="282"/>
      <point x="664" y="191" type="curve" smooth="yes"/>
      <point x="664" y="146"/>
      <point x="648" y="109"/>
      <point x="589" y="109" type="curve" smooth="yes"/>
      <point x="546" y="109"/>
      <point x="507" y="123"/>
      <point x="496" y="202" type="curve"/>
      <point x="367" y="202" type="line"/>
      <point x="361" y="159"/>
      <point x="341" y="109"/>
      <point x="262" y="109" type="curve" smooth="yes"/>
      <point x="199" y="109"/>
      <point x="168" y="146"/>
      <point x="168" y="229" type="curve" smooth="yes"/>
      <point x="168" y="243" type="line" smooth="yes"/>
      <point x="168" y="365"/>
      <point x="219" y="401"/>
      <point x="271" y="401" type="curve" smooth="yes"/>
      <point x="301" y="401"/>
      <point x="318" y="378"/>
      <point x="318" y="355" type="curve" smooth="yes"/>
      <point x="318" y="319"/>
      <point x="289" y="305"/>
      <point x="249" y="305" type="curve" smooth="yes"/>
      <point x="200" y="305"/>
      <point x="161" y="338"/>
      <point x="138" y="369" type="curve"/>
      <point x="101" y="275" type="line"/>
      <point x="130" y="248"/>
      <point x="188" y="208"/>
      <point x="257" y="208" type="curve" smooth="yes"/>
      <point x="378" y="208"/>
      <point x="438" y="258"/>
      <point x="438" y="354" type="curve" smooth="yes"/>
      <point x="438" y="436"/>
      <point x="382" y="500"/>
      <point x="271" y="500" type="curve" smooth="yes"/>
      <point x="136" y="500"/>
      <point x="36" y="404"/>
      <point x="36" y="232" type="curve" smooth="yes"/>
      <point x="36" y="108"/>
      <point x="83" y="-12"/>
      <point x="240" y="-12" type="curve" smooth="yes"/>
      <point x="335" y="-12"/>
      <point x="386" y="10"/>
      <point x="441" y="87" type="curve"/>
      <point x="422" y="88" type="line"/>
      <point x="465" y="17"/>
      <point x="514" y="-12"/>
    </contour>
    <contour>
      <point x="328" y="629" type="line"/>
      <point x="196" y="629" type="line"/>
      <point x="204" y="482" type="line"/>
      <point x="321" y="482" type="line"/>
    </contour>
  </outline>
</glyph>
<glyph name="nnatelu" format="2">
  <advance width="883"/>
  <unicode hex="0C23"/>
  <outline>
    <contour>
      <point x="629" y="-12" type="curve" smooth="yes"/>
      <point x="778" y="-12"/>
      <point x="850" y="79"/>
      <point x="850" y="237" type="curve" smooth="yes"/>
      <point x="850" y="391"/>
      <point x="773" y="500"/>
      <point x="624" y="500" type="curve" smooth="yes"/>
      <point x="534" y="500"/>
      <point x="486" y="463"/>
      <point x="440" y="404" type="curve"/>
      <point x="461" y="405" type="line"/>
      <point x="394" y="474"/>
      <point x="341" y="500"/>
      <point x="236" y="500" type="curve" smooth="yes"/>
      <point x="117" y="500"/>
      <point x="39" y="446"/>
      <point x="39" y="363" type="curve" smooth="yes"/>
      <point x="39" y="308"/>
      <point x="68" y="260"/>
      <point x="135" y="237" type="curve"/>
      <point x="136" y="250" type="line"/>
      <point x="63" y="228"/>
      <point x="31" y="181"/>
      <point x="31" y="125" type="curve" smooth="yes"/>
      <point x="31" y="47"/>
      <point x="94" y="-12"/>
      <point x="220" y="-12" type="curve" smooth="yes"/>
      <point x="318" y="-12"/>
      <point x="380" y="22"/>
      <point x="435" y="84" type="curve"/>
      <point x="349" y="160" type="line"/>
      <point x="316" y="122"/>
      <point x="282" y="98"/>
      <point x="238" y="98" type="curve" smooth="yes"/>
      <point x="196" y="98"/>
      <point x="180" y="117"/>
      <point x="180" y="144" type="curve" smooth="yes"/>
      <point x="180" y="159"/>
      <point x="186" y="170"/>
      <point x="196" y="178" type="curve" smooth="yes"/>
      <point x="209" y="188"/>
      <point x="229" y="192"/>
      <point x="271" y="192" type="curve" smooth="yes"/>
      <point x="333" y="192" type="line"/>
      <point x="333" y="296" type="line"/>
      <point x="274" y="296" type="line" smooth="yes"/>
      <point x="233" y="296"/>
      <point x="217" y="301"/>
      <point x="205" y="308" type="curve" smooth="yes"/>
      <point x="192" y="316"/>
      <point x="188" y="327"/>
      <point x="188" y="341" type="curve" smooth="yes"/>
      <point x="188" y="376"/>
      <point x="219" y="390"/>
      <point x="266" y="390" type="curve" smooth="yes"/>
      <point x="349" y="390"/>
      <point x="376" y="337"/>
      <point x="386" y="306" type="curve"/>
      <point x="515" y="306" type="line"/>
      <point x="528" y="348"/>
      <point x="561" y="379"/>
      <point x="609" y="379" type="curve" smooth="yes"/>
      <point x="686" y="379"/>
      <point x="718" y="320"/>
      <point x="718" y="236" type="curve" smooth="yes"/>
      <point x="718" y="217" type="line" smooth="yes"/>
      <point x="718" y="146"/>
      <point x="696" y="86"/>
      <point x="630" y="86" type="curve" smooth="yes"/>
      <point x="597" y="86"/>
      <point x="575" y="104"/>
      <point x="575" y="135" type="curve" smooth="yes"/>
      <point x="575" y="170"/>
      <point x="603" y="185"/>
      <point x="633" y="185" type="curve" smooth="yes"/>
      <point x="690" y="185"/>
      <point x="723" y="132"/>
      <point x="746" y="79" type="curve"/>
      <point x="797" y="181" type="line"/>
      <point x="768" y="217"/>
      <point x="716" y="281"/>
      <point x="613" y="281" type="curve" smooth="yes"/>
      <point x="530" y="281"/>
      <point x="455" y="235"/>
      <point x="455" y="137" type="curve" smooth="yes"/>
      <point x="455" y="61"/>
      <point x="500" y="-12"/>
    </contour>
  </outline>
</glyph>
<glyph name="tatelu" format="2">
  <advance width="882"/>
  <unicode hex="0C24"/>
  <outline>
    <contour>
      <point x="426" y="-12" type="curve" smooth="yes"/>
      <point x="727" y="-12"/>
      <point x="850" y="72"/>
      <point x="850" y="242" type="curve" smooth="yes"/>
      <point x="850" y="409"/>
      <point x="703" y="487"/>
      <point x="548" y="499" type="curve"/>
      <point x="506" y="411" type="line"/>
      <point x="537" y="411"/>
      <point x="566" y="407"/>
      <point x="593" y="399" type="curve"/>
      <point x="709" y="403" type="line"/>
      <point x="685" y="408"/>
      <point x="661" y="412"/>
      <point x="623" y="412" type="curve" smooth="yes"/>
      <point x="524" y="412"/>
      <point x="459" y="362"/>
      <point x="459" y="282" type="curve" smooth="yes"/>
      <point x="459" y="185"/>
      <point x="533" y="152"/>
      <point x="610" y="152" type="curve" smooth="yes"/>
      <point x="705" y="152"/>
      <point x="739" y="194"/>
      <point x="783" y="255" type="curve"/>
      <point x="727" y="328" type="line"/>
      <point x="712" y="277"/>
      <point x="686" y="246"/>
      <point x="637" y="246" type="curve" smooth="yes"/>
      <point x="603" y="246"/>
      <point x="578" y="258"/>
      <point x="578" y="294" type="curve" smooth="yes"/>
      <point x="578" y="327"/>
      <point x="608" y="342"/>
      <point x="637" y="342" type="curve" smooth="yes"/>
      <point x="696" y="342"/>
      <point x="729" y="299"/>
      <point x="729" y="246" type="curve" smooth="yes"/>
      <point x="729" y="243" type="line"/>
      <point x="729" y="139"/>
      <point x="633" y="106"/>
      <point x="427" y="106" type="curve" smooth="yes"/>
      <point x="233" y="106"/>
      <point x="153" y="153"/>
      <point x="153" y="235" type="curve" smooth="yes"/>
      <point x="153" y="240" type="line" smooth="yes"/>
      <point x="153" y="307"/>
      <point x="194" y="341"/>
      <point x="236" y="341" type="curve" smooth="yes"/>
      <point x="271" y="341"/>
      <point x="288" y="321"/>
      <point x="288" y="295" type="curve" smooth="yes"/>
      <point x="288" y="260"/>
      <point x="259" y="245"/>
      <point x="219" y="245" type="curve" smooth="yes"/>
      <point x="170" y="245"/>
      <point x="134" y="276"/>
      <point x="108" y="306" type="curve"/>
      <point x="74" y="225" type="line"/>
      <point x="108" y="194"/>
      <point x="168" y="153"/>
      <point x="241" y="153" type="curve" smooth="yes"/>
      <point x="345" y="153"/>
      <point x="409" y="201"/>
      <point x="409" y="294" type="curve" smooth="yes"/>
      <point x="409" y="376"/>
      <point x="352" y="440"/>
      <point x="243" y="440" type="curve" smooth="yes"/>
      <point x="120" y="440"/>
      <point x="32" y="360"/>
      <point x="32" y="243" type="curve" smooth="yes"/>
      <point x="32" y="91"/>
      <point x="149" y="-12"/>
    </contour>
    <component base="hattelu" xOffset="345"/>
  </outline>
</glyph>
<glyph name="batelu" format="2">
  <advance width="812"/>
  <unicode hex="0C2C"/>
  <outline>
    <contour>
      <point x="567" y="-12" type="curve" smooth="yes"/>
      <point x="705" y="-12"/>
      <point x="779" y="72"/>
      <point x="779" y="200" type="curve" smooth="yes"/>
      <point x="779" y="338"/>
      <point x="688" y="435"/>
      <point x="571" y="500" type="curve"/>
      <point x="492" y="389" type="line"/>
      <point x="568" y="341"/>
      <point x="640" y="282"/>
      <point x="640" y="191" type="curve" smooth="yes"/>
      <point x="640" y="146"/>
      <point x="624" y="109"/>
      <point x="565" y="109" type="curve" smooth="yes"/>
      <point x="522" y="109"/>
      <point x="483" y="123"/>
      <point x="471" y="202" type="curve"/>
      <point x="343" y="202" type="line"/>
      <point x="336" y="159"/>
      <point x="316" y="109"/>
      <point x="238" y="109" type="curve" smooth="yes"/>
      <point x="192" y="109"/>
      <point x="175" y="123"/>
      <point x="175" y="145" type="curve" smooth="yes"/>
      <point x="175" y="169"/>
      <point x="196" y="183"/>
      <point x="248" y="204" type="curve" smooth="yes"/>
      <point x="382" y="257"/>
      <point x="411" y="298"/>
      <point x="411" y="368" type="curve" smooth="yes"/>
      <point x="411" y="438"/>
      <point x="365" y="500"/>
      <point x="227" y="500" type="curve" smooth="yes"/>
      <point x="94" y="500"/>
      <point x="31" y="442"/>
      <point x="31" y="375" type="curve" smooth="yes"/>
      <point x="31" y="347"/>
      <point x="40" y="311"/>
      <point x="54" y="287" type="curve"/>
      <point x="178" y="322" type="line"/>
      <point x="175" y="328"/>
      <point x="169" y="341"/>
      <point x="169" y="359" type="curve" smooth="yes"/>
      <point x="169" y="383"/>
      <point x="183" y="401"/>
      <point x="224" y="401" type="curve" smooth="yes"/>
      <point x="260" y="401"/>
      <point x="273" y="383"/>
      <point x="273" y="361" type="curve" smooth="yes"/>
      <point x="273" y="331"/>
      <point x="244" y="316"/>
      <point x="196" y="296" type="curve" smooth="yes"/>
      <point x="79" y="249"/>
      <point x="36" y="209"/>
      <point x="36" y="130" type="curve" smooth="yes"/>
      <point x="36" y="54"/>
      <point x="91" y="-12"/>
      <point x="215" y="-12" type="curve" smooth="yes"/>
      <point x="311" y="-12"/>
      <point x="362" y="10"/>
      <point x="417" y="87" type="curve"/>
      <point x="397" y="88" type="line"/>
      <point x="441" y="17"/>
      <point x="489" y="-12"/>
    </contour>
  </outline>
</glyph>
<glyph name="llatelu" format="2">
  <advance width="708"/>
  <unicode hex="0C33"/>
  <outline>
    <contour>
      <point x="357" y="-12" type="curve" smooth="yes"/>
      <point x="450" y="-12"/>
      <point x="536" y="13"/>
      <point x="536" y="94" type="curve" smooth="yes"/>
      <point x="536" y="132"/>
      <point x="505" y="166"/>
      <point x="464" y="179" type="curve"/>
      <point x="456" y="191"/>
      <point x="464" y="221"/>
      <point x="454" y="231" type="curve" smooth="yes"/>
      <point x="433" y="237"/>
      <point x="411" y="242"/>
      <point x="322" y="246" type="curve" smooth="yes"/>
      <point x="172" y="253"/>
      <point x="156" y="280"/>
      <point x="156" y="308" type="curve" smooth="yes"/>
      <point x="156" y="326"/>
      <point x="172" y="343"/>
      <point x="205" y="343" type="curve" smooth="yes"/>
      <point x="242" y="343"/>
      <point x="253" y="323"/>
      <point x="253" y="305" type="curve" smooth="yes"/>
      <point x="253" y="263"/>
      <point x="197" y="240"/>
      <point x="122" y="234" type="curve"/>
      <point x="204" y="187" type="line"/>
      <point x="305" y="208"/>
      <point x="377" y="249"/>
      <point x="377" y="328" type="curve" smooth="yes"/>
      <point x="377" y="380"/>
      <point x="340" y="445"/>
      <point x="204" y="445" type="curve" smooth="yes"/>
      <point x="79" y="445"/>
      <point x="26" y="382"/>
      <point x="26" y="309" type="curve" smooth="yes"/>
      <point x="26" y="216"/>
      <point x="111" y="160"/>
      <point x="274" y="146" type="curve"/>
      <point x="284" y="145"/>
      <point x="278" y="160"/>
      <point x="301" y="156" type="curve"/>
      <point x="387" y="156"/>
      <point x="417" y="137"/>
      <point x="417" y="116" type="curve" smooth="yes"/>
      <point x="417" y="96"/>
      <point x="392" y="86"/>
      <point x="359" y="86" type="curve" smooth="yes"/>
      <point x="328" y="86"/>
      <point x="303" y="97"/>
      <point x="303" y="115" type="curve" smooth="yes"/>
      <point x="303" y="134"/>
      <point x="319" y="151"/>
      <point x="406" y="155" type="curve"/>
      <point x="439" y="140" type="line"/>
      <point x="618" y="157"/>
      <point x="682" y="229"/>
      <point x="682" y="324" type="curve" smooth="yes"/>
      <point x="682" y="421"/>
      <point x="611" y="488"/>
      <point x="450" y="500" type="curve"/>
      <point x="429" y="397" type="line"/>
      <point x="519" y="388"/>
      <point x="543" y="359"/>
      <point x="543" y="324" type="curve" smooth="yes"/>
      <point x="543" y="277"/>
      <point x="483" y="240"/>
      <point x="319" y="240" type="curve"/>
      <point x="292" y="189" type="line"/>
      <point x="210" y="169"/>
      <point x="183" y="136"/>
      <point x="183" y="92" type="curve" smooth="yes"/>
      <point x="183" y="10"/>
      <point x="276" y="-12"/>
    </contour>
    <component base="hattelu" xOffset="296"/>
  </outline>
</glyph>
<glyph name="shatelu" format="2">
  <advance width="627"/>
  <unicode hex="0C36"/>
  <outline>
    <contour>
      <point x="419" y="-12" type="curve" smooth="yes"/>
      <point x="535" y="-12"/>
      <point x="600" y="40"/>
      <point x="600" y="128" type="curve" smooth="yes"/>
      <point x="600" y="204"/>
      <point x="563" y="269"/>
      <point x="481" y="310" type="curve"/>
      <point x="415" y="348"/>
      <point x="332" y="366"/>
      <point x="259" y="366" type="curve" smooth="yes"/>
      <point x="86" y="366"/>
      <point x="29" y="296"/>
      <point x="29" y="214" type="curve" smooth="yes"/>
      <point x="29" y="177"/>
      <point x="40" y="140"/>
      <point x="56" y="112" type="curve"/>
      <point x="180" y="148" type="line"/>
      <point x="174" y="160"/>
      <point x="167" y="177"/>
      <point x="167" y="196" type="curve" smooth="yes"/>
      <point x="167" y="233"/>
      <point x="185" y="262"/>
      <point x="263" y="262" type="curve" smooth="yes"/>
      <point x="363" y="262"/>
      <point x="468" y="213"/>
      <point x="468" y="146" type="curve" smooth="yes"/>
      <point x="468" y="118"/>
      <point x="450" y="97"/>
      <point x="417" y="97" type="curve" smooth="yes"/>
      <point x="380" y="97"/>
      <point x="369" y="121"/>
      <point x="369" y="145" type="curve" smooth="yes"/>
      <point x="369" y="187"/>
      <point x="413" y="217"/>
      <point x="484" y="261" type="curve" smooth="yes"/>
      <point x="536" y="293"/>
      <point x="567" y="335"/>
      <point x="567" y="387" type="curve" smooth="yes"/>
      <point x="567" y="449"/>
      <point x="518" y="495"/>
      <point x="414" y="500" type="curve"/>
      <point x="370" y="408" type="line"/>
      <point x="410" y="404"/>
      <point x="431" y="393"/>
      <point x="431" y="364" type="curve" smooth="yes"/>
      <point x="431" y="341"/>
      <point x="414" y="326"/>
      <point x="368" y="296" type="curve" smooth="yes"/>
      <point x="360" y="291"/>
      <point x="359" y="281"/>
      <point x="349" y="276" type="curve" smooth="yes"/>
      <point x="281" y="238"/>
      <point x="237" y="191"/>
      <point x="237" y="125" type="curve" smooth="yes"/>
      <point x="237" y="52"/>
      <point x="288" y="-12"/>
    </contour>
    <component base="hattelu" xOffset="192"/>
  </outline>
</glyph>
<glyph name="avagrahatelu" format="2">
  <advance width="644"/>
  <unicode hex="0C3D"/>
  <outline>
    <contour>
      <point x="227" y="500" type="curve" smooth="yes"/>
      <point x="94" y="500"/>
      <point x="31" y="442"/>
      <point x="31" y="375" type="curve" smooth="yes"/>
      <point x="31" y="347"/>
      <point x="40" y="311"/>
      <point x="54" y="287" type="curve"/>
      <point x="178" y="322" type="line"/>
      <point x="175" y="328"/>
      <point x="169" y="341"/>
      <point x="169" y="359" type="curve" smooth="yes"/>
      <point x="169" y="383"/>
      <point x="183" y="401"/>
      <point x="224" y="401" type="curve" smooth="yes"/>
      <point x="260" y="401"/>
      <point x="273" y="383"/>
      <point x="273" y="361" type="curve" smooth="yes"/>
      <point x="273" y="331"/>
      <point x="244" y="316"/>
      <point x="196" y="296" type="curve" smooth="yes"/>
      <point x="79" y="249"/>
      <point x="36" y="209"/>
      <point x="36" y="130" type="curve" smooth="yes"/>
      <point x="36" y="96"/>
      <point x="48" y="66"/>
      <point x="72" y="44" type="curve" smooth="yes"/>
      <point x="101" y="17"/>
      <point x="139" y="0"/>
      <point x="250" y="0" type="curve" smooth="yes"/>
      <point x="627" y="0" type="line"/>
      <point x="627" y="120" type="line"/>
      <point x="218" y="120" type="line" smooth="yes"/>
      <point x="201" y="120"/>
      <point x="191" y="121"/>
      <point x="184" y="126" type="curve" smooth="yes"/>
      <point x="178" y="130"/>
      <point x="175" y="137"/>
      <point x="175" y="145" type="curve" smooth="yes"/>
      <point x="175" y="169"/>
      <point x="196" y="183"/>
      <point x="233" y="198" type="curve" smooth="yes"/>
      <point x="382" y="257"/>
      <point x="411" y="298"/>
      <point x="411" y="368" type="curve" smooth="yes"/>
      <point x="411" y="438"/>
      <point x="365" y="500"/>
    </contour>
  </outline>
</glyph>
<glyph name="aavowelsigntelu" format="2">
  <advance width="289"/>
  <unicode hex="0C3E"/>
  <outline>
    <contour>
      <point x="113" y="184" type="curve" smooth="yes"/>
      <point x="215" y="184"/>
      <point x="274" y="248"/>
      <point x="274" y="335" type="curve" smooth="yes"/>
      <point x="274" y="394"/>
      <point x="252" y="431"/>
      <point x="219" y="456" type="curve" smooth="yes"/>
      <point x="171" y="493"/>
      <point x="118" y="500"/>
      <point x="-3" y="500" type="curve" smooth="yes"/>
      <point x="-544" y="500" type="line"/>
      <point x="-544" y="387" type="line"/>
      <point x="83" y="387" type="line" smooth="yes"/>
      <point x="137" y="387"/>
      <point x="172" y="372"/>
      <point x="172" y="332" type="curve" smooth="yes"/>
      <point x="172" y="303"/>
      <point x="153" y="281"/>
      <point x="115" y="281" type="curve" smooth="yes"/>
      <point x="82" y="281"/>
      <point x="59" y="305"/>
      <point x="59" y="338" type="curve" smooth="yes"/>
      <point x="59" y="379"/>
      <point x="78" y="402"/>
      <point x="107" y="430" type="curve"/>
      <point x="0" y="438" type="line"/>
      <point x="-19" y="409"/>
      <point x="-41" y="375"/>
      <point x="-41" y="323" type="curve" smooth="yes"/>
      <point x="-41" y="270"/>
      <point x="-9" y="184"/>
    </contour>
  </outline>
</glyph>
<glyph name="ivowelsigntelu" format="2">
  <unicode hex="0C3F"/>
  <outline>
    <contour>
      <point x="-282" y="423" type="curve" smooth="yes"/>
      <point x="-161" y="423"/>
      <point x="-87" y="480"/>
      <point x="-87" y="595" type="curve" smooth="yes"/>
      <point x="-87" y="698"/>
      <point x="-155" y="773"/>
      <point x="-277" y="773" type="curve" smooth="yes"/>
      <point x="-384" y="773"/>
      <point x="-435" y="725"/>
      <point x="-435" y="655" type="curve" smooth="yes"/>
      <point x="-435" y="588"/>
      <point x="-387" y="548"/>
      <point x="-294" y="548" type="curve" smooth="yes"/>
      <point x="-210" y="548"/>
      <point x="-174" y="583"/>
      <point x="-133" y="623" type="curve"/>
      <point x="-172" y="701" type="line"/>
      <point x="-199" y="656"/>
      <point x="-231" y="629"/>
      <point x="-279" y="629" type="curve" smooth="yes"/>
      <point x="-304" y="629"/>
      <point x="-327" y="637"/>
      <point x="-327" y="661" type="curve" smooth="yes"/>
      <point x="-327" y="683"/>
      <point x="-307" y="692"/>
      <point x="-280" y="692" type="curve" smooth="yes"/>
      <point x="-230" y="692"/>
      <point x="-193" y="656"/>
      <point x="-193" y="601" type="curve" smooth="yes"/>
      <point x="-193" y="591" type="line" smooth="yes"/>
      <point x="-193" y="528"/>
      <point x="-235" y="512"/>
      <point x="-303" y="512" type="curve" smooth="yes"/>
      <point x="-336" y="512"/>
      <point x="-368" y="519"/>
      <point x="-395" y="531" type="curve"/>
      <point x="-425" y="444" type="line"/>
      <point x="-383" y="431"/>
      <point x="-335" y="423"/>
    </contour>
  </outline>
</glyph>
<glyph name="iivowelsigntelu" format="2">
  <unicode hex="0C40"/>
  <outline>
    <contour>
      <point x="-282" y="423" type="curve" smooth="yes"/>
      <point x="-162" y="423"/>
      <point x="-87" y="480"/>
      <point x="-87" y="593" type="curve" smooth="yes"/>
      <point x="-87" y="680"/>
      <point x="-153" y="750"/>
      <point x="-282" y="750" type="curve" smooth="yes"/>
      <point x="-365" y="750"/>
      <point x="-435" y="707"/>
      <point x="-435" y="646" type="curve" smooth="yes"/>
      <point x="-435" y="582"/>
      <point x="-380" y="548"/>
      <point x="-298" y="548" type="curve" smooth="yes"/>
      <point x="-211" y="548"/>
      <point x="-173" y="583"/>
      <point x="-146" y="610" type="curve"/>
      <point x="-176" y="688" type="line"/>
      <point x="-198" y="657"/>
      <point x="-225" y="622"/>
      <point x="-279" y="622" type="curve" smooth="yes"/>
      <point x="-304" y="622"/>
      <point x="-327" y="629"/>
      <point x="-327" y="649" type="curve" smooth="yes"/>
      <point x="-327" y="667"/>
      <point x="-307" y="675"/>
      <point x="-280" y="675" type="curve" smooth="yes"/>
      <point x="-232" y="675"/>
      <point x="-193" y="647"/>
      <point x="-193" y="591" type="curve" smooth="yes"/>
      <point x="-193" y="585" type="line" smooth="yes"/>
      <point x="-193" y="530"/>
      <point x="-235" y="512"/>
      <point x="-303" y="512" type="curve" smooth="yes"/>
      <point x="-342" y="512"/>
      <point x="-367" y="520"/>
      <point x="-395" y="531" type="curve"/>
      <point x="-425" y="444" type="line"/>
      <point x="-383" y="431"/>
      <point x="-338" y="423"/>
    </contour>
    <contour>
      <point x="-249" y="869" type="curve" smooth="yes"/>
      <point x="-347" y="869"/>
      <point x="-408" y="824"/>
      <point x="-408" y="761" type="curve" smooth="yes"/>
      <point x="-408" y="713"/>
      <point x="-373" y="679"/>
      <point x="-353" y="666" type="curve"/>
      <point x="-261" y="708" type="line"/>
      <point x="-283" y="717"/>
      <point x="-299" y="732"/>
      <point x="-299" y="754" type="curve" smooth="yes"/>
      <point x="-299" y="778"/>
      <point x="-281" y="792"/>
      <point x="-246" y="792" type="curve" smooth="yes"/>
      <point x="-209" y="792"/>
      <point x="-194" y="774"/>
      <point x="-185" y="758" type="curve"/>
      <point x="-83" y="783" type="line"/>
      <point x="-116" y="846"/>
      <point x="-168" y="869"/>
    </contour>
  </outline>
</glyph>
<glyph name="uvowelsigntelu" format="2">
  <advance width="349"/>
  <unicode hex="0C41"/>
  <outline>
    <contour>
      <point x="104" y="-12" type="curve" smooth="yes"/>
      <point x="242" y="-12"/>
      <point x="316" y="72"/>
      <point x="316" y="200" type="curve" smooth="yes"/>
      <point x="316" y="338"/>
      <point x="226" y="435"/>
      <point x="108" y="500" type="curve"/>
      <point x="29" y="389" type="line"/>
      <point x="105" y="341"/>
      <point x="177" y="282"/>
      <point x="177" y="189" type="curve" smooth="yes"/>
      <point x="177" y="136"/>
      <point x="150" y="109"/>
      <point x="104" y="109" type="curve" smooth="yes"/>
      <point x="41" y="109"/>
      <point x="-4" y="148"/>
      <point x="-46" y="197" type="curve"/>
      <point x="-123" y="111" type="line"/>
      <point x="-61" y="40"/>
      <point x="2" y="-12"/>
    </contour>
  </outline>
</glyph>
<glyph name="uuvowelsigntelu" format="2">
  <advance width="704"/>
  <unicode hex="0C42"/>
  <outline>
    <contour>
      <point x="104" y="-12" type="curve" smooth="yes"/>
      <point x="242" y="-12"/>
      <point x="316" y="72"/>
      <point x="316" y="200" type="curve" smooth="yes"/>
      <point x="316" y="310"/>
      <point x="258" y="379"/>
      <point x="177" y="438" type="curve"/>
      <point x="167" y="462" type="line"/>
      <point x="148" y="476"/>
      <point x="129" y="488"/>
      <point x="108" y="500" type="curve"/>
      <point x="29" y="389" type="line"/>
      <point x="105" y="341"/>
      <point x="177" y="281"/>
      <point x="177" y="189" type="curve" smooth="yes"/>
      <point x="177" y="136"/>
      <point x="150" y="109"/>
      <point x="104" y="109" type="curve" smooth="yes"/>
      <point x="41" y="109"/>
      <point x="-4" y="148"/>
      <point x="-46" y="197" type="curve"/>
      <point x="-123" y="111" type="line"/>
      <point x="-63" y="40"/>
      <point x="2" y="-12"/>
    </contour>
    <contour>
      <point x="528" y="184" type="curve" smooth="yes"/>
      <point x="629" y="184"/>
      <point x="689" y="248"/>
      <point x="689" y="335" type="curve" smooth="yes"/>
      <point x="689" y="394"/>
      <point x="667" y="431"/>
      <point x="634" y="456" type="curve" smooth="yes"/>
      <point x="586" y="493"/>
      <point x="533" y="500"/>
      <point x="412" y="500" type="curve" smooth="yes"/>
      <point x="108" y="500" type="line"/>
      <point x="108" y="387" type="line"/>
      <point x="498" y="387" type="line" smooth="yes"/>
      <point x="552" y="387"/>
      <point x="587" y="372"/>
      <point x="587" y="332" type="curve" smooth="yes"/>
      <point x="587" y="303"/>
      <point x="568" y="281"/>
      <point x="530" y="281" type="curve" smooth="yes"/>
      <point x="497" y="281"/>
      <point x="474" y="305"/>
      <point x="474" y="338" type="curve" smooth="yes"/>
      <point x="474" y="379"/>
      <point x="493" y="402"/>
      <point x="522" y="430" type="curve"/>
      <point x="415" y="438" type="line"/>
      <point x="396" y="409"/>
      <point x="374" y="375"/>
      <point x="374" y="323" type="curve" smooth="yes"/>
      <point x="374" y="270"/>
      <point x="406" y="184"/>
    </contour>
  </outline>
</glyph>
<glyph name="rvocalicvowelsigntelu" format="2">
  <advance width="445"/>
  <unicode hex="0C43"/>
  <outline>
    <contour>
      <point x="116" y="-403" type="curve" smooth="yes"/>
      <point x="294" y="-403"/>
      <point x="443" y="-311"/>
      <point x="443" y="-91" type="curve" smooth="yes"/>
      <point x="443" y="176"/>
      <point x="241" y="391"/>
      <point x="53" y="500" type="curve"/>
      <point x="-28" y="391" type="line"/>
      <point x="150" y="288"/>
      <point x="310" y="113"/>
      <point x="310" y="-90" type="curve" smooth="yes"/>
      <point x="310" y="-255"/>
      <point x="204" y="-299"/>
      <point x="110" y="-299" type="curve" smooth="yes"/>
      <point x="5" y="-299"/>
      <point x="-31" y="-262"/>
      <point x="-31" y="-203" type="curve" smooth="yes"/>
      <point x="-31" y="-192" type="line" smooth="yes"/>
      <point x="-31" y="-134"/>
      <point x="3" y="-99"/>
      <point x="42" y="-99" type="curve" smooth="yes"/>
      <point x="70" y="-99"/>
      <point x="86" y="-116"/>
      <point x="86" y="-141" type="curve" smooth="yes"/>
      <point x="86" y="-170"/>
      <point x="61" y="-187"/>
      <point x="23" y="-187" type="curve" smooth="yes"/>
      <point x="-5" y="-187"/>
      <point x="-26" y="-176"/>
      <point x="-51" y="-151" type="curve"/>
      <point x="-40" y="-247" type="line"/>
      <point x="-15" y="-263"/>
      <point x="10" y="-272"/>
      <point x="42" y="-272" type="curve" smooth="yes"/>
      <point x="138" y="-272"/>
      <point x="197" y="-226"/>
      <point x="197" y="-139" type="curve" smooth="yes"/>
      <point x="197" y="-69"/>
      <point x="152" y="-6"/>
      <point x="45" y="-6" type="curve" smooth="yes"/>
      <point x="-70" y="-6"/>
      <point x="-142" y="-88"/>
      <point x="-142" y="-190" type="curve" smooth="yes"/>
      <point x="-142" y="-317"/>
      <point x="-49" y="-403"/>
    </contour>
  </outline>
</glyph>
<glyph name="rrvocalicvowelsigntelu" format="2">
  <advance width="732"/>
  <unicode hex="0C44"/>
  <outline>
    <contour>
      <point x="116" y="-403" type="curve" smooth="yes"/>
      <point x="294" y="-403"/>
      <point x="443" y="-311"/>
      <point x="443" y="-91" type="curve" smooth="yes"/>
      <point x="443" y="131"/>
      <point x="310" y="312"/>
      <point x="140" y="427" type="curve"/>
      <point x="94" y="477" type="line"/>
      <point x="82" y="485"/>
      <point x="71" y="492"/>
      <point x="51" y="500" type="curve"/>
      <point x="-6" y="378" type="line"/>
      <point x="150" y="285"/>
      <point x="310" y="113"/>
      <point x="310" y="-90" type="curve" smooth="yes"/>
      <point x="310" y="-255"/>
      <point x="204" y="-299"/>
      <point x="110" y="-299" type="curve" smooth="yes"/>
      <point x="5" y="-299"/>
      <point x="-31" y="-262"/>
      <point x="-31" y="-203" type="curve" smooth="yes"/>
      <point x="-31" y="-192" type="line" smooth="yes"/>
      <point x="-31" y="-134"/>
      <point x="3" y="-99"/>
      <point x="42" y="-99" type="curve" smooth="yes"/>
      <point x="70" y="-99"/>
      <point x="86" y="-116"/>
      <point x="86" y="-141" type="curve" smooth="yes"/>
      <point x="86" y="-170"/>
      <point x="61" y="-187"/>
      <point x="23" y="-187" type="curve" smooth="yes"/>
      <point x="-5" y="-187"/>
      <point x="-26" y="-176"/>
      <point x="-51" y="-151" type="curve"/>
      <point x="-40" y="-247" type="line"/>
      <point x="-15" y="-263"/>
      <point x="10" y="-272"/>
      <point x="42" y="-272" type="curve" smooth="yes"/>
      <point x="138" y="-272"/>
      <point x="197" y="-226"/>
      <point x="197" y="-139" type="curve" smooth="yes"/>
      <point x="197" y="-69"/>
      <point x="152" y="-6"/>
      <point x="45" y="-6" type="curve" smooth="yes"/>
      <point x="-70" y="-6"/>
      <point x="-142" y="-88"/>
      <point x="-142" y="-190" type="curve" smooth="yes"/>
      <point x="-142" y="-317"/>
      <point x="-49" y="-403"/>
    </contour>
    <contour>
      <point x="557" y="184" type="curve" smooth="yes"/>
      <point x="658" y="184"/>
      <point x="718" y="248"/>
      <point x="718" y="335" type="curve" smooth="yes"/>
      <point x="718" y="394"/>
      <point x="696" y="431"/>
      <point x="663" y="456" type="curve" smooth="yes"/>
      <point x="615" y="493"/>
      <point x="562" y="500"/>
      <point x="440" y="500" type="curve" smooth="yes"/>
      <point x="51" y="500" type="line"/>
      <point x="58" y="396" type="line"/>
      <point x="138" y="390"/>
      <point x="224" y="387"/>
      <point x="286" y="387" type="curve"/>
      <point x="526" y="387" type="line" smooth="yes"/>
      <point x="581" y="387"/>
      <point x="616" y="372"/>
      <point x="616" y="332" type="curve" smooth="yes"/>
      <point x="616" y="303"/>
      <point x="597" y="281"/>
      <point x="559" y="281" type="curve" smooth="yes"/>
      <point x="526" y="281"/>
      <point x="503" y="305"/>
      <point x="503" y="338" type="curve" smooth="yes"/>
      <point x="503" y="379"/>
      <point x="522" y="402"/>
      <point x="551" y="430" type="curve"/>
      <point x="443" y="438" type="line"/>
      <point x="424" y="409"/>
      <point x="403" y="377"/>
      <point x="403" y="323" type="curve" smooth="yes"/>
      <point x="403" y="270"/>
      <point x="435" y="184"/>
    </contour>
  </outline>
</glyph>
<glyph name="evowelsigntelu" format="2">
  <unicode hex="0C46"/>
  <outline>
    <contour>
      <point x="2" y="547" type="curve" smooth="yes"/>
      <point x="2" y="599"/>
      <point x="-17" y="636"/>
      <point x="-45" y="660" type="curve" smooth="yes"/>
      <point x="-83" y="692"/>
      <point x="-130" y="705"/>
      <point x="-224" y="705" type="curve" smooth="yes"/>
      <point x="-574" y="705" type="line"/>
      <point x="-574" y="592" type="line"/>
      <point x="-211" y="592" type="line" smooth="yes"/>
      <point x="-167" y="592"/>
      <point x="-151" y="588"/>
      <point x="-141" y="579" type="curve" smooth="yes"/>
      <point x="-132" y="571"/>
      <point x="-128" y="560"/>
      <point x="-128" y="544" type="curve" smooth="yes"/>
      <point x="-128" y="532"/>
      <point x="-131" y="522"/>
      <point x="-140" y="514" type="curve" smooth="yes"/>
      <point x="-151" y="504"/>
      <point x="-168" y="500"/>
      <point x="-206" y="500" type="curve" smooth="yes"/>
      <point x="-264" y="500" type="line"/>
      <point x="-264" y="391" type="line"/>
      <point x="-202" y="391" type="line" smooth="yes"/>
      <point x="-125" y="391"/>
      <point x="-82" y="406"/>
      <point x="-47" y="433" type="curve" smooth="yes"/>
      <point x="-18" y="456"/>
      <point x="2" y="500"/>
    </contour>
  </outline>
</glyph>
<glyph name="eevowelsigntelu" format="2">
  <unicode hex="0C47"/>
  <outline>
    <contour>
      <point x="2" y="547" type="curve" smooth="yes"/>
      <point x="2" y="599"/>
      <point x="-17" y="636"/>
      <point x="-45" y="660" type="curve" smooth="yes"/>
      <point x="-83" y="692"/>
      <point x="-130" y="705"/>
      <point x="-224" y="705" type="curve" smooth="yes"/>
      <point x="-574" y="705" type="line"/>
      <point x="-574" y="592" type="line"/>
      <point x="-211" y="592" type="line" smooth="yes"/>
      <point x="-167" y="592"/>
      <point x="-151" y="588"/>
      <point x="-141" y="579" type="curve" smooth="yes"/>
      <point x="-132" y="571"/>
      <point x="-128" y="560"/>
      <point x="-128" y="544" type="curve" smooth="yes"/>
      <point x="-128" y="532"/>
      <point x="-131" y="522"/>
      <point x="-140" y="514" type="curve" smooth="yes"/>
      <point x="-151" y="504"/>
      <point x="-168" y="500"/>
      <point x="-206" y="500" type="curve" smooth="yes"/>
      <point x="-264" y="500" type="line"/>
      <point x="-264" y="391" type="line"/>
      <point x="-202" y="391" type="line" smooth="yes"/>
      <point x="-125" y="391"/>
      <point x="-82" y="406"/>
      <point x="-47" y="433" type="curve" smooth="yes"/>
      <point x="-18" y="456"/>
      <point x="2" y="500"/>
    </contour>
    <contour>
      <point x="-116" y="856" type="curve" smooth="yes"/>
      <point x="-229" y="856"/>
      <point x="-279" y="799"/>
      <point x="-279" y="736" type="curve" smooth="yes"/>
      <point x="-279" y="686"/>
      <point x="-254" y="648"/>
      <point x="-228" y="625" type="curve"/>
      <point x="-126" y="663" type="line"/>
      <point x="-152" y="679"/>
      <point x="-168" y="700"/>
      <point x="-168" y="725" type="curve" smooth="yes"/>
      <point x="-168" y="749"/>
      <point x="-149" y="766"/>
      <point x="-116" y="766" type="curve" smooth="yes"/>
      <point x="-87" y="766"/>
      <point x="-68" y="753"/>
      <point x="-56" y="730" type="curve"/>
      <point x="45" y="756" type="line"/>
      <point x="18" y="820"/>
      <point x="-32" y="856"/>
    </contour>
  </outline>
</glyph>
<glyph name="ovowelsigntelu" format="2">
  <advance width="344"/>
  <unicode hex="0C4A"/>
  <outline>
    <contour>
      <point x="169" y="400" type="curve" smooth="yes"/>
      <point x="270" y="400"/>
      <point x="329" y="463"/>
      <point x="329" y="551" type="curve" smooth="yes"/>
      <point x="329" y="611"/>
      <point x="307" y="647"/>
      <point x="273" y="673" type="curve" smooth="yes"/>
      <point x="226" y="709"/>
      <point x="167" y="715"/>
      <point x="81" y="715" type="curve" smooth="yes"/>
      <point x="21" y="715" type="line" smooth="yes"/>
      <point x="-85" y="715"/>
      <point x="-124" y="673"/>
      <point x="-148" y="624" type="curve"/>
      <point x="-139" y="624" type="line"/>
      <point x="-155" y="672"/>
      <point x="-208" y="715"/>
      <point x="-295" y="715" type="curve" smooth="yes"/>
      <point x="-307" y="715" type="line" smooth="yes"/>
      <point x="-412" y="715"/>
      <point x="-477" y="651"/>
      <point x="-477" y="559" type="curve" smooth="yes"/>
      <point x="-477" y="457"/>
      <point x="-400" y="391"/>
      <point x="-284" y="391" type="curve" smooth="yes"/>
      <point x="-258" y="391" type="line"/>
      <point x="-258" y="500" type="line"/>
      <point x="-292" y="500" type="line" smooth="yes"/>
      <point x="-329" y="500"/>
      <point x="-353" y="516"/>
      <point x="-353" y="549" type="curve" smooth="yes"/>
      <point x="-353" y="584"/>
      <point x="-328" y="603"/>
      <point x="-299" y="603" type="curve" smooth="yes"/>
      <point x="-288" y="603" type="line" smooth="yes"/>
      <point x="-235" y="603"/>
      <point x="-214" y="576"/>
      <point x="-204" y="532" type="curve"/>
      <point x="-82" y="532" type="line"/>
      <point x="-76" y="581"/>
      <point x="-50" y="603"/>
      <point x="-5" y="603" type="curve" smooth="yes"/>
      <point x="138" y="603" type="line" smooth="yes"/>
      <point x="192" y="603"/>
      <point x="227" y="587"/>
      <point x="227" y="548" type="curve" smooth="yes"/>
      <point x="227" y="520"/>
      <point x="210" y="497"/>
      <point x="170" y="497" type="curve" smooth="yes"/>
      <point x="137" y="497"/>
      <point x="114" y="521"/>
      <point x="114" y="554" type="curve" smooth="yes"/>
      <point x="114" y="595"/>
      <point x="133" y="618"/>
      <point x="162" y="646" type="curve"/>
      <point x="55" y="653" type="line"/>
      <point x="36" y="625"/>
      <point x="14" y="592"/>
      <point x="14" y="538" type="curve" smooth="yes"/>
      <point x="14" y="486"/>
      <point x="46" y="400"/>
    </contour>
  </outline>
</glyph>
<glyph name="oovowelsigntelu" format="2">
  <advance width="344"/>
  <unicode hex="0C4B"/>
  <outline>
    <contour>
      <point x="169" y="400" type="curve" smooth="yes"/>
      <point x="270" y="400"/>
      <point x="329" y="463"/>
      <point x="329" y="551" type="curve" smooth="yes"/>
      <point x="329" y="611"/>
      <point x="307" y="647"/>
      <point x="273" y="673" type="curve" smooth="yes"/>
      <point x="226" y="709"/>
      <point x="167" y="715"/>
      <point x="81" y="715" type="curve" smooth="yes"/>
      <point x="21" y="715" type="line" smooth="yes"/>
      <point x="-85" y="715"/>
      <point x="-124" y="673"/>
      <point x="-148" y="624" type="curve"/>
      <point x="-139" y="624" type="line"/>
      <point x="-155" y="672"/>
      <point x="-208" y="715"/>
      <point x="-295" y="715" type="curve" smooth="yes"/>
      <point x="-307" y="715" type="line" smooth="yes"/>
      <point x="-412" y="715"/>
      <point x="-477" y="651"/>
      <point x="-477" y="559" type="curve" smooth="yes"/>
      <point x="-477" y="457"/>
      <point x="-400" y="391"/>
      <point x="-284" y="391" type="curve" smooth="yes"/>
      <point x="-258" y="391" type="line"/>
      <point x="-258" y="500" type="line"/>
      <point x="-292" y="500" type="line" smooth="yes"/>
      <point x="-329" y="500"/>
      <point x="-353" y="516"/>
      <point x="-353" y="549" type="curve" smooth="yes"/>
      <point x="-353" y="584"/>
      <point x="-328" y="603"/>
      <point x="-299" y="603" type="curve" smooth="yes"/>
      <point x="-288" y="603" type="line" smooth="yes"/>
      <point x="-235" y="603"/>
      <point x="-214" y="576"/>
      <point x="-204" y="532" type="curve"/>
      <point x="-82" y="532" type="line"/>
      <point x="-76" y="581"/>
      <point x="-50" y="603"/>
      <point x="-5" y="603" type="curve" smooth="yes"/>
      <point x="138" y="603" type="line" smooth="yes"/>
      <point x="192" y="603"/>
      <point x="227" y="587"/>
      <point x="227" y="548" type="curve" smooth="yes"/>
      <point x="227" y="520"/>
      <point x="210" y="497"/>
      <point x="170" y="497" type="curve" smooth="yes"/>
      <point x="137" y="497"/>
      <point x="114" y="521"/>
      <point x="114" y="554" type="curve" smooth="yes"/>
      <point x="114" y="595"/>
      <point x="133" y="618"/>
      <point x="162" y="646" type="curve"/>
      <point x="55" y="653" type="line"/>
      <point x="36" y="625"/>
      <point x="14" y="592"/>
      <point x="14" y="538" type="curve" smooth="yes"/>
      <point x="14" y="486"/>
      <point x="46" y="400"/>
    </contour>
    <contour>
      <point x="201" y="867" type="curve" smooth="yes"/>
      <point x="89" y="867"/>
      <point x="39" y="809"/>
      <point x="39" y="746" type="curve" smooth="yes"/>
      <point x="39" y="696"/>
      <point x="64" y="658"/>
      <point x="89" y="635" type="curve"/>
      <point x="191" y="673" type="line"/>
      <point x="165" y="689"/>
      <point x="150" y="710"/>
      <point x="150" y="735" type="curve" smooth="yes"/>
      <point x="150" y="759"/>
      <point x="169" y="776"/>
      <point x="202" y="776" type="curve" smooth="yes"/>
      <point x="231" y="776"/>
      <point x="250" y="763"/>
      <point x="261" y="741" type="curve"/>
      <point x="363" y="766" type="line"/>
      <point x="336" y="830"/>
      <point x="286" y="867"/>
    </contour>
  </outline>
</glyph>
<glyph name="auvowelsigntelu" format="2">
  <advance width="344"/>
  <unicode hex="0C4C"/>
  <outline>
    <contour>
      <point x="169" y="390" type="curve" smooth="yes"/>
      <point x="270" y="390"/>
      <point x="330" y="453"/>
      <point x="330" y="541" type="curve" smooth="yes"/>
      <point x="330" y="599"/>
      <point x="308" y="636"/>
      <point x="274" y="662" type="curve" smooth="yes"/>
      <point x="227" y="698"/>
      <point x="173" y="705"/>
      <point x="52" y="705" type="curve" smooth="yes"/>
      <point x="-501" y="705" type="line"/>
      <point x="-501" y="592" type="line"/>
      <point x="-270" y="592" type="line" smooth="yes"/>
      <point x="-226" y="592"/>
      <point x="-211" y="588"/>
      <point x="-200" y="578" type="curve" smooth="yes"/>
      <point x="-191" y="569"/>
      <point x="-187" y="558"/>
      <point x="-187" y="544" type="curve" smooth="yes"/>
      <point x="-187" y="531"/>
      <point x="-191" y="522"/>
      <point x="-199" y="514" type="curve"/>
      <point x="-210" y="504"/>
      <point x="-227" y="500"/>
      <point x="-265" y="500" type="curve" smooth="yes"/>
      <point x="-375" y="500" type="line"/>
      <point x="-375" y="391" type="line"/>
      <point x="-275" y="391" type="line" smooth="yes"/>
      <point x="-189" y="391"/>
      <point x="-144" y="400"/>
      <point x="-110" y="427" type="curve" smooth="yes"/>
      <point x="-77" y="453"/>
      <point x="-63" y="495"/>
      <point x="-63" y="543" type="curve" smooth="yes"/>
      <point x="-63" y="562"/>
      <point x="-66" y="578"/>
      <point x="-70" y="592" type="curve"/>
      <point x="138" y="592" type="line" smooth="yes"/>
      <point x="192" y="592"/>
      <point x="228" y="578"/>
      <point x="228" y="538" type="curve" smooth="yes"/>
      <point x="228" y="508"/>
      <point x="208" y="486"/>
      <point x="170" y="486" type="curve" smooth="yes"/>
      <point x="138" y="486"/>
      <point x="115" y="510"/>
      <point x="115" y="544" type="curve" smooth="yes"/>
      <point x="115" y="584"/>
      <point x="134" y="608"/>
      <point x="163" y="636" type="curve"/>
      <point x="55" y="643" type="line"/>
      <point x="36" y="615"/>
      <point x="15" y="583"/>
      <point x="15" y="529" type="curve" smooth="yes"/>
      <point x="15" y="476"/>
      <point x="47" y="390"/>
    </contour>
  </outline>
</glyph>
<glyph name="viramatelu" format="2">
  <unicode hex="0C4D"/>
  <outline>
    <contour>
      <point x="-384" y="528" type="curve" smooth="yes"/>
      <point x="-384" y="432"/>
      <point x="-310" y="391"/>
      <point x="-214" y="391" type="curve" smooth="yes"/>
      <point x="-166" y="391" type="line"/>
      <point x="-166" y="500" type="line"/>
      <point x="-203" y="500" type="line" smooth="yes"/>
      <point x="-224" y="500"/>
      <point x="-238" y="502"/>
      <point x="-247" y="509" type="curve"/>
      <point x="-255" y="516"/>
      <point x="-260" y="524"/>
      <point x="-260" y="537" type="curve" smooth="yes"/>
      <point x="-260" y="549"/>
      <point x="-255" y="558"/>
      <point x="-245" y="565" type="curve" smooth="yes"/>
      <point x="-234" y="572"/>
      <point x="-220" y="575"/>
      <point x="-187" y="575" type="curve" smooth="yes"/>
      <point x="-48" y="575" type="line"/>
      <point x="-48" y="683" type="line"/>
      <point x="-186" y="683" type="line" smooth="yes"/>
      <point x="-224" y="683"/>
      <point x="-236" y="684"/>
      <point x="-248" y="689" type="curve" smooth="yes"/>
      <point x="-262" y="695"/>
      <point x="-267" y="708"/>
      <point x="-267" y="722" type="curve" smooth="yes"/>
      <point x="-267" y="736"/>
      <point x="-261" y="747"/>
      <point x="-246" y="753" type="curve" smooth="yes"/>
      <point x="-234" y="758"/>
      <point x="-217" y="760"/>
      <point x="-184" y="760" type="curve" smooth="yes"/>
      <point x="119" y="760" type="line"/>
      <point x="119" y="869" type="line"/>
      <point x="-171" y="869" type="line" smooth="yes"/>
      <point x="-271" y="869"/>
      <point x="-310" y="856"/>
      <point x="-344" y="833" type="curve" smooth="yes"/>
      <point x="-374" y="813"/>
      <point x="-392" y="780"/>
      <point x="-392" y="737" type="curve" smooth="yes"/>
      <point x="-392" y="691"/>
      <point x="-367" y="647"/>
      <point x="-324" y="617" type="curve"/>
      <point x="-323" y="637" type="line"/>
      <point x="-366" y="608"/>
      <point x="-384" y="572"/>
    </contour>
  </outline>
</glyph>
<glyph name="lengthmarktelu" format="2">
  <unicode hex="0C55"/>
  <outline>
    <contour>
      <point x="-159" y="689" type="curve" smooth="yes"/>
      <point x="-272" y="689"/>
      <point x="-322" y="632"/>
      <point x="-322" y="569" type="curve" smooth="yes"/>
      <point x="-322" y="519"/>
      <point x="-297" y="481"/>
      <point x="-271" y="458" type="curve"/>
      <point x="-169" y="496" type="line"/>
      <point x="-195" y="512"/>
      <point x="-211" y="533"/>
      <point x="-211" y="558" type="curve" smooth="yes"/>
      <point x="-211" y="582"/>
      <point x="-192" y="599"/>
      <point x="-159" y="599" type="curve" smooth="yes"/>
      <point x="-130" y="599"/>
      <point x="-111" y="586"/>
      <point x="-99" y="563" type="curve"/>
      <point x="2" y="589" type="line"/>
      <point x="-25" y="653"/>
      <point x="-75" y="689"/>
    </contour>
  </outline>
</glyph>
<glyph name="ailengthmarktelu" format="2">
  <unicode hex="0C56"/>
  <outline>
    <contour>
      <point x="-453" y="-54" type="curve" smooth="yes"/>
      <point x="-548" y="-54"/>
      <point x="-608" y="-116"/>
      <point x="-608" y="-201" type="curve" smooth="yes"/>
      <point x="-608" y="-258"/>
      <point x="-585" y="-295"/>
      <point x="-552" y="-319" type="curve" smooth="yes"/>
      <point x="-504" y="-355"/>
      <point x="-450" y="-362"/>
      <point x="-328" y="-362" type="curve" smooth="yes"/>
      <point x="40" y="-362" type="line"/>
      <point x="40" y="-249" type="line"/>
      <point x="-427" y="-249" type="line" smooth="yes"/>
      <point x="-479" y="-249"/>
      <point x="-511" y="-235"/>
      <point x="-511" y="-196" type="curve" smooth="yes"/>
      <point x="-511" y="-168"/>
      <point x="-493" y="-146"/>
      <point x="-459" y="-146" type="curve" smooth="yes"/>
      <point x="-424" y="-146"/>
      <point x="-402" y="-170"/>
      <point x="-402" y="-203" type="curve" smooth="yes"/>
      <point x="-402" y="-242"/>
      <point x="-421" y="-265"/>
      <point x="-450" y="-292" type="curve"/>
      <point x="-345" y="-300" type="line"/>
      <point x="-325" y="-272"/>
      <point x="-304" y="-241"/>
      <point x="-304" y="-189" type="curve" smooth="yes"/>
      <point x="-304" y="-134"/>
      <point x="-336" y="-54"/>
    </contour>
  </outline>
</glyph>
<glyph name="tsatelu" format="2">
  <advance width="838"/>
  <unicode hex="0C58"/>
  <outline>
    <contour>
      <point x="593" y="-12" type="curve" smooth="yes"/>
      <point x="730" y="-12"/>
      <point x="805" y="67"/>
      <point x="805" y="188" type="curve" smooth="yes"/>
      <point x="805" y="325"/>
      <point x="698" y="444"/>
      <point x="524" y="473" type="curve"/>
      <point x="434" y="369" type="line"/>
      <point x="566" y="355"/>
      <point x="666" y="286"/>
      <point x="666" y="186" type="curve" smooth="yes"/>
      <point x="666" y="141"/>
      <point x="647" y="109"/>
      <point x="591" y="109" type="curve" smooth="yes"/>
      <point x="548" y="109"/>
      <point x="509" y="123"/>
      <point x="497" y="202" type="curve"/>
      <point x="369" y="202" type="line"/>
      <point x="364" y="149"/>
      <point x="332" y="110"/>
      <point x="276" y="110" type="curve" smooth="yes"/>
      <point x="238" y="110"/>
      <point x="213" y="130"/>
      <point x="213" y="166" type="curve" smooth="yes"/>
      <point x="213" y="202"/>
      <point x="238" y="231"/>
      <point x="302" y="243" type="curve"/>
      <point x="302" y="348" type="line"/>
      <point x="24" y="348" type="line"/>
      <point x="24" y="230" type="line"/>
      <point x="149" y="230" type="line"/>
      <point x="153" y="253" type="line"/>
      <point x="95" y="225"/>
      <point x="76" y="174"/>
      <point x="76" y="132" type="curve" smooth="yes"/>
      <point x="76" y="44"/>
      <point x="146" y="-12"/>
      <point x="253" y="-12" type="curve" smooth="yes"/>
      <point x="329" y="-12"/>
      <point x="395" y="8"/>
      <point x="442" y="88" type="curve"/>
      <point x="423" y="88" type="line"/>
      <point x="467" y="17"/>
      <point x="515" y="-12"/>
    </contour>
    <contour>
      <point x="473" y="362" type="curve" smooth="yes"/>
      <point x="552" y="362"/>
      <point x="609" y="403"/>
      <point x="648" y="452" type="curve" smooth="yes"/>
      <point x="682" y="493" type="line" smooth="yes"/>
      <point x="726" y="547"/>
      <point x="757" y="571"/>
      <point x="826" y="576" type="curve"/>
      <point x="818" y="692" type="line"/>
      <point x="716" y="689"/>
      <point x="666" y="659"/>
      <point x="597" y="572" type="curve" smooth="yes"/>
      <point x="555" y="519" type="line" smooth="yes"/>
      <point x="521" y="477"/>
      <point x="505" y="465"/>
      <point x="485" y="465" type="curve" smooth="yes"/>
      <point x="455" y="465"/>
      <point x="440" y="492"/>
      <point x="425" y="560" type="curve"/>
      <point x="289" y="525" type="line"/>
      <point x="317" y="402"/>
      <point x="377" y="362"/>
    </contour>
    <contour>
      <point x="525" y="869" type="curve" smooth="yes"/>
      <point x="407" y="869"/>
      <point x="372" y="792"/>
      <point x="372" y="739" type="curve" smooth="yes"/>
      <point x="372" y="689"/>
      <point x="393" y="659"/>
      <point x="412" y="633" type="curve"/>
      <point x="517" y="640" type="line"/>
      <point x="488" y="666"/>
      <point x="469" y="687"/>
      <point x="469" y="724" type="curve" smooth="yes"/>
      <point x="469" y="754"/>
      <point x="491" y="776"/>
      <point x="525" y="776" type="curve" smooth="yes"/>
      <point x="560" y="776"/>
      <point x="577" y="757"/>
      <point x="577" y="731" type="curve" smooth="yes"/>
      <point x="577" y="696"/>
      <point x="546" y="684"/>
      <point x="494" y="684" type="curve" smooth="yes"/>
      <point x="82" y="684" type="line"/>
      <point x="82" y="571" type="line"/>
      <point x="396" y="571" type="line"/>
      <point x="518" y="571"/>
      <point x="572" y="578"/>
      <point x="620" y="612" type="curve" smooth="yes"/>
      <point x="653" y="636"/>
      <point x="675" y="671"/>
      <point x="675" y="729" type="curve" smooth="yes"/>
      <point x="675" y="810"/>
      <point x="620" y="869"/>
    </contour>
  </outline>
</glyph>
<glyph name="rrratelu" format="2">
  <advance width="775"/>
  <unicode hex="0C5A"/>
  <outline>
    <contour>
      <point x="556" y="-12" type="curve" smooth="yes"/>
      <point x="662" y="-12"/>
      <point x="742" y="63"/>
      <point x="742" y="200" type="curve" smooth="yes"/>
      <point x="742" y="371"/>
      <point x="607" y="500"/>
      <point x="387" y="500" type="curve" smooth="yes"/>
      <point x="170" y="500"/>
      <point x="33" y="372"/>
      <point x="33" y="200" type="curve" smooth="yes"/>
      <point x="33" y="66"/>
      <point x="105" y="-12"/>
      <point x="212" y="-12" type="curve" smooth="yes"/>
      <point x="291" y="-12"/>
      <point x="341" y="3"/>
      <point x="398" y="90" type="curve"/>
      <point x="377" y="88" type="line"/>
      <point x="424" y="13"/>
      <point x="470" y="-12"/>
    </contour>
    <contour>
      <point x="532" y="109" type="curve" smooth="yes"/>
      <point x="493" y="109"/>
      <point x="463" y="135"/>
      <point x="452" y="194" type="curve"/>
      <point x="323" y="194" type="line"/>
      <point x="314" y="141"/>
      <point x="289" y="109"/>
      <point x="243" y="109" type="curve" smooth="yes"/>
      <point x="197" y="109"/>
      <point x="172" y="138"/>
      <point x="172" y="213" type="curve" smooth="yes"/>
      <point x="172" y="317"/>
      <point x="243" y="387"/>
      <point x="384" y="387" type="curve" smooth="yes"/>
      <point x="394" y="387" type="line" smooth="yes"/>
      <point x="538" y="387"/>
      <point x="603" y="317"/>
      <point x="603" y="213" type="curve" smooth="yes"/>
      <point x="603" y="137"/>
      <point x="577" y="109"/>
    </contour>
    <contour>
      <point x="67" y="222" type="line"/>
      <point x="651" y="222" type="line"/>
      <point x="651" y="325" type="line"/>
      <point x="113" y="325" type="line"/>
    </contour>
  </outline>
</glyph>
<glyph name="llvocalictelu" format="2">
  <advance width="1331"/>
  <unicode hex="0C61"/>
  <outline>
    <contour>
      <point x="596" y="-103" type="curve" smooth="yes"/>
      <point x="787" y="-103"/>
      <point x="929" y="27"/>
      <point x="929" y="213" type="curve" smooth="yes"/>
      <point x="929" y="329"/>
      <point x="875" y="417"/>
      <point x="764" y="482" type="curve"/>
      <point x="687" y="396" type="line"/>
      <point x="746" y="359"/>
      <point x="790" y="282"/>
      <point x="790" y="213" type="curve" smooth="yes"/>
      <point x="790" y="91"/>
      <point x="698" y="18"/>
      <point x="603" y="18" type="curve" smooth="yes"/>
      <point x="550" y="18"/>
      <point x="524" y="41"/>
      <point x="524" y="84" type="curve" smooth="yes"/>
      <point x="524" y="108"/>
      <point x="535" y="129"/>
      <point x="570" y="168" type="curve" smooth="yes"/>
      <point x="644" y="250"/>
      <point x="667" y="288"/>
      <point x="667" y="355" type="curve" smooth="yes"/>
      <point x="667" y="415"/>
      <point x="629" y="500"/>
      <point x="503" y="500" type="curve" smooth="yes"/>
      <point x="429" y="500"/>
      <point x="375" y="471"/>
      <point x="331" y="399" type="curve"/>
      <point x="350" y="399" type="line"/>
      <point x="306" y="467"/>
      <point x="267" y="500"/>
      <point x="188" y="500" type="curve" smooth="yes"/>
      <point x="85" y="500"/>
      <point x="27" y="433"/>
      <point x="27" y="357" type="curve" smooth="yes"/>
      <point x="27" y="310"/>
      <point x="38" y="274"/>
      <point x="52" y="241" type="curve"/>
      <point x="181" y="277" type="line"/>
      <point x="170" y="296"/>
      <point x="166" y="315"/>
      <point x="166" y="329" type="curve" smooth="yes"/>
      <point x="166" y="356"/>
      <point x="178" y="379"/>
      <point x="209" y="379" type="curve" smooth="yes"/>
      <point x="247" y="379"/>
      <point x="273" y="348"/>
      <point x="276" y="285" type="curve"/>
      <point x="404" y="285" type="line"/>
      <point x="411" y="342"/>
      <point x="440" y="379"/>
      <point x="489" y="379" type="curve" smooth="yes"/>
      <point x="512" y="379"/>
      <point x="530" y="366"/>
      <point x="530" y="341" type="curve" smooth="yes"/>
      <point x="530" y="314"/>
      <point x="507" y="285"/>
      <point x="484" y="261" type="curve" smooth="yes"/>
      <point x="415" y="188"/>
      <point x="386" y="135"/>
      <point x="386" y="70" type="curve" smooth="yes"/>
      <point x="386" y="-32"/>
      <point x="456" y="-103"/>
    </contour>
    <contour>
      <point x="1155" y="184" type="curve" smooth="yes"/>
      <point x="1256" y="184"/>
      <point x="1316" y="248"/>
      <point x="1316" y="335" type="curve" smooth="yes"/>
      <point x="1316" y="394"/>
      <point x="1294" y="431"/>
      <point x="1261" y="456" type="curve" smooth="yes"/>
      <point x="1213" y="493"/>
      <point x="1160" y="500"/>
      <point x="1039" y="500" type="curve" smooth="yes"/>
      <point x="774" y="500" type="line"/>
      <point x="687" y="396" type="line"/>
      <point x="735" y="387" type="line"/>
      <point x="1125" y="387" type="line" smooth="yes"/>
      <point x="1179" y="387"/>
      <point x="1214" y="372"/>
      <point x="1214" y="332" type="curve" smooth="yes"/>
      <point x="1214" y="303"/>
      <point x="1195" y="281"/>
      <point x="1157" y="281" type="curve" smooth="yes"/>
      <point x="1124" y="281"/>
      <point x="1101" y="305"/>
      <point x="1101" y="338" type="curve" smooth="yes"/>
      <point x="1101" y="379"/>
      <point x="1120" y="402"/>
      <point x="1149" y="430" type="curve"/>
      <point x="1042" y="438" type="line"/>
      <point x="1022" y="409"/>
      <point x="1001" y="377"/>
      <point x="1001" y="323" type="curve" smooth="yes"/>
      <point x="1001" y="270"/>
      <point x="1033" y="184"/>
    </contour>
  </outline>
</glyph>
<glyph name="lvocalicvowelsigntelu" format="2">
  <unicode hex="0C62"/>
  <outline>
    <contour>
      <point x="-213" y="-468" type="curve" smooth="yes"/>
      <point x="-72" y="-468"/>
      <point x="27" y="-380"/>
      <point x="27" y="-250" type="curve" smooth="yes"/>
      <point x="27" y="-167"/>
      <point x="-10" y="-99"/>
      <point x="-80" y="-54" type="curve"/>
      <point x="-150" y="-125" type="line"/>
      <point x="-109" y="-151"/>
      <point x="-79" y="-203"/>
      <point x="-79" y="-250" type="curve" smooth="yes"/>
      <point x="-79" y="-337"/>
      <point x="-142" y="-382"/>
      <point x="-208" y="-382" type="curve" smooth="yes"/>
      <point x="-245" y="-382"/>
      <point x="-262" y="-368"/>
      <point x="-262" y="-341" type="curve" smooth="yes"/>
      <point x="-262" y="-325"/>
      <point x="-255" y="-311"/>
      <point x="-231" y="-284" type="curve" smooth="yes"/>
      <point x="-180" y="-227"/>
      <point x="-164" y="-200"/>
      <point x="-164" y="-154" type="curve" smooth="yes"/>
      <point x="-164" y="-112"/>
      <point x="-191" y="-54"/>
      <point x="-283" y="-54" type="curve" smooth="yes"/>
      <point x="-338" y="-54"/>
      <point x="-377" y="-75"/>
      <point x="-411" y="-127" type="curve"/>
      <point x="-391" y="-126" type="line"/>
      <point x="-425" y="-78"/>
      <point x="-454" y="-54"/>
      <point x="-513" y="-54" type="curve" smooth="yes"/>
      <point x="-589" y="-54"/>
      <point x="-631" y="-100"/>
      <point x="-631" y="-152" type="curve" smooth="yes"/>
      <point x="-631" y="-185"/>
      <point x="-623" y="-210"/>
      <point x="-613" y="-233" type="curve"/>
      <point x="-515" y="-208" type="line"/>
      <point x="-523" y="-194"/>
      <point x="-526" y="-181"/>
      <point x="-526" y="-172" type="curve" smooth="yes"/>
      <point x="-526" y="-153"/>
      <point x="-517" y="-138"/>
      <point x="-496" y="-138" type="curve" smooth="yes"/>
      <point x="-470" y="-138"/>
      <point x="-452" y="-159"/>
      <point x="-450" y="-202" type="curve"/>
      <point x="-352" y="-202" type="line"/>
      <point x="-347" y="-163"/>
      <point x="-327" y="-138"/>
      <point x="-293" y="-138" type="curve" smooth="yes"/>
      <point x="-277" y="-138"/>
      <point x="-265" y="-147"/>
      <point x="-265" y="-164" type="curve" smooth="yes"/>
      <point x="-265" y="-182"/>
      <point x="-281" y="-202"/>
      <point x="-297" y="-219" type="curve" smooth="yes"/>
      <point x="-344" y="-270"/>
      <point x="-364" y="-307"/>
      <point x="-364" y="-352" type="curve" smooth="yes"/>
      <point x="-364" y="-422"/>
      <point x="-314" y="-468"/>
    </contour>
  </outline>
</glyph>
<glyph name="llvocalicvowelsigntelu" format="2">
  <advance width="389"/>
  <unicode hex="0C63"/>
  <outline>
    <contour>
      <point x="-213" y="-468" type="curve" smooth="yes"/>
      <point x="-72" y="-468"/>
      <point x="27" y="-380"/>
      <point x="27" y="-250" type="curve" smooth="yes"/>
      <point x="27" y="-167"/>
      <point x="-23" y="-105"/>
      <point x="-94" y="-54" type="curve"/>
      <point x="-150" y="-125" type="line"/>
      <point x="-109" y="-151"/>
      <point x="-79" y="-203"/>
      <point x="-79" y="-250" type="curve" smooth="yes"/>
      <point x="-79" y="-337"/>
      <point x="-142" y="-382"/>
      <point x="-208" y="-382" type="curve" smooth="yes"/>
      <point x="-245" y="-382"/>
      <point x="-262" y="-368"/>
      <point x="-262" y="-341" type="curve" smooth="yes"/>
      <point x="-262" y="-325"/>
      <point x="-255" y="-311"/>
      <point x="-231" y="-284" type="curve" smooth="yes"/>
      <point x="-180" y="-227"/>
      <point x="-164" y="-200"/>
      <point x="-164" y="-154" type="curve" smooth="yes"/>
      <point x="-164" y="-112"/>
      <point x="-191" y="-54"/>
      <point x="-283" y="-54" type="curve" smooth="yes"/>
      <point x="-338" y="-54"/>
      <point x="-377" y="-75"/>
      <point x="-411" y="-127" type="curve"/>
      <point x="-391" y="-126" type="line"/>
      <point x="-425" y="-78"/>
      <point x="-454" y="-54"/>
      <point x="-513" y="-54" type="curve" smooth="yes"/>
      <point x="-589" y="-54"/>
      <point x="-631" y="-100"/>
      <point x="-631" y="-152" type="curve" smooth="yes"/>
      <point x="-631" y="-185"/>
      <point x="-624" y="-210"/>
      <point x="-614" y="-233" type="curve"/>
      <point x="-515" y="-208" type="line"/>
      <point x="-523" y="-194"/>
      <point x="-526" y="-181"/>
      <point x="-526" y="-172" type="curve" smooth="yes"/>
      <point x="-526" y="-153"/>
      <point x="-517" y="-138"/>
      <point x="-496" y="-138" type="curve" smooth="yes"/>
      <point x="-470" y="-138"/>
      <point x="-452" y="-159"/>
      <point x="-450" y="-202" type="curve"/>
      <point x="-352" y="-202" type="line"/>
      <point x="-347" y="-163"/>
      <point x="-327" y="-138"/>
      <point x="-293" y="-138" type="curve" smooth="yes"/>
      <point x="-277" y="-138"/>
      <point x="-265" y="-147"/>
      <point x="-265" y="-164" type="curve" smooth="yes"/>
      <point x="-265" y="-182"/>
      <point x="-281" y="-202"/>
      <point x="-297" y="-219" type="curve" smooth="yes"/>
      <point x="-344" y="-270"/>
      <point x="-364" y="-307"/>
      <point x="-364" y="-352" type="curve" smooth="yes"/>
      <point x="-364" y="-422"/>
      <point x="-314" y="-468"/>
    </contour>
    <contour>
      <point x="238" y="-325" type="curve" smooth="yes"/>
      <point x="330" y="-325"/>
      <point x="389" y="-270"/>
      <point x="389" y="-195" type="curve" smooth="yes"/>
      <point x="389" y="-145"/>
      <point x="369" y="-112"/>
      <point x="341" y="-91" type="curve" smooth="yes"/>
      <point x="301" y="-60"/>
      <point x="254" y="-54"/>
      <point x="150" y="-54" type="curve" smooth="yes"/>
      <point x="-94" y="-54" type="line"/>
      <point x="-90" y="-139" type="line"/>
      <point x="211" y="-139" type="line" smooth="yes"/>
      <point x="263" y="-139"/>
      <point x="294" y="-153"/>
      <point x="294" y="-192" type="curve" smooth="yes"/>
      <point x="294" y="-220"/>
      <point x="277" y="-242"/>
      <point x="243" y="-242" type="curve" smooth="yes"/>
      <point x="208" y="-242"/>
      <point x="186" y="-218"/>
      <point x="186" y="-186" type="curve" smooth="yes"/>
      <point x="186" y="-146"/>
      <point x="205" y="-123"/>
      <point x="234" y="-96" type="curve"/>
      <point x="131" y="-88" type="line"/>
      <point x="112" y="-114"/>
      <point x="91" y="-145"/>
      <point x="91" y="-195" type="curve" smooth="yes"/>
      <point x="91" y="-248"/>
      <point x="123" y="-325"/>
    </contour>
  </outline>
</glyph>
<glyph name="zerotelu" format="2">
  <advance width="724"/>
  <unicode hex="0C66"/>
  <outline>
    <contour>
      <point x="42" y="312" type="curve" smooth="yes"/>
      <point x="42" y="126"/>
      <point x="151" y="-12"/>
      <point x="361" y="-12" type="curve" smooth="yes"/>
      <point x="570" y="-12"/>
      <point x="682" y="115"/>
      <point x="682" y="312" type="curve" smooth="yes"/>
      <point x="682" y="500"/>
      <point x="564" y="633"/>
      <point x="361" y="633" type="curve" smooth="yes"/>
      <point x="154" y="633"/>
      <point x="42" y="500"/>
    </contour>
    <contour>
      <point x="192" y="310" type="curve" smooth="yes"/>
      <point x="192" y="434"/>
      <point x="248" y="512"/>
      <point x="361" y="512" type="curve" smooth="yes"/>
      <point x="474" y="512"/>
      <point x="532" y="434"/>
      <point x="532" y="310" type="curve" smooth="yes"/>
      <point x="532" y="186"/>
      <point x="475" y="109"/>
      <point x="361" y="109" type="curve" smooth="yes"/>
      <point x="246" y="109"/>
      <point x="192" y="186"/>
    </contour>
  </outline>
</glyph>
<glyph name="onetelu" format="2">
  <advance width="707"/>
  <unicode hex="0C67"/>
  <outline>
    <contour>
      <point x="353" y="633" type="curve" smooth="yes"/>
      <point x="137" y="633"/>
      <point x="42" y="490"/>
      <point x="42" y="315" type="curve" smooth="yes"/>
      <point x="42" y="188"/>
      <point x="81" y="86"/>
      <point x="129" y="-8" type="curve"/>
      <point x="276" y="45" type="line"/>
      <point x="231" y="117"/>
      <point x="191" y="203"/>
      <point x="191" y="313" type="curve" smooth="yes"/>
      <point x="191" y="434"/>
      <point x="248" y="512"/>
      <point x="351" y="512" type="curve" smooth="yes"/>
      <point x="478" y="512"/>
      <point x="515" y="418"/>
      <point x="515" y="313" type="curve" smooth="yes"/>
      <point x="515" y="201"/>
      <point x="472" y="109"/>
      <point x="430" y="45" type="curve"/>
      <point x="577" y="-8" type="line"/>
      <point x="620" y="75"/>
      <point x="665" y="173"/>
      <point x="665" y="317" type="curve" smooth="yes"/>
      <point x="665" y="513"/>
      <point x="547" y="633"/>
    </contour>
  </outline>
</glyph>
<glyph name="twotelu" format="2">
  <advance width="810"/>
  <unicode hex="0C68"/>
  <outline>
    <contour>
      <point x="462" y="633" type="curve" smooth="yes"/>
      <point x="319" y="633"/>
      <point x="248" y="563"/>
      <point x="248" y="465" type="curve" smooth="yes"/>
      <point x="248" y="371"/>
      <point x="311" y="305"/>
      <point x="417" y="305" type="curve" smooth="yes"/>
      <point x="524" y="305"/>
      <point x="578" y="365"/>
      <point x="578" y="445" type="curve" smooth="yes"/>
      <point x="578" y="462"/>
      <point x="576" y="475"/>
      <point x="568" y="499" type="curve"/>
      <point x="540" y="522" type="line"/>
      <point x="432" y="566" type="line"/>
      <point x="450" y="549"/>
      <point x="479" y="517"/>
      <point x="479" y="471" type="curve" smooth="yes"/>
      <point x="479" y="435"/>
      <point x="458" y="412"/>
      <point x="422" y="412" type="curve" smooth="yes"/>
      <point x="385" y="412"/>
      <point x="364" y="432"/>
      <point x="364" y="465" type="curve" smooth="yes"/>
      <point x="364" y="495"/>
      <point x="381" y="521"/>
      <point x="448" y="521" type="curve" smooth="yes"/>
      <point x="469" y="521"/>
      <point x="492" y="518"/>
      <point x="513" y="508" type="curve"/>
      <point x="576" y="490"/>
      <point x="618" y="423"/>
      <point x="618" y="318" type="curve" smooth="yes"/>
      <point x="618" y="251"/>
      <point x="599" y="207"/>
      <point x="567" y="178" type="curve" smooth="yes"/>
      <point x="521" y="135"/>
      <point x="459" y="123"/>
      <point x="321" y="123" type="curve" smooth="yes"/>
      <point x="15" y="123" type="line"/>
      <point x="15" y="0" type="line"/>
      <point x="356" y="0" type="line" smooth="yes"/>
      <point x="539" y="0"/>
      <point x="632" y="32"/>
      <point x="693" y="99" type="curve" smooth="yes"/>
      <point x="739" y="149"/>
      <point x="768" y="219"/>
      <point x="768" y="309" type="curve" smooth="yes"/>
      <point x="768" y="484"/>
      <point x="663" y="633"/>
    </contour>
  </outline>
</glyph>
<glyph name="threetelu" format="2">
  <advance width="573"/>
  <unicode hex="0C69"/>
  <outline>
    <contour>
      <point x="296" y="-12" type="curve" smooth="yes"/>
      <point x="469" y="-12"/>
      <point x="534" y="67"/>
      <point x="534" y="166" type="curve" smooth="yes"/>
      <point x="534" y="241"/>
      <point x="490" y="291"/>
      <point x="412" y="318" type="curve"/>
      <point x="410" y="305" type="line"/>
      <point x="502" y="337"/>
      <point x="534" y="393"/>
      <point x="534" y="462" type="curve" smooth="yes"/>
      <point x="534" y="567"/>
      <point x="452" y="633"/>
      <point x="297" y="633" type="curve" smooth="yes"/>
      <point x="164" y="633"/>
      <point x="67" y="587"/>
      <point x="12" y="552" type="curve"/>
      <point x="71" y="438" type="line"/>
      <point x="128" y="477"/>
      <point x="199" y="512"/>
      <point x="281" y="512" type="curve" smooth="yes"/>
      <point x="351" y="512"/>
      <point x="384" y="485"/>
      <point x="384" y="445" type="curve" smooth="yes"/>
      <point x="384" y="421"/>
      <point x="373" y="402"/>
      <point x="348" y="390" type="curve" smooth="yes"/>
      <point x="326" y="379"/>
      <point x="298" y="372"/>
      <point x="229" y="372" type="curve" smooth="yes"/>
      <point x="189" y="372" type="line"/>
      <point x="189" y="251" type="line"/>
      <point x="221" y="251" type="line" smooth="yes"/>
      <point x="299" y="251"/>
      <point x="332" y="245"/>
      <point x="354" y="231" type="curve" smooth="yes"/>
      <point x="374" y="219"/>
      <point x="384" y="202"/>
      <point x="384" y="179" type="curve" smooth="yes"/>
      <point x="384" y="139"/>
      <point x="356" y="109"/>
      <point x="287" y="109" type="curve" smooth="yes"/>
      <point x="192" y="109"/>
      <point x="124" y="146"/>
      <point x="71" y="185" type="curve"/>
      <point x="11" y="69" type="line"/>
      <point x="90" y="22"/>
      <point x="176" y="-12"/>
    </contour>
  </outline>
</glyph>
<glyph name="fourtelu" format="2">
  <advance width="735"/>
  <unicode hex="0C6A"/>
  <outline>
    <contour>
      <point x="366" y="-12" type="curve" smooth="yes"/>
      <point x="473" y="-12"/>
      <point x="556" y="21"/>
      <point x="556" y="113" type="curve" smooth="yes"/>
      <point x="556" y="176"/>
      <point x="502" y="214"/>
      <point x="458" y="229" type="curve"/>
      <point x="429" y="280" type="line"/>
      <point x="248" y="280"/>
      <point x="184" y="333"/>
      <point x="184" y="413" type="curve" smooth="yes"/>
      <point x="184" y="458"/>
      <point x="211" y="492"/>
      <point x="266" y="520" type="curve"/>
      <point x="198" y="633" type="line"/>
      <point x="83" y="582"/>
      <point x="34" y="500"/>
      <point x="34" y="412" type="curve" smooth="yes"/>
      <point x="34" y="285"/>
      <point x="126" y="196"/>
      <point x="284" y="178" type="curve"/>
      <point x="310" y="179" type="line"/>
      <point x="388" y="175"/>
      <point x="424" y="152"/>
      <point x="424" y="126" type="curve" smooth="yes"/>
      <point x="424" y="98"/>
      <point x="402" y="86"/>
      <point x="367" y="86" type="curve" smooth="yes"/>
      <point x="332" y="86"/>
      <point x="311" y="98"/>
      <point x="311" y="126" type="curve" smooth="yes"/>
      <point x="311" y="146"/>
      <point x="333" y="171"/>
      <point x="417" y="180" type="curve"/>
      <point x="451" y="178" type="line"/>
      <point x="616" y="199"/>
      <point x="701" y="288"/>
      <point x="701" y="412" type="curve" smooth="yes"/>
      <point x="701" y="500"/>
      <point x="646" y="588"/>
      <point x="537" y="633" type="curve"/>
      <point x="469" y="520" type="line"/>
      <point x="519" y="492"/>
      <point x="551" y="463"/>
      <point x="551" y="413" type="curve" smooth="yes"/>
      <point x="551" y="333"/>
      <point x="474" y="282"/>
      <point x="306" y="280" type="curve"/>
      <point x="301" y="277"/>
      <point x="290" y="233"/>
      <point x="285" y="231" type="curve"/>
      <point x="230" y="210"/>
      <point x="179" y="176"/>
      <point x="179" y="109" type="curve" smooth="yes"/>
      <point x="179" y="26"/>
      <point x="255" y="-12"/>
    </contour>
  </outline>
</glyph>
<glyph name="fivetelu" format="2">
  <advance width="772"/>
  <unicode hex="0C6B"/>
  <outline>
    <contour>
      <point x="265" y="-12" type="curve" smooth="yes"/>
      <point x="428" y="-12"/>
      <point x="539" y="96"/>
      <point x="539" y="310" type="curve" smooth="yes"/>
      <point x="539" y="536"/>
      <point x="410" y="633"/>
      <point x="257" y="633" type="curve" smooth="yes"/>
      <point x="159" y="633"/>
      <point x="85" y="607"/>
      <point x="11" y="563" type="curve"/>
      <point x="67" y="452" type="line"/>
      <point x="113" y="486"/>
      <point x="165" y="512"/>
      <point x="229" y="512" type="curve" smooth="yes"/>
      <point x="340" y="512"/>
      <point x="393" y="430"/>
      <point x="393" y="313" type="curve" smooth="yes"/>
      <point x="393" y="168"/>
      <point x="330" y="109"/>
      <point x="233" y="109" type="curve" smooth="yes"/>
      <point x="166" y="109"/>
      <point x="107" y="140"/>
      <point x="68" y="171" type="curve"/>
      <point x="11" y="56" type="line"/>
      <point x="77" y="17"/>
      <point x="149" y="-12"/>
    </contour>
    <contour>
      <point x="741" y="163" type="curve" smooth="yes"/>
      <point x="741" y="240"/>
      <point x="705" y="289"/>
      <point x="627" y="316" type="curve"/>
      <point x="628" y="304" type="line"/>
      <point x="700" y="331"/>
      <point x="741" y="375"/>
      <point x="741" y="458" type="curve" smooth="yes"/>
      <point x="741" y="523"/>
      <point x="708" y="583"/>
      <point x="655" y="632" type="curve"/>
      <point x="547" y="564" type="line"/>
      <point x="576" y="538"/>
      <point x="597" y="501"/>
      <point x="597" y="456" type="curve" smooth="yes"/>
      <point x="597" y="411"/>
      <point x="572" y="376"/>
      <point x="511" y="376" type="curve"/>
      <point x="510" y="243" type="line"/>
      <point x="576" y="240"/>
      <point x="597" y="202"/>
      <point x="597" y="163" type="curve" smooth="yes"/>
      <point x="597" y="115"/>
      <point x="579" y="86"/>
      <point x="547" y="57" type="curve"/>
      <point x="654" y="-12" type="line"/>
      <point x="704" y="33"/>
      <point x="741" y="93"/>
    </contour>
  </outline>
</glyph>
<glyph name="sixtelu" format="2">
  <advance width="722"/>
  <unicode hex="0C6C"/>
  <outline>
    <contour>
      <point x="39" y="165" type="curve" smooth="yes"/>
      <point x="39" y="119"/>
      <point x="58" y="78"/>
      <point x="91" y="52" type="curve" smooth="yes"/>
      <point x="139" y="14"/>
      <point x="208" y="0"/>
      <point x="339" y="0" type="curve" smooth="yes"/>
      <point x="707" y="0" type="line"/>
      <point x="707" y="122" type="line"/>
      <point x="330" y="122" type="line" smooth="yes"/>
      <point x="265" y="122"/>
      <point x="246" y="125"/>
      <point x="229" y="132" type="curve" smooth="yes"/>
      <point x="205" y="142"/>
      <point x="189" y="158"/>
      <point x="189" y="185" type="curve" smooth="yes"/>
      <point x="189" y="209"/>
      <point x="200" y="224"/>
      <point x="217" y="235" type="curve" smooth="yes"/>
      <point x="234" y="245"/>
      <point x="253" y="248"/>
      <point x="303" y="248" type="curve" smooth="yes"/>
      <point x="488" y="248" type="line"/>
      <point x="488" y="371" type="line"/>
      <point x="331" y="371" type="line" smooth="yes"/>
      <point x="275" y="371"/>
      <point x="251" y="375"/>
      <point x="235" y="381" type="curve" smooth="yes"/>
      <point x="212" y="390"/>
      <point x="198" y="406"/>
      <point x="198" y="434" type="curve" smooth="yes"/>
      <point x="198" y="459"/>
      <point x="208" y="473"/>
      <point x="226" y="483" type="curve" smooth="yes"/>
      <point x="242" y="493"/>
      <point x="266" y="497"/>
      <point x="301" y="497" type="curve" smooth="yes"/>
      <point x="329" y="497" type="line"/>
      <point x="329" y="620" type="line"/>
      <point x="322" y="620" type="line" smooth="yes"/>
      <point x="207" y="620"/>
      <point x="162" y="605"/>
      <point x="117" y="577" type="curve" smooth="yes"/>
      <point x="77" y="552"/>
      <point x="48" y="506"/>
      <point x="48" y="450" type="curve" smooth="yes"/>
      <point x="48" y="377"/>
      <point x="82" y="333"/>
      <point x="140" y="300" type="curve"/>
      <point x="141" y="315" type="line"/>
      <point x="77" y="286"/>
      <point x="39" y="242"/>
    </contour>
  </outline>
</glyph>
<glyph name="seventelu" format="2">
  <advance width="622"/>
  <unicode hex="0C6D"/>
  <outline>
    <contour>
      <point x="304" y="-12" type="curve" smooth="yes"/>
      <point x="538" y="-12"/>
      <point x="592" y="62"/>
      <point x="592" y="156" type="curve" smooth="yes"/>
      <point x="592" y="198"/>
      <point x="579" y="226"/>
      <point x="563" y="254" type="curve"/>
      <point x="429" y="217" type="line"/>
      <point x="434" y="207"/>
      <point x="442" y="189"/>
      <point x="442" y="173" type="curve" smooth="yes"/>
      <point x="442" y="135"/>
      <point x="416" y="106"/>
      <point x="307" y="106" type="curve" smooth="yes"/>
      <point x="227" y="106"/>
      <point x="188" y="130"/>
      <point x="188" y="167" type="curve" smooth="yes"/>
      <point x="188" y="216"/>
      <point x="225" y="231"/>
      <point x="356" y="270" type="curve" smooth="yes"/>
      <point x="528" y="322"/>
      <point x="578" y="364"/>
      <point x="578" y="465" type="curve" smooth="yes"/>
      <point x="578" y="543"/>
      <point x="530" y="633"/>
      <point x="317" y="633" type="curve" smooth="yes"/>
      <point x="122" y="633"/>
      <point x="48" y="556"/>
      <point x="48" y="476" type="curve" smooth="yes"/>
      <point x="48" y="442"/>
      <point x="60" y="402"/>
      <point x="76" y="375" type="curve"/>
      <point x="210" y="422" type="line"/>
      <point x="204" y="434"/>
      <point x="198" y="449"/>
      <point x="198" y="468" type="curve" smooth="yes"/>
      <point x="198" y="496"/>
      <point x="230" y="515"/>
      <point x="322" y="515" type="curve" smooth="yes"/>
      <point x="400" y="515"/>
      <point x="428" y="496"/>
      <point x="428" y="463" type="curve" smooth="yes"/>
      <point x="428" y="431"/>
      <point x="406" y="416"/>
      <point x="272" y="379" type="curve" smooth="yes"/>
      <point x="113" y="335"/>
      <point x="38" y="277"/>
      <point x="38" y="170" type="curve" smooth="yes"/>
      <point x="38" y="72"/>
      <point x="100" y="-12"/>
    </contour>
  </outline>
</glyph>
<glyph name="eighttelu" format="2">
  <advance width="828"/>
  <unicode hex="0C6E"/>
  <outline>
    <contour>
      <point x="352" y="-12" type="curve" smooth="yes"/>
      <point x="573" y="-12"/>
      <point x="665" y="120"/>
      <point x="665" y="274" type="curve" smooth="yes"/>
      <point x="665" y="362"/>
      <point x="638" y="444"/>
      <point x="580" y="498" type="curve"/>
      <point x="813" y="498" type="line"/>
      <point x="813" y="620" type="line"/>
      <point x="451" y="620" type="line"/>
      <point x="404" y="508" type="line"/>
      <point x="481" y="447"/>
      <point x="515" y="375"/>
      <point x="515" y="284" type="curve" smooth="yes"/>
      <point x="515" y="172"/>
      <point x="450" y="109"/>
      <point x="353" y="109" type="curve" smooth="yes"/>
      <point x="228" y="109"/>
      <point x="191" y="202"/>
      <point x="191" y="284" type="curve" smooth="yes"/>
      <point x="191" y="380"/>
      <point x="231" y="445"/>
      <point x="285" y="495" type="curve"/>
      <point x="155" y="570" type="line"/>
      <point x="84" y="494"/>
      <point x="42" y="393"/>
      <point x="42" y="281" type="curve" smooth="yes"/>
      <point x="42" y="106"/>
      <point x="155" y="-12"/>
    </contour>
  </outline>
</glyph>
<glyph name="ninetelu" format="2">
  <advance width="722"/>
  <unicode hex="0C6F"/>
  <outline>
    <contour>
      <point x="48" y="170" type="curve" smooth="yes"/>
      <point x="48" y="114"/>
      <point x="77" y="68"/>
      <point x="117" y="43" type="curve" smooth="yes"/>
      <point x="162" y="15"/>
      <point x="207" y="0"/>
      <point x="322" y="0" type="curve" smooth="yes"/>
      <point x="329" y="0" type="line"/>
      <point x="329" y="123" type="line"/>
      <point x="301" y="123" type="line" smooth="yes"/>
      <point x="266" y="123"/>
      <point x="242" y="127"/>
      <point x="226" y="137" type="curve" smooth="yes"/>
      <point x="208" y="147"/>
      <point x="198" y="161"/>
      <point x="198" y="187" type="curve" smooth="yes"/>
      <point x="198" y="214"/>
      <point x="212" y="230"/>
      <point x="235" y="239" type="curve" smooth="yes"/>
      <point x="251" y="246"/>
      <point x="275" y="249"/>
      <point x="331" y="249" type="curve" smooth="yes"/>
      <point x="488" y="249" type="line"/>
      <point x="488" y="372" type="line"/>
      <point x="303" y="372" type="line" smooth="yes"/>
      <point x="253" y="372"/>
      <point x="234" y="375"/>
      <point x="217" y="385" type="curve" smooth="yes"/>
      <point x="200" y="396"/>
      <point x="189" y="411"/>
      <point x="189" y="435" type="curve" smooth="yes"/>
      <point x="189" y="462"/>
      <point x="205" y="479"/>
      <point x="229" y="488" type="curve" smooth="yes"/>
      <point x="246" y="495"/>
      <point x="265" y="498"/>
      <point x="330" y="498" type="curve" smooth="yes"/>
      <point x="707" y="498" type="line"/>
      <point x="707" y="620" type="line"/>
      <point x="339" y="620" type="line" smooth="yes"/>
      <point x="208" y="620"/>
      <point x="139" y="605"/>
      <point x="91" y="568" type="curve" smooth="yes"/>
      <point x="58" y="542"/>
      <point x="39" y="501"/>
      <point x="39" y="455" type="curve" smooth="yes"/>
      <point x="39" y="378"/>
      <point x="78" y="334"/>
      <point x="141" y="305" type="curve"/>
      <point x="140" y="320" type="line"/>
      <point x="82" y="287"/>
      <point x="48" y="243"/>
    </contour>
  </outline>
</glyph>
<glyph name="uni0C77" format="2">
  <advance width="1125"/>
  <unicode hex="0C77"/>
  <outline>
    <contour>
      <point x="184" y="506" type="curve"/>
      <point x="62" y="513" type="line"/>
      <point x="48" y="443"/>
      <point x="42" y="380"/>
      <point x="42" y="319" type="curve" smooth="yes"/>
      <point x="42" y="-25"/>
      <point x="257" y="-223"/>
      <point x="573" y="-223" type="curve" smooth="yes"/>
      <point x="882" y="-223"/>
      <point x="1083" y="-61"/>
      <point x="1083" y="248" type="curve" smooth="yes"/>
      <point x="1083" y="535"/>
      <point x="894" y="691"/>
      <point x="652" y="691" type="curve" smooth="yes"/>
      <point x="421" y="691"/>
      <point x="261" y="552"/>
      <point x="261" y="334" type="curve" smooth="yes"/>
      <point x="261" y="141"/>
      <point x="387" y="20"/>
      <point x="575" y="20" type="curve" smooth="yes"/>
      <point x="754" y="20"/>
      <point x="869" y="113"/>
      <point x="869" y="268" type="curve" smooth="yes"/>
      <point x="869" y="398"/>
      <point x="775" y="490"/>
      <point x="647" y="490" type="curve" smooth="yes"/>
      <point x="532" y="490"/>
      <point x="456" y="422"/>
      <point x="456" y="334" type="curve" smooth="yes"/>
      <point x="456" y="246"/>
      <point x="517" y="189"/>
      <point x="600" y="189" type="curve" smooth="yes"/>
      <point x="652" y="189"/>
      <point x="681" y="202"/>
      <point x="701" y="217" type="curve"/>
      <point x="659" y="308" type="line"/>
      <point x="644" y="299"/>
      <point x="633" y="295"/>
      <point x="616" y="295" type="curve" smooth="yes"/>
      <point x="594" y="295"/>
      <point x="575" y="306"/>
      <point x="575" y="336" type="curve" smooth="yes"/>
      <point x="575" y="369"/>
      <point x="601" y="386"/>
      <point x="640" y="386" type="curve" smooth="yes"/>
      <point x="707" y="386"/>
      <point x="747" y="344"/>
      <point x="747" y="268" type="curve" smooth="yes"/>
      <point x="747" y="174"/>
      <point x="687" y="125"/>
      <point x="575" y="125" type="curve" smooth="yes"/>
      <point x="457" y="125"/>
      <point x="383" y="201"/>
      <point x="383" y="332" type="curve" smooth="yes"/>
      <point x="383" y="507"/>
      <point x="502" y="584"/>
      <point x="652" y="584" type="curve" smooth="yes"/>
      <point x="832" y="584"/>
      <point x="958" y="465"/>
      <point x="958" y="249" type="curve" smooth="yes"/>
      <point x="958" y="12"/>
      <point x="808" y="-112"/>
      <point x="575" y="-112" type="curve" smooth="yes"/>
      <point x="328" y="-112"/>
      <point x="164" y="39"/>
      <point x="164" y="324" type="curve" smooth="yes"/>
      <point x="164" y="392"/>
      <point x="169" y="446"/>
    </contour>
  </outline>
</glyph>
<glyph name="uni0C78" format="2">
  <advance width="676"/>
  <unicode hex="0C78"/>
  <outline>
    <contour>
      <point x="39" y="369" type="curve" smooth="yes"/>
      <point x="39" y="218"/>
      <point x="155" y="121"/>
      <point x="334" y="121" type="curve" smooth="yes"/>
      <point x="514" y="121"/>
      <point x="629" y="220"/>
      <point x="629" y="371" type="curve" smooth="yes"/>
      <point x="629" y="531"/>
      <point x="511" y="633"/>
      <point x="334" y="633" type="curve" smooth="yes"/>
      <point x="158" y="633"/>
      <point x="39" y="527"/>
    </contour>
    <contour>
      <point x="189" y="377" type="curve" smooth="yes"/>
      <point x="189" y="450"/>
      <point x="235" y="512"/>
      <point x="334" y="512" type="curve" smooth="yes"/>
      <point x="432" y="512"/>
      <point x="479" y="450"/>
      <point x="479" y="374" type="curve" smooth="yes"/>
      <point x="479" y="297"/>
      <point x="430" y="242"/>
      <point x="334" y="242" type="curve" smooth="yes"/>
      <point x="238" y="242"/>
      <point x="189" y="298"/>
    </contour>
    <contour>
      <point x="637" y="93" type="curve" smooth="yes"/>
      <point x="637" y="155"/>
      <point x="604" y="211"/>
      <point x="541" y="261" type="curve"/>
      <point x="416" y="183" type="line"/>
      <point x="467" y="148"/>
      <point x="487" y="130"/>
      <point x="487" y="101" type="curve" smooth="yes"/>
      <point x="487" y="59"/>
      <point x="446" y="32"/>
      <point x="354" y="-2" type="curve"/>
      <point x="418" y="-123" type="line"/>
      <point x="556" y="-69"/>
      <point x="637" y="-16"/>
    </contour>
  </outline>
</glyph>
<glyph name="uni0C79" format="2">
  <advance width="307"/>
  <unicode hex="0C79"/>
  <outline>
    <contour>
      <point x="229" y="0" type="line"/>
      <point x="229" y="620" type="line"/>
      <point x="78" y="620" type="line"/>
      <point x="78" y="0" type="line"/>
    </contour>
  </outline>
</glyph>
<glyph name="uni0C7A" format="2">
  <advance width="545"/>
  <unicode hex="0C7A"/>
  <outline>
    <contour>
      <point x="244" y="199" type="curve" smooth="yes"/>
      <point x="316" y="199"/>
      <point x="361" y="234"/>
      <point x="397" y="277" type="curve"/>
      <point x="450" y="379" type="line"/>
      <point x="450" y="620" type="line"/>
      <point x="316" y="620" type="line"/>
      <point x="316" y="421" type="line" smooth="yes"/>
      <point x="316" y="371"/>
      <point x="313" y="354"/>
      <point x="305" y="340" type="curve" smooth="yes"/>
      <point x="296" y="323"/>
      <point x="282" y="316"/>
      <point x="261" y="316" type="curve" smooth="yes"/>
      <point x="241" y="316"/>
      <point x="227" y="324"/>
      <point x="219" y="342" type="curve" smooth="yes"/>
      <point x="212" y="357"/>
      <point x="208" y="375"/>
      <point x="208" y="431" type="curve" smooth="yes"/>
      <point x="208" y="620" type="line"/>
      <point x="59" y="620" type="line"/>
      <point x="59" y="406" type="line" smooth="yes"/>
      <point x="59" y="312"/>
      <point x="77" y="269"/>
      <point x="113" y="239" type="curve" smooth="yes"/>
      <point x="143" y="213"/>
      <point x="186" y="199"/>
    </contour>
    <contour>
      <point x="467" y="0" type="line"/>
      <point x="467" y="620" type="line"/>
      <point x="316" y="620" type="line"/>
      <point x="316" y="0" type="line"/>
    </contour>
  </outline>
</glyph>
<glyph name="uni0C7B" format="2">
  <advance width="764"/>
  <unicode hex="0C7B"/>
  <outline>
    <contour>
      <point x="475" y="199" type="curve" smooth="yes"/>
      <point x="544" y="199"/>
      <point x="587" y="230"/>
      <point x="622" y="273" type="curve"/>
      <point x="673" y="379" type="line"/>
      <point x="673" y="620" type="line"/>
      <point x="535" y="620" type="line"/>
      <point x="535" y="410" type="line" smooth="yes"/>
      <point x="535" y="365"/>
      <point x="531" y="350"/>
      <point x="525" y="337" type="curve" smooth="yes"/>
      <point x="518" y="322"/>
      <point x="506" y="316"/>
      <point x="489" y="316" type="curve" smooth="yes"/>
      <point x="473" y="316"/>
      <point x="461" y="323"/>
      <point x="455" y="337" type="curve" smooth="yes"/>
      <point x="449" y="350"/>
      <point x="446" y="364"/>
      <point x="446" y="410" type="curve" smooth="yes"/>
      <point x="446" y="620" type="line"/>
      <point x="296" y="620" type="line"/>
      <point x="296" y="427" type="line" smooth="yes"/>
      <point x="296" y="321"/>
      <point x="315" y="277"/>
      <point x="349" y="243" type="curve" smooth="yes"/>
      <point x="378" y="215"/>
      <point x="419" y="199"/>
    </contour>
    <contour>
      <point x="686" y="0" type="line"/>
      <point x="686" y="620" type="line"/>
      <point x="535" y="620" type="line"/>
      <point x="535" y="0" type="line"/>
    </contour>
    <contour>
      <point x="237" y="199" type="curve" smooth="yes"/>
      <point x="306" y="199"/>
      <point x="349" y="230"/>
      <point x="384" y="273" type="curve"/>
      <point x="436" y="379" type="line"/>
      <point x="436" y="620" type="line"/>
      <point x="297" y="620" type="line"/>
      <point x="297" y="410" type="line" smooth="yes"/>
      <point x="297" y="365"/>
      <point x="294" y="350"/>
      <point x="288" y="337" type="curve" smooth="yes"/>
      <point x="281" y="322"/>
      <point x="269" y="316"/>
      <point x="251" y="316" type="curve" smooth="yes"/>
      <point x="235" y="316"/>
      <point x="224" y="323"/>
      <point x="217" y="337" type="curve" smooth="yes"/>
      <point x="211" y="350"/>
      <point x="208" y="364"/>
      <point x="208" y="410" type="curve" smooth="yes"/>
      <point x="208" y="620" type="line"/>
      <point x="59" y="620" type="line"/>
      <point x="59" y="427" type="line" smooth="yes"/>
      <point x="59" y="326"/>
      <point x="76" y="276"/>
      <point x="111" y="243" type="curve" smooth="yes"/>
      <point x="141" y="214"/>
      <point x="181" y="199"/>
    </contour>
  </outline>
</glyph>
<glyph name="uni0C7C" format="2">
  <advance width="635"/>
  <unicode hex="0C7C"/>
  <outline>
    <contour>
      <point x="32" y="254" type="line"/>
      <point x="603" y="254" type="line"/>
      <point x="603" y="375" type="line"/>
      <point x="32" y="375" type="line"/>
    </contour>
  </outline>
</glyph>
<glyph name="uni0C7D" format="2">
  <advance width="617"/>
  <unicode hex="0C7D"/>
  <outline>
    <contour>
      <point x="42" y="133" type="curve" smooth="yes"/>
      <point x="42" y="96"/>
      <point x="56" y="61"/>
      <point x="89" y="36" type="curve" smooth="yes"/>
      <point x="118" y="14"/>
      <point x="156" y="0"/>
      <point x="266" y="0" type="curve" smooth="yes"/>
      <point x="603" y="0" type="line"/>
      <point x="603" y="108" type="line"/>
      <point x="269" y="108" type="line" smooth="yes"/>
      <point x="216" y="108"/>
      <point x="191" y="115"/>
      <point x="191" y="144" type="curve" smooth="yes"/>
      <point x="191" y="171"/>
      <point x="221" y="181"/>
      <point x="350" y="206" type="curve" smooth="yes"/>
      <point x="478" y="230"/>
      <point x="570" y="264"/>
      <point x="570" y="373" type="curve" smooth="yes"/>
      <point x="570" y="414"/>
      <point x="555" y="445"/>
      <point x="522" y="467" type="curve" smooth="yes"/>
      <point x="493" y="487"/>
      <point x="456" y="500"/>
      <point x="340" y="500" type="curve" smooth="yes"/>
      <point x="42" y="500" type="line"/>
      <point x="42" y="395" type="line"/>
      <point x="352" y="395" type="line" smooth="yes"/>
      <point x="389" y="395"/>
      <point x="420" y="392"/>
      <point x="420" y="362" type="curve" smooth="yes"/>
      <point x="420" y="337"/>
      <point x="387" y="328"/>
      <point x="280" y="307" type="curve" smooth="yes"/>
      <point x="142" y="279"/>
      <point x="42" y="242"/>
    </contour>
  </outline>
</glyph>
<glyph name="uni0C7E" format="2">
  <advance width="617"/>
  <unicode hex="0C7E"/>
  <outline>
    <contour>
      <point x="42" y="94" type="curve"/>
      <point x="42" y="62"/>
      <point x="57" y="39"/>
      <point x="83" y="24" type="curve" smooth="yes"/>
      <point x="113" y="7"/>
      <point x="154" y="0"/>
      <point x="230" y="0" type="curve" smooth="yes"/>
      <point x="603" y="0" type="line"/>
      <point x="603" y="99" type="line"/>
      <point x="213" y="99" type="line" smooth="yes"/>
      <point x="197" y="99"/>
      <point x="191" y="101"/>
      <point x="191" y="108" type="curve" smooth="yes"/>
      <point x="191" y="115"/>
      <point x="194" y="116"/>
      <point x="326" y="140" type="curve" smooth="yes"/>
      <point x="536" y="179"/>
      <point x="570" y="206"/>
      <point x="570" y="270" type="curve" smooth="yes"/>
      <point x="570" y="299"/>
      <point x="558" y="319"/>
      <point x="538" y="334" type="curve" smooth="yes"/>
      <point x="507" y="357"/>
      <point x="463" y="366"/>
      <point x="379" y="366" type="curve" smooth="yes"/>
      <point x="224" y="366" type="line" smooth="yes"/>
      <point x="203" y="366"/>
      <point x="191" y="370"/>
      <point x="191" y="378" type="curve" smooth="yes"/>
      <point x="191" y="387"/>
      <point x="201" y="389"/>
      <point x="363" y="417" type="curve" smooth="yes"/>
      <point x="548" y="449"/>
      <point x="570" y="480"/>
      <point x="570" y="542" type="curve" smooth="yes"/>
      <point x="570" y="571"/>
      <point x="558" y="591"/>
      <point x="539" y="604" type="curve" smooth="yes"/>
      <point x="504" y="626"/>
      <point x="458" y="633"/>
      <point x="372" y="633" type="curve" smooth="yes"/>
      <point x="42" y="633" type="line"/>
      <point x="42" y="538" type="line"/>
      <point x="388" y="538" type="line" smooth="yes"/>
      <point x="406" y="538"/>
      <point x="420" y="538"/>
      <point x="420" y="529" type="curve" smooth="yes"/>
      <point x="420" y="523"/>
      <point x="417" y="521"/>
      <point x="270" y="495" type="curve" smooth="yes"/>
      <point x="91" y="464"/>
      <point x="42" y="438"/>
      <point x="42" y="366" type="curve" smooth="yes"/>
      <point x="42" y="333"/>
      <point x="58" y="310"/>
      <point x="82" y="294" type="curve" smooth="yes"/>
      <point x="111" y="275"/>
      <point x="151" y="270"/>
      <point x="235" y="270" type="curve" smooth="yes"/>
      <point x="387" y="270" type="line" smooth="yes"/>
      <point x="408" y="270"/>
      <point x="420" y="270"/>
      <point x="420" y="262" type="curve" smooth="yes"/>
      <point x="420" y="251"/>
      <point x="414" y="250"/>
      <point x="265" y="224" type="curve" smooth="yes"/>
      <point x="86" y="192"/>
      <point x="42" y="164"/>
    </contour>
  </outline>
</glyph>
<glyph name="uni0C7F" format="2">
  <advance width="795"/>
  <unicode hex="0C7F"/>
  <outline>
    <contour>
      <point x="353" y="-12" type="curve" smooth="yes"/>
      <point x="600" y="-12"/>
      <point x="712" y="117"/>
      <point x="775" y="289" type="curve"/>
      <point x="631" y="337" type="line"/>
      <point x="579" y="194"/>
      <point x="502" y="109"/>
      <point x="355" y="109" type="curve" smooth="yes"/>
      <point x="247" y="109"/>
      <point x="172" y="169"/>
      <point x="172" y="256" type="curve" smooth="yes"/>
      <point x="172" y="287" type="line" smooth="yes"/>
      <point x="172" y="347"/>
      <point x="200" y="398"/>
      <point x="258" y="398" type="curve" smooth="yes"/>
      <point x="289" y="398"/>
      <point x="305" y="378"/>
      <point x="305" y="355" type="curve" smooth="yes"/>
      <point x="305" y="319"/>
      <point x="277" y="305"/>
      <point x="235" y="305" type="curve" smooth="yes"/>
      <point x="187" y="305"/>
      <point x="147" y="338"/>
      <point x="125" y="369" type="curve"/>
      <point x="102" y="272" type="line"/>
      <point x="131" y="245"/>
      <point x="183" y="205"/>
      <point x="260" y="205" type="curve" smooth="yes"/>
      <point x="374" y="205"/>
      <point x="438" y="258"/>
      <point x="438" y="356" type="curve" smooth="yes"/>
      <point x="438" y="440"/>
      <point x="376" y="500"/>
      <point x="267" y="500" type="curve" smooth="yes"/>
      <point x="136" y="500"/>
      <point x="40" y="411"/>
      <point x="40" y="263" type="curve" smooth="yes"/>
      <point x="40" y="97"/>
      <point x="157" y="-12"/>
    </contour>
  </outline>
</glyph>
<glyph name="uni1CDA" format="2">
  <unicode hex="1CDA"/>
  <outline>
    <contour>
      <point x="-312" y="599" type="line"/>
      <point x="-312" y="810" type="line"/>
      <point x="-403" y="810" type="line"/>
      <point x="-403" y="599" type="line"/>
    </contour>
    <contour>
      <point x="-169" y="599" type="line"/>
      <point x="-169" y="810" type="line"/>
      <point x="-260" y="810" type="line"/>
      <point x="-260" y="599" type="line"/>
    </contour>
  </outline>
</glyph>
<glyph name="uni1CF2" format="2">
  <advance width="516"/>
  <unicode hex="1CF2"/>
  <outline>
    <contour>
      <point x="258" y="244" type="curve" smooth="yes"/>
      <point x="366" y="244"/>
      <point x="445" y="294"/>
      <point x="495" y="425" type="curve"/>
      <point x="374" y="461" type="line"/>
      <point x="347" y="392"/>
      <point x="318" y="358"/>
      <point x="258" y="358" type="curve" smooth="yes"/>
      <point x="198" y="358"/>
      <point x="169" y="390"/>
      <point x="142" y="461" type="curve"/>
      <point x="21" y="425" type="line"/>
      <point x="71" y="294"/>
      <point x="150" y="244"/>
    </contour>
    <contour>
      <point x="258" y="213" type="curve" smooth="yes"/>
      <point x="150" y="213"/>
      <point x="71" y="163"/>
      <point x="21" y="32" type="curve"/>
      <point x="142" y="-4" type="line"/>
      <point x="169" y="66"/>
      <point x="198" y="99"/>
      <point x="258" y="99" type="curve" smooth="yes"/>
      <point x="318" y="99"/>
      <point x="347" y="67"/>
      <point x="374" y="-4" type="curve"/>
      <point x="495" y="32" type="line"/>
      <point x="445" y="163"/>
      <point x="366" y="213"/>
    </contour>
  </outline>
</glyph>
<glyph name="emdash.telu" format="2">
  <advance width="1000"/>
  <unicode hex="2014"/>
  <outline>
    <contour>
      <point x="40" y="192" type="line"/>
      <point x="960" y="192" type="line"/>
      <point x="960" y="314" type="line"/>
      <point x="40" y="314" type="line"/>
    </contour>
  </outline>
</glyph>
<glyph name="quoteleft.telu" format="2">
  <advance width="279"/>
  <unicode hex="2018"/>
  <outline>
    <contour>
      <point x="50" y="529" type="line"/>
      <point x="187" y="529" type="line"/>
      <point x="197" y="598"/>
      <point x="217" y="694"/>
      <point x="236" y="773" type="curve"/>
      <point x="129" y="773" type="line"/>
      <point x="96" y="701"/>
      <point x="61" y="610"/>
      <point x="43" y="540" type="curve"/>
    </contour>
  </outline>
</glyph>
<glyph name="quoteright.telu" format="2">
  <advance width="279"/>
  <unicode hex="2019"/>
  <outline>
    <contour>
      <point x="229" y="773" type="line"/>
      <point x="92" y="773" type="line"/>
      <point x="82" y="705"/>
      <point x="62" y="607"/>
      <point x="43" y="529" type="curve"/>
      <point x="150" y="529" type="line"/>
      <point x="183" y="602"/>
      <point x="218" y="691"/>
      <point x="236" y="763" type="curve"/>
    </contour>
  </outline>
</glyph>
<glyph name="quotedblleft.telu" format="2">
  <advance width="507"/>
  <unicode hex="201C"/>
  <outline>
    <contour>
      <point x="278" y="529" type="line"/>
      <point x="415" y="529" type="line"/>
      <point x="425" y="598"/>
      <point x="445" y="694"/>
      <point x="464" y="773" type="curve"/>
      <point x="357" y="773" type="line"/>
      <point x="324" y="701"/>
      <point x="289" y="610"/>
      <point x="271" y="540" type="curve"/>
    </contour>
    <contour>
      <point x="50" y="529" type="line"/>
      <point x="187" y="529" type="line"/>
      <point x="197" y="598"/>
      <point x="217" y="694"/>
      <point x="236" y="773" type="curve"/>
      <point x="129" y="773" type="line"/>
      <point x="96" y="701"/>
      <point x="61" y="610"/>
      <point x="43" y="540" type="curve"/>
    </contour>
  </outline>
</glyph>
<glyph name="quotedblright.telu" format="2">
  <advance width="507"/>
  <unicode hex="201D"/>
  <outline>
    <contour>
      <point x="457" y="773" type="line"/>
      <point x="320" y="773" type="line"/>
      <point x="310" y="705"/>
      <point x="290" y="607"/>
      <point x="271" y="529" type="curve"/>
      <point x="378" y="529" type="line"/>
      <point x="411" y="602"/>
      <point x="446" y="691"/>
      <point x="464" y="763" type="curve"/>
    </contour>
    <contour>
      <point x="229" y="773" type="line"/>
      <point x="92" y="773" type="line"/>
      <point x="82" y="705"/>
      <point x="62" y="607"/>
      <point x="43" y="529" type="curve"/>
      <point x="150" y="529" type="line"/>
      <point x="183" y="602"/>
      <point x="218" y="691"/>
      <point x="236" y="763" type="curve"/>
    </contour>
  </outline>
</glyph>
<glyph name="ellipsis.telu" format="2">
  <advance width="855"/>
  <unicode hex="2026"/>
  <outline>
    <contour>
      <point x="57" y="70" type="curve" smooth="yes"/>
      <point x="57" y="12"/>
      <point x="95" y="-13"/>
      <point x="143" y="-13" type="curve" smooth="yes"/>
      <point x="189" y="-13"/>
      <point x="228" y="12"/>
      <point x="228" y="70" type="curve" smooth="yes"/>
      <point x="228" y="131"/>
      <point x="189" y="153"/>
      <point x="143" y="153" type="curve" smooth="yes"/>
      <point x="95" y="153"/>
      <point x="57" y="131"/>
    </contour>
    <contour>
      <point x="342" y="70" type="curve" smooth="yes"/>
      <point x="342" y="12"/>
      <point x="380" y="-13"/>
      <point x="428" y="-13" type="curve" smooth="yes"/>
      <point x="474" y="-13"/>
      <point x="513" y="12"/>
      <point x="513" y="70" type="curve" smooth="yes"/>
      <point x="513" y="131"/>
      <point x="474" y="153"/>
      <point x="428" y="153" type="curve" smooth="yes"/>
      <point x="380" y="153"/>
      <point x="342" y="131"/>
    </contour>
    <contour>
      <point x="627" y="70" type="curve" smooth="yes"/>
      <point x="627" y="12"/>
      <point x="665" y="-13"/>
      <point x="713" y="-13" type="curve" smooth="yes"/>
      <point x="759" y="-13"/>
      <point x="798" y="12"/>
      <point x="798" y="70" type="curve" smooth="yes"/>
      <point x="798" y="131"/>
      <point x="759" y="153"/>
      <point x="713" y="153" type="curve" smooth="yes"/>
      <point x="665" y="153"/>
      <point x="627" y="131"/>
    </contour>
  </outline>
</glyph>
<glyph name="uni20B9.telu" format="2">
  <advance width="571"/>
  <unicode hex="20B9"/>
  <outline>
    <contour>
      <point x="244" y="0" type="line"/>
      <point x="404" y="0" type="line"/>
      <point x="198" y="224" type="line"/>
      <point x="297" y="240"/>
      <point x="375" y="289"/>
      <point x="382" y="377" type="curve"/>
      <point x="534" y="377" type="line"/>
      <point x="534" y="483" type="line"/>
      <point x="381" y="483" type="line"/>
      <point x="375" y="511"/>
      <point x="366" y="532"/>
      <point x="351" y="550" type="curve"/>
      <point x="534" y="550" type="line"/>
      <point x="534" y="651" type="line"/>
      <point x="39" y="651" type="line"/>
      <point x="39" y="550" type="line"/>
      <point x="125" y="550" type="line" smooth="yes"/>
      <point x="169" y="550"/>
      <point x="191" y="545"/>
      <point x="208" y="533" type="curve" smooth="yes"/>
      <point x="221" y="524"/>
      <point x="233" y="501"/>
      <point x="234" y="483" type="curve"/>
      <point x="39" y="483" type="line"/>
      <point x="39" y="377" type="line"/>
      <point x="236" y="377" type="line"/>
      <point x="219" y="326"/>
      <point x="174" y="315"/>
      <point x="113" y="315" type="curve" smooth="yes"/>
      <point x="50" y="315" type="line"/>
      <point x="38" y="231" type="line"/>
    </contour>
  </outline>
</glyph>
<glyph name="minus.telu" format="2">
  <advance width="572"/>
  <unicode hex="2212"/>
  <outline>
    <contour>
      <point x="43" y="272" type="line"/>
      <point x="528" y="272" type="line"/>
      <point x="528" y="379" type="line"/>
      <point x="43" y="379" type="line"/>
    </contour>
  </outline>
</glyph>
<glyph name="aavowelsign1telu" format="2">
  <outline>
    <contour>
      <point x="925" y="243" type="curve" smooth="yes"/>
      <point x="1026" y="243"/>
      <point x="1086" y="306"/>
      <point x="1086" y="394" type="curve" smooth="yes"/>
      <point x="1086" y="452"/>
      <point x="1064" y="489"/>
      <point x="1031" y="515" type="curve" smooth="yes"/>
      <point x="983" y="551"/>
      <point x="930" y="558"/>
      <point x="809" y="558" type="curve" smooth="yes"/>
      <point x="400" y="558" type="line"/>
      <point x="400" y="445" type="line"/>
      <point x="895" y="445" type="line" smooth="yes"/>
      <point x="949" y="445"/>
      <point x="984" y="431"/>
      <point x="984" y="391" type="curve" smooth="yes"/>
      <point x="984" y="361"/>
      <point x="965" y="339"/>
      <point x="927" y="339" type="curve" smooth="yes"/>
      <point x="894" y="339"/>
      <point x="871" y="363"/>
      <point x="871" y="397" type="curve" smooth="yes"/>
      <point x="871" y="438"/>
      <point x="890" y="461"/>
      <point x="919" y="489" type="curve"/>
      <point x="812" y="496" type="line"/>
      <point x="792" y="468"/>
      <point x="771" y="436"/>
      <point x="771" y="382" type="curve" smooth="yes"/>
      <point x="771" y="329"/>
      <point x="803" y="243"/>
    </contour>
  </outline>
</glyph>
<glyph name="aavowelsign2telu" format="2">
  <advance width="1140"/>
  <outline>
    <contour>
      <point x="959" y="184" type="curve" smooth="yes"/>
      <point x="1060" y="184"/>
      <point x="1119" y="248"/>
      <point x="1119" y="335" type="curve" smooth="yes"/>
      <point x="1119" y="394"/>
      <point x="1098" y="431"/>
      <point x="1064" y="456" type="curve" smooth="yes"/>
      <point x="1016" y="493"/>
      <point x="963" y="500"/>
      <point x="842" y="500" type="curve" smooth="yes"/>
      <point x="89" y="500" type="line"/>
      <point x="89" y="387" type="line"/>
      <point x="929" y="387" type="line" smooth="yes"/>
      <point x="982" y="387"/>
      <point x="1017" y="372"/>
      <point x="1017" y="332" type="curve" smooth="yes"/>
      <point x="1017" y="303"/>
      <point x="998" y="281"/>
      <point x="960" y="281" type="curve" smooth="yes"/>
      <point x="928" y="281"/>
      <point x="905" y="305"/>
      <point x="905" y="338" type="curve" smooth="yes"/>
      <point x="905" y="379"/>
      <point x="924" y="402"/>
      <point x="952" y="430" type="curve"/>
      <point x="845" y="438" type="line"/>
      <point x="826" y="409"/>
      <point x="805" y="377"/>
      <point x="805" y="323" type="curve" smooth="yes"/>
      <point x="805" y="270"/>
      <point x="837" y="184"/>
    </contour>
  </outline>
</glyph>
<glyph name="ailengthmarkUItelu" format="2">
  <outline>
    <contour>
      <point x="-453" y="-42" type="curve" smooth="yes"/>
      <point x="-548" y="-42"/>
      <point x="-608" y="-104"/>
      <point x="-608" y="-189" type="curve" smooth="yes"/>
      <point x="-608" y="-246"/>
      <point x="-585" y="-283"/>
      <point x="-552" y="-307" type="curve" smooth="yes"/>
      <point x="-504" y="-343"/>
      <point x="-450" y="-350"/>
      <point x="-328" y="-350" type="curve" smooth="yes"/>
      <point x="40" y="-350" type="line"/>
      <point x="40" y="-237" type="line"/>
      <point x="-427" y="-237" type="line" smooth="yes"/>
      <point x="-479" y="-237"/>
      <point x="-511" y="-223"/>
      <point x="-511" y="-184" type="curve" smooth="yes"/>
      <point x="-511" y="-156"/>
      <point x="-493" y="-134"/>
      <point x="-459" y="-134" type="curve" smooth="yes"/>
      <point x="-424" y="-134"/>
      <point x="-402" y="-158"/>
      <point x="-402" y="-190" type="curve" smooth="yes"/>
      <point x="-402" y="-230"/>
      <point x="-421" y="-253"/>
      <point x="-450" y="-280" type="curve"/>
      <point x="-345" y="-288" type="line"/>
      <point x="-325" y="-260"/>
      <point x="-304" y="-229"/>
      <point x="-304" y="-177" type="curve" smooth="yes"/>
      <point x="-304" y="-122"/>
      <point x="-336" y="-42"/>
    </contour>
  </outline>
</glyph>
<glyph name="ailengthmarknarrowUItelu" format="2">
  <outline>
    <contour>
      <point x="-435" y="-42" type="curve" smooth="yes"/>
      <point x="-529" y="-42"/>
      <point x="-589" y="-104"/>
      <point x="-589" y="-189" type="curve" smooth="yes"/>
      <point x="-589" y="-246"/>
      <point x="-566" y="-283"/>
      <point x="-533" y="-307" type="curve" smooth="yes"/>
      <point x="-485" y="-343"/>
      <point x="-431" y="-350"/>
      <point x="-309" y="-350" type="curve" smooth="yes"/>
      <point x="-39" y="-350" type="line"/>
      <point x="-39" y="-237" type="line"/>
      <point x="-408" y="-237" type="line" smooth="yes"/>
      <point x="-460" y="-237"/>
      <point x="-492" y="-223"/>
      <point x="-492" y="-184" type="curve" smooth="yes"/>
      <point x="-492" y="-156"/>
      <point x="-474" y="-134"/>
      <point x="-440" y="-134" type="curve" smooth="yes"/>
      <point x="-405" y="-134"/>
      <point x="-383" y="-158"/>
      <point x="-383" y="-190" type="curve" smooth="yes"/>
      <point x="-383" y="-230"/>
      <point x="-402" y="-253"/>
      <point x="-431" y="-280" type="curve"/>
      <point x="-326" y="-288" type="line"/>
      <point x="-307" y="-260"/>
      <point x="-285" y="-227"/>
      <point x="-285" y="-177" type="curve" smooth="yes"/>
      <point x="-285" y="-122"/>
      <point x="-317" y="-42"/>
    </contour>
  </outline>
</glyph>
